;Layer: Drill PTH
;EasyEDA v6.2.46, 2019-11-10T15:39:34+05:30
;8ae749d232974c02949487af05e517e1,699dadb93aee4be8b9b8ad6142c81684,10
;Gerber Generator version 0.2
M48
INCH,LZ,00.0000
;Holesize 1 = 0.012 INCH
T01C0.012
;Holesize 2 = 0.016 INCH
T02C0.016
;Holesize 3 = 0.028 INCH
T03C0.028
;Holesize 4 = 0.032 INCH
T04C0.032
;Holesize 5 = 0.032 INCH
T05C0.032
;Holesize 6 = 0.035 INCH
T06C0.035
;Holesize 7 = 0.035 INCH
T07C0.035
;Holesize 8 = 0.036 INCH
T08C0.036
;Holesize 9 = 0.038 INCH
T09C0.038
;Holesize 10 = 0.039 INCH
T10C0.039
;Holesize 11 = 0.040 INCH
T11C0.040
;Holesize 12 = 0.050 INCH
T12C0.050
;Holesize 13 = 0.051 INCH
T13C0.051
;Holesize 14 = 0.079 INCH
T14C0.079
%
G05
G90
T01
X+012900Y+011400
T02
X+013200Y+010650
T03
X+011550Y+013200
X+011550Y+011200
X+004550Y+006750
X+006550Y+006750
X+004550Y+009350
X+006550Y+009350
X+004550Y+011900
X+006550Y+011900
T04
X+002600Y+016150
X+002600Y+015150
X+002600Y+014150
X+002600Y+013150
X+002600Y+012150
X+002600Y+011150
X+002600Y+010150
X+002600Y+009150
X+002600Y+008150
X+002600Y+007150
X+002600Y+006150
X+002600Y+005150
X+002600Y+004150
X+002600Y+003150
X+002600Y+002150
X+008600Y+016150
X+008600Y+015150
X+008600Y+014150
X+008600Y+013150
X+008600Y+012150
X+008600Y+011150
X+008600Y+010150
X+008600Y+009150
X+008600Y+008150
X+008600Y+007150
X+008600Y+006150
X+008600Y+005150
X+008600Y+004150
X+008600Y+003150
X+008600Y+002150
X+005630Y+020116G85X+005630Y+020983
X+003150Y+020983G85X+003150Y+020116
X+004764Y+018759G85X+003897Y+018759
T05
X+016150Y+009400
X+016150Y+008400
X+016150Y+007400
X+016150Y+006400
X+019150Y+006400
X+019150Y+007400
X+019150Y+008400
X+019150Y+009400
T06
X+011063Y+009736
X+011063Y+005736
X+012713Y+005736
X+012713Y+009736
X+014350Y+005750
X+014350Y+009750
X+007050Y+021900
X+011050Y+021900
T07
X+026800Y+018416
X+026800Y+009283
T08
X+024075Y+007950
X+020923Y+007951
X+026850Y+006100
X+027850Y+006100
T09
X+008900Y+020250
X+008900Y+019250
T10
X+017300Y+021833
X+018299Y+021833
X+019299Y+021833
X+020299Y+021833
T11
X+016398Y+003280G85X+016401Y+003280
X+018959Y+003280G85X+018960Y+003280
X+016398Y+001500G85X+016401Y+001500
X+018959Y+001500G85X+018960Y+001500
X+011612Y+003266G85X+011614Y+003266
X+014172Y+003266G85X+014174Y+003266
X+011612Y+001486G85X+011614Y+001486
X+014172Y+001486G85X+014174Y+001486
X+021039Y+003280G85X+021040Y+003280
X+023598Y+003280G85X+023601Y+003280
X+021039Y+001500G85X+021040Y+001500
X+023598Y+001500G85X+023601Y+001500
T12
X+026150Y+002450
X+028150Y+002450
T13
X+032750Y+014150
X+032750Y+012150
X+032750Y+013150
T14
X+014213Y+021636
X+023386Y+021636
X+014213Y+012266
X+023386Y+012266
M30
