G04 Layer: BottomSilkLayer*
G04 EasyEDA v6.2.46, 2019-11-10T15:39:34+05:30*
G04 8ae749d232974c02949487af05e517e1,699dadb93aee4be8b9b8ad6142c81684,10*
G04 Gerber Generator version 0.2*
G04 Scale: 100 percent, Rotated: No, Reflected: No *
G04 Dimensions in inches *
G04 leading zeros omitted , absolute positions ,2 integer and 4 decimal *
%FSLAX24Y24*%
%MOIN*%
G90*
G70D02*

%ADD11C,0.008000*%

%LPD*%

%LPD*%
G36*
G01X18815Y20523D02*
G01X18812Y20523D01*
G01X18809Y20522D01*
G01X18802Y20515D01*
G01X18799Y20507D01*
G01X18796Y20498D01*
G01X18792Y20487D01*
G01X18789Y20474D01*
G01X18785Y20459D01*
G01X18781Y20440D01*
G01X18777Y20420D01*
G01X18773Y20398D01*
G01X18768Y20372D01*
G01X18764Y20344D01*
G01X18759Y20314D01*
G01X18754Y20281D01*
G01X18749Y20245D01*
G01X18743Y20206D01*
G01X18738Y20165D01*
G01X18732Y20120D01*
G01X18725Y20073D01*
G01X18719Y20022D01*
G01X18711Y19965D01*
G01X18704Y19911D01*
G01X18697Y19861D01*
G01X18691Y19814D01*
G01X18686Y19771D01*
G01X18681Y19730D01*
G01X18676Y19694D01*
G01X18672Y19660D01*
G01X18669Y19629D01*
G01X18666Y19601D01*
G01X18664Y19575D01*
G01X18663Y19553D01*
G01X18662Y19532D01*
G01X18662Y19513D01*
G01X18663Y19497D01*
G01X18664Y19483D01*
G01X18667Y19471D01*
G01X18669Y19460D01*
G01X18673Y19451D01*
G01X18677Y19444D01*
G01X18683Y19438D01*
G01X18689Y19433D01*
G01X18696Y19429D01*
G01X18703Y19426D01*
G01X18712Y19424D01*
G01X18732Y19422D01*
G01X18744Y19421D01*
G01X18769Y19421D01*
G01X18784Y19422D01*
G01X18830Y19422D01*
G01X18856Y19423D01*
G01X18878Y19425D01*
G01X18896Y19428D01*
G01X18910Y19434D01*
G01X18921Y19441D01*
G01X18929Y19451D01*
G01X18935Y19464D01*
G01X18939Y19480D01*
G01X18941Y19500D01*
G01X18942Y19524D01*
G01X18942Y19582D01*
G01X18941Y19600D01*
G01X18940Y19621D01*
G01X18938Y19643D01*
G01X18936Y19667D01*
G01X18934Y19693D01*
G01X18930Y19749D01*
G01X18927Y19779D01*
G01X18921Y19841D01*
G01X18918Y19874D01*
G01X18910Y19940D01*
G01X18907Y19974D01*
G01X18895Y20076D01*
G01X18883Y20175D01*
G01X18879Y20207D01*
G01X18871Y20267D01*
G01X18868Y20296D01*
G01X18864Y20323D01*
G01X18856Y20373D01*
G01X18853Y20395D01*
G01X18850Y20415D01*
G01X18846Y20434D01*
G01X18843Y20450D01*
G01X18840Y20463D01*
G01X18838Y20475D01*
G01X18836Y20483D01*
G01X18832Y20493D01*
G01X18829Y20502D01*
G01X18822Y20516D01*
G01X18819Y20520D01*
G01X18815Y20523D01*
G37*

%LPD*%
G36*
G01X18355Y20084D02*
G01X18351Y20085D01*
G01X18347Y20082D01*
G01X18344Y20075D01*
G01X18342Y20065D01*
G01X18339Y20052D01*
G01X18336Y20036D01*
G01X18334Y20016D01*
G01X18333Y20002D01*
G01X18332Y19986D01*
G01X18331Y19968D01*
G01X18331Y19904D01*
G01X18332Y19880D01*
G01X18332Y19854D01*
G01X18334Y19828D01*
G01X18336Y19774D01*
G01X18338Y19746D01*
G01X18340Y19719D01*
G01X18345Y19664D01*
G01X18353Y19592D01*
G01X18358Y19552D01*
G01X18364Y19516D01*
G01X18371Y19485D01*
G01X18377Y19459D01*
G01X18385Y19436D01*
G01X18394Y19418D01*
G01X18403Y19404D01*
G01X18414Y19394D01*
G01X18425Y19387D01*
G01X18438Y19384D01*
G01X18453Y19384D01*
G01X18469Y19388D01*
G01X18486Y19395D01*
G01X18506Y19405D01*
G01X18527Y19417D01*
G01X18535Y19423D01*
G01X18543Y19430D01*
G01X18549Y19437D01*
G01X18555Y19445D01*
G01X18559Y19454D01*
G01X18561Y19464D01*
G01X18563Y19476D01*
G01X18563Y19490D01*
G01X18561Y19507D01*
G01X18558Y19525D01*
G01X18554Y19546D01*
G01X18548Y19570D01*
G01X18540Y19597D01*
G01X18531Y19627D01*
G01X18520Y19661D01*
G01X18507Y19699D01*
G01X18493Y19741D01*
G01X18476Y19787D01*
G01X18458Y19838D01*
G01X18438Y19893D01*
G01X18423Y19932D01*
G01X18411Y19967D01*
G01X18399Y19996D01*
G01X18389Y20022D01*
G01X18380Y20042D01*
G01X18373Y20059D01*
G01X18366Y20071D01*
G01X18360Y20080D01*
G01X18355Y20084D01*
G37*

%LPD*%
G36*
G01X19302Y20113D02*
G01X19300Y20117D01*
G01X19298Y20116D01*
G01X19294Y20112D01*
G01X19290Y20105D01*
G01X19285Y20094D01*
G01X19278Y20081D01*
G01X19271Y20065D01*
G01X19263Y20046D01*
G01X19254Y20025D01*
G01X19245Y20002D01*
G01X19235Y19976D01*
G01X19224Y19949D01*
G01X19213Y19920D01*
G01X19201Y19890D01*
G01X19189Y19858D01*
G01X19165Y19792D01*
G01X19152Y19757D01*
G01X19032Y19421D01*
G01X19133Y19396D01*
G01X19173Y19388D01*
G01X19209Y19384D01*
G01X19236Y19384D01*
G01X19251Y19389D01*
G01X19253Y19392D01*
G01X19255Y19400D01*
G01X19257Y19411D01*
G01X19260Y19425D01*
G01X19263Y19442D01*
G01X19265Y19461D01*
G01X19268Y19484D01*
G01X19271Y19509D01*
G01X19274Y19536D01*
G01X19277Y19565D01*
G01X19281Y19596D01*
G01X19284Y19629D01*
G01X19287Y19663D01*
G01X19293Y19735D01*
G01X19296Y19773D01*
G01X19298Y19810D01*
G01X19301Y19846D01*
G01X19302Y19880D01*
G01X19304Y19913D01*
G01X19306Y19944D01*
G01X19306Y19973D01*
G01X19307Y20000D01*
G01X19307Y20066D01*
G01X19306Y20083D01*
G01X19305Y20096D01*
G01X19304Y20106D01*
G01X19302Y20113D01*
G37*

%LPD*%
G36*
G01X17748Y20240D02*
G01X17744Y20241D01*
G01X17731Y20236D01*
G01X17724Y20220D01*
G01X17724Y20198D01*
G01X17734Y20163D01*
G01X17738Y20153D01*
G01X17741Y20142D01*
G01X17746Y20128D01*
G01X17751Y20113D01*
G01X17756Y20095D01*
G01X17762Y20076D01*
G01X17768Y20055D01*
G01X17775Y20033D01*
G01X17781Y20010D01*
G01X17789Y19985D01*
G01X17796Y19959D01*
G01X17812Y19905D01*
G01X17828Y19847D01*
G01X17837Y19817D01*
G01X17845Y19787D01*
G01X17854Y19757D01*
G01X17863Y19726D01*
G01X17877Y19675D01*
G01X17889Y19628D01*
G01X17902Y19585D01*
G01X17913Y19545D01*
G01X17924Y19508D01*
G01X17934Y19474D01*
G01X17944Y19443D01*
G01X17953Y19415D01*
G01X17962Y19390D01*
G01X17970Y19368D01*
G01X17978Y19348D01*
G01X17987Y19331D01*
G01X17995Y19316D01*
G01X18003Y19303D01*
G01X18011Y19293D01*
G01X18019Y19284D01*
G01X18028Y19278D01*
G01X18036Y19273D01*
G01X18046Y19269D01*
G01X18056Y19268D01*
G01X18066Y19268D01*
G01X18077Y19269D01*
G01X18088Y19271D01*
G01X18114Y19279D01*
G01X18128Y19284D01*
G01X18143Y19290D01*
G01X18160Y19297D01*
G01X18185Y19308D01*
G01X18209Y19319D01*
G01X18231Y19330D01*
G01X18250Y19340D01*
G01X18265Y19349D01*
G01X18277Y19357D01*
G01X18284Y19364D01*
G01X18287Y19369D01*
G01X18283Y19377D01*
G01X18279Y19386D01*
G01X18274Y19396D01*
G01X18267Y19409D01*
G01X18259Y19425D01*
G01X18249Y19443D01*
G01X18238Y19462D01*
G01X18226Y19484D01*
G01X18213Y19507D01*
G01X18198Y19532D01*
G01X18183Y19559D01*
G01X18167Y19587D01*
G01X18133Y19647D01*
G01X18095Y19711D01*
G01X18076Y19745D01*
G01X18056Y19780D01*
G01X18035Y19814D01*
G01X18014Y19849D01*
G01X17994Y19884D01*
G01X17973Y19917D01*
G01X17953Y19949D01*
G01X17934Y19980D01*
G01X17915Y20010D01*
G01X17897Y20039D01*
G01X17879Y20066D01*
G01X17862Y20092D01*
G01X17846Y20116D01*
G01X17830Y20138D01*
G01X17816Y20159D01*
G01X17802Y20177D01*
G01X17790Y20194D01*
G01X17779Y20208D01*
G01X17769Y20219D01*
G01X17760Y20229D01*
G01X17753Y20236D01*
G01X17748Y20240D01*
G37*

%LPD*%
G36*
G01X19868Y20195D02*
G01X19856Y20200D01*
G01X19852Y20199D01*
G01X19847Y20195D01*
G01X19840Y20188D01*
G01X19832Y20179D01*
G01X19822Y20167D01*
G01X19812Y20153D01*
G01X19800Y20137D01*
G01X19787Y20119D01*
G01X19773Y20100D01*
G01X19743Y20056D01*
G01X19726Y20032D01*
G01X19692Y19980D01*
G01X19673Y19952D01*
G01X19655Y19924D01*
G01X19636Y19895D01*
G01X19618Y19866D01*
G01X19580Y19806D01*
G01X19542Y19745D01*
G01X19524Y19715D01*
G01X19488Y19657D01*
G01X19471Y19628D01*
G01X19454Y19600D01*
G01X19438Y19573D01*
G01X19423Y19547D01*
G01X19408Y19522D01*
G01X19395Y19498D01*
G01X19383Y19476D01*
G01X19372Y19456D01*
G01X19361Y19437D01*
G01X19353Y19420D01*
G01X19345Y19405D01*
G01X19339Y19392D01*
G01X19335Y19381D01*
G01X19333Y19373D01*
G01X19332Y19367D01*
G01X19335Y19359D01*
G01X19342Y19349D01*
G01X19355Y19338D01*
G01X19371Y19327D01*
G01X19390Y19314D01*
G01X19413Y19301D01*
G01X19438Y19289D01*
G01X19464Y19277D01*
G01X19597Y19221D01*
G01X19724Y19639D01*
G01X19735Y19673D01*
G01X19765Y19775D01*
G01X19785Y19839D01*
G01X19803Y19899D01*
G01X19811Y19928D01*
G01X19819Y19955D01*
G01X19827Y19981D01*
G01X19835Y20005D01*
G01X19841Y20028D01*
G01X19847Y20049D01*
G01X19853Y20068D01*
G01X19858Y20085D01*
G01X19862Y20099D01*
G01X19866Y20111D01*
G01X19869Y20121D01*
G01X19871Y20129D01*
G01X19876Y20157D01*
G01X19875Y20179D01*
G01X19868Y20195D01*
G37*

%LPD*%
G36*
G01X17479Y19690D02*
G01X17476Y19690D01*
G01X17475Y19686D01*
G01X17476Y19677D01*
G01X17479Y19665D01*
G01X17484Y19650D01*
G01X17492Y19632D01*
G01X17500Y19611D01*
G01X17511Y19587D01*
G01X17522Y19562D01*
G01X17535Y19535D01*
G01X17549Y19506D01*
G01X17564Y19477D01*
G01X17612Y19384D01*
G01X17629Y19352D01*
G01X17646Y19321D01*
G01X17663Y19291D01*
G01X17679Y19262D01*
G01X17695Y19234D01*
G01X17710Y19208D01*
G01X17725Y19184D01*
G01X17739Y19162D01*
G01X17751Y19142D01*
G01X17763Y19126D01*
G01X17772Y19112D01*
G01X17781Y19102D01*
G01X17787Y19096D01*
G01X17792Y19094D01*
G01X17809Y19098D01*
G01X17835Y19111D01*
G01X17867Y19130D01*
G01X17900Y19153D01*
G01X17913Y19163D01*
G01X17924Y19173D01*
G01X17933Y19182D01*
G01X17939Y19191D01*
G01X17942Y19201D01*
G01X17943Y19212D01*
G01X17940Y19225D01*
G01X17934Y19238D01*
G01X17924Y19255D01*
G01X17910Y19273D01*
G01X17892Y19295D01*
G01X17870Y19319D01*
G01X17844Y19348D01*
G01X17813Y19380D01*
G01X17777Y19417D01*
G01X17736Y19459D01*
G01X17663Y19532D01*
G01X17640Y19554D01*
G01X17618Y19575D01*
G01X17597Y19594D01*
G01X17577Y19613D01*
G01X17559Y19629D01*
G01X17542Y19644D01*
G01X17527Y19657D01*
G01X17513Y19668D01*
G01X17501Y19677D01*
G01X17492Y19684D01*
G01X17484Y19688D01*
G01X17479Y19690D01*
G37*

%LPD*%
G36*
G01X20164Y19666D02*
G01X20157Y19668D01*
G01X20148Y19666D01*
G01X20137Y19662D01*
G01X20124Y19655D01*
G01X20109Y19645D01*
G01X20091Y19632D01*
G01X20071Y19616D01*
G01X20048Y19597D01*
G01X20023Y19575D01*
G01X19996Y19549D01*
G01X19965Y19521D01*
G01X19932Y19489D01*
G01X19832Y19389D01*
G01X19805Y19360D01*
G01X19780Y19334D01*
G01X19759Y19309D01*
G01X19740Y19286D01*
G01X19725Y19265D01*
G01X19712Y19246D01*
G01X19702Y19228D01*
G01X19694Y19212D01*
G01X19690Y19196D01*
G01X19688Y19182D01*
G01X19688Y19169D01*
G01X19691Y19157D01*
G01X19697Y19146D01*
G01X19705Y19135D01*
G01X19715Y19125D01*
G01X19728Y19115D01*
G01X19743Y19105D01*
G01X19760Y19095D01*
G01X19777Y19087D01*
G01X19792Y19081D01*
G01X19806Y19079D01*
G01X19819Y19080D01*
G01X19832Y19084D01*
G01X19845Y19093D01*
G01X19859Y19106D01*
G01X19874Y19124D01*
G01X19890Y19146D01*
G01X19908Y19174D01*
G01X19928Y19208D01*
G01X19951Y19247D01*
G01X19966Y19274D01*
G01X20014Y19358D01*
G01X20030Y19385D01*
G01X20060Y19437D01*
G01X20073Y19461D01*
G01X20086Y19482D01*
G01X20098Y19502D01*
G01X20108Y19519D01*
G01X20117Y19533D01*
G01X20138Y19570D01*
G01X20156Y19603D01*
G01X20168Y19630D01*
G01X20172Y19646D01*
G01X20171Y19655D01*
G01X20168Y19662D01*
G01X20164Y19666D01*
G37*

%LPD*%
G36*
G01X16802Y19665D02*
G01X16798Y19666D01*
G01X16797Y19665D01*
G01X16797Y19662D01*
G01X16800Y19657D01*
G01X16803Y19650D01*
G01X16809Y19642D01*
G01X16816Y19631D01*
G01X16825Y19619D01*
G01X16835Y19605D01*
G01X16846Y19590D01*
G01X16858Y19573D01*
G01X16872Y19556D01*
G01X16886Y19537D01*
G01X16902Y19517D01*
G01X16919Y19496D01*
G01X16936Y19473D01*
G01X16955Y19451D01*
G01X16973Y19427D01*
G01X16993Y19403D01*
G01X17013Y19378D01*
G01X17034Y19353D01*
G01X17055Y19327D01*
G01X17077Y19301D01*
G01X17098Y19275D01*
G01X17120Y19249D01*
G01X17186Y19170D01*
G01X17208Y19144D01*
G01X17230Y19119D01*
G01X17272Y19069D01*
G01X17293Y19045D01*
G01X17333Y18999D01*
G01X17352Y18978D01*
G01X17370Y18957D01*
G01X17388Y18937D01*
G01X17405Y18919D01*
G01X17421Y18901D01*
G01X17435Y18885D01*
G01X17449Y18871D01*
G01X17461Y18857D01*
G01X17483Y18836D01*
G01X17492Y18828D01*
G01X17499Y18822D01*
G01X17504Y18817D01*
G01X17509Y18815D01*
G01X17517Y18815D01*
G01X17528Y18820D01*
G01X17541Y18829D01*
G01X17556Y18842D01*
G01X17573Y18858D01*
G01X17590Y18877D01*
G01X17608Y18899D01*
G01X17626Y18923D01*
G01X17711Y19043D01*
G01X17272Y19354D01*
G01X17241Y19375D01*
G01X17212Y19396D01*
G01X17182Y19417D01*
G01X17154Y19436D01*
G01X17126Y19456D01*
G01X17098Y19475D01*
G01X17071Y19493D01*
G01X17045Y19511D01*
G01X17020Y19528D01*
G01X16996Y19544D01*
G01X16973Y19559D01*
G01X16951Y19574D01*
G01X16930Y19588D01*
G01X16910Y19601D01*
G01X16892Y19612D01*
G01X16875Y19623D01*
G01X16860Y19633D01*
G01X16846Y19641D01*
G01X16834Y19649D01*
G01X16823Y19655D01*
G01X16814Y19660D01*
G01X16807Y19663D01*
G01X16802Y19665D01*
G37*

%LPD*%
G36*
G01X20688Y19543D02*
G01X20678Y19545D01*
G01X20675Y19544D01*
G01X20668Y19541D01*
G01X20660Y19536D01*
G01X20648Y19529D01*
G01X20635Y19521D01*
G01X20618Y19511D01*
G01X20600Y19500D01*
G01X20580Y19488D01*
G01X20559Y19474D01*
G01X20535Y19459D01*
G01X20510Y19443D01*
G01X20484Y19427D01*
G01X20457Y19409D01*
G01X20429Y19391D01*
G01X20371Y19353D01*
G01X20340Y19333D01*
G01X20310Y19313D01*
G01X20249Y19273D01*
G01X20218Y19252D01*
G01X20188Y19232D01*
G01X20159Y19213D01*
G01X20130Y19193D01*
G01X20101Y19174D01*
G01X20074Y19156D01*
G01X20048Y19138D01*
G01X20023Y19121D01*
G01X19999Y19105D01*
G01X19977Y19090D01*
G01X19957Y19076D01*
G01X19939Y19063D01*
G01X19923Y19051D01*
G01X19909Y19041D01*
G01X19897Y19032D01*
G01X19888Y19025D01*
G01X19887Y19018D01*
G01X19893Y19003D01*
G01X19906Y18984D01*
G01X19923Y18961D01*
G01X19944Y18936D01*
G01X19967Y18910D01*
G01X19991Y18884D01*
G01X20015Y18860D01*
G01X20038Y18839D01*
G01X20059Y18822D01*
G01X20075Y18811D01*
G01X20087Y18807D01*
G01X20090Y18808D01*
G01X20095Y18812D01*
G01X20102Y18818D01*
G01X20111Y18826D01*
G01X20122Y18836D01*
G01X20134Y18848D01*
G01X20147Y18863D01*
G01X20162Y18878D01*
G01X20178Y18895D01*
G01X20196Y18914D01*
G01X20214Y18934D01*
G01X20233Y18955D01*
G01X20253Y18977D01*
G01X20274Y19000D01*
G01X20295Y19024D01*
G01X20317Y19048D01*
G01X20339Y19073D01*
G01X20361Y19099D01*
G01X20429Y19177D01*
G01X20452Y19203D01*
G01X20496Y19255D01*
G01X20517Y19280D01*
G01X20538Y19304D01*
G01X20557Y19328D01*
G01X20577Y19351D01*
G01X20595Y19373D01*
G01X20612Y19395D01*
G01X20628Y19415D01*
G01X20643Y19433D01*
G01X20657Y19450D01*
G01X20669Y19466D01*
G01X20679Y19480D01*
G01X20688Y19492D01*
G01X20695Y19502D01*
G01X20701Y19511D01*
G01X20703Y19517D01*
G01X20705Y19520D01*
G01X20702Y19530D01*
G01X20697Y19538D01*
G01X20688Y19543D01*
G37*

%LPD*%
G36*
G01X16888Y19003D02*
G01X16876Y19005D01*
G01X16867Y19004D01*
G01X16861Y19001D01*
G01X16856Y18997D01*
G01X16854Y18991D01*
G01X16852Y18984D01*
G01X16852Y18975D01*
G01X16855Y18968D01*
G01X16861Y18958D01*
G01X16872Y18946D01*
G01X16887Y18930D01*
G01X16906Y18913D01*
G01X16927Y18893D01*
G01X16952Y18872D01*
G01X16979Y18849D01*
G01X17009Y18825D01*
G01X17040Y18800D01*
G01X17073Y18774D01*
G01X17108Y18748D01*
G01X17150Y18717D01*
G01X17187Y18690D01*
G01X17219Y18667D01*
G01X17248Y18646D01*
G01X17274Y18630D01*
G01X17296Y18616D01*
G01X17315Y18606D01*
G01X17332Y18598D01*
G01X17347Y18594D01*
G01X17359Y18592D01*
G01X17370Y18593D01*
G01X17381Y18596D01*
G01X17390Y18601D01*
G01X17407Y18618D01*
G01X17416Y18630D01*
G01X17435Y18660D01*
G01X17449Y18691D01*
G01X17457Y18717D01*
G01X17456Y18737D01*
G01X17452Y18743D01*
G01X17443Y18751D01*
G01X17431Y18760D01*
G01X17414Y18771D01*
G01X17393Y18783D01*
G01X17370Y18796D01*
G01X17343Y18810D01*
G01X17314Y18825D01*
G01X17283Y18840D01*
G01X17250Y18856D01*
G01X17215Y18872D01*
G01X17179Y18888D01*
G01X17126Y18911D01*
G01X17078Y18932D01*
G01X17037Y18949D01*
G01X17001Y18964D01*
G01X16970Y18977D01*
G01X16943Y18987D01*
G01X16921Y18994D01*
G01X16902Y19000D01*
G01X16888Y19003D01*
G37*

%LPD*%
G36*
G01X20777Y18969D02*
G01X20771Y18971D01*
G01X20765Y18970D01*
G01X20756Y18968D01*
G01X20743Y18964D01*
G01X20727Y18959D01*
G01X20708Y18953D01*
G01X20686Y18945D01*
G01X20663Y18937D01*
G01X20637Y18928D01*
G01X20610Y18917D01*
G01X20581Y18907D01*
G01X20551Y18896D01*
G01X20427Y18848D01*
G01X20367Y18824D01*
G01X20339Y18812D01*
G01X20311Y18801D01*
G01X20285Y18790D01*
G01X20252Y18776D01*
G01X20225Y18763D01*
G01X20202Y18752D01*
G01X20185Y18741D01*
G01X20172Y18730D01*
G01X20163Y18719D01*
G01X20157Y18707D01*
G01X20156Y18694D01*
G01X20158Y18680D01*
G01X20163Y18663D01*
G01X20170Y18644D01*
G01X20180Y18621D01*
G01X20200Y18582D01*
G01X20221Y18552D01*
G01X20240Y18533D01*
G01X20254Y18529D01*
G01X20263Y18534D01*
G01X20275Y18541D01*
G01X20290Y18550D01*
G01X20306Y18561D01*
G01X20325Y18573D01*
G01X20346Y18587D01*
G01X20368Y18603D01*
G01X20391Y18620D01*
G01X20441Y18656D01*
G01X20467Y18676D01*
G01X20494Y18696D01*
G01X20520Y18716D01*
G01X20547Y18736D01*
G01X20573Y18757D01*
G01X20599Y18777D01*
G01X20624Y18797D01*
G01X20648Y18816D01*
G01X20671Y18835D01*
G01X20693Y18853D01*
G01X20712Y18869D01*
G01X20730Y18884D01*
G01X20746Y18898D01*
G01X20760Y18911D01*
G01X20771Y18921D01*
G01X20778Y18930D01*
G01X20784Y18936D01*
G01X20785Y18940D01*
G01X20785Y18952D01*
G01X20782Y18962D01*
G01X20777Y18969D01*
G37*

%LPD*%
G36*
G01X16365Y18679D02*
G01X16344Y18679D01*
G01X16336Y18678D01*
G01X16330Y18676D01*
G01X16325Y18674D01*
G01X16322Y18671D01*
G01X16320Y18668D01*
G01X16319Y18664D01*
G01X16321Y18661D01*
G01X16325Y18657D01*
G01X16332Y18651D01*
G01X16342Y18644D01*
G01X16355Y18636D01*
G01X16369Y18627D01*
G01X16386Y18617D01*
G01X16404Y18607D01*
G01X16425Y18595D01*
G01X16447Y18583D01*
G01X16471Y18570D01*
G01X16497Y18557D01*
G01X16523Y18543D01*
G01X16551Y18528D01*
G01X16609Y18498D01*
G01X16671Y18468D01*
G01X16702Y18452D01*
G01X16734Y18436D01*
G01X16765Y18421D01*
G01X16828Y18390D01*
G01X16860Y18376D01*
G01X16890Y18361D01*
G01X16921Y18347D01*
G01X16950Y18333D01*
G01X16978Y18320D01*
G01X17006Y18308D01*
G01X17032Y18296D01*
G01X17057Y18285D01*
G01X17080Y18275D01*
G01X17102Y18266D01*
G01X17122Y18257D01*
G01X17140Y18250D01*
G01X17156Y18244D01*
G01X17170Y18240D01*
G01X17181Y18236D01*
G01X17190Y18234D01*
G01X17197Y18233D01*
G01X17210Y18238D01*
G01X17225Y18251D01*
G01X17239Y18270D01*
G01X17254Y18294D01*
G01X17268Y18323D01*
G01X17280Y18353D01*
G01X17291Y18384D01*
G01X17299Y18414D01*
G01X17305Y18442D01*
G01X17306Y18466D01*
G01X17304Y18485D01*
G01X17297Y18496D01*
G01X17293Y18498D01*
G01X17285Y18501D01*
G01X17274Y18504D01*
G01X17259Y18508D01*
G01X17240Y18512D01*
G01X17218Y18517D01*
G01X17194Y18523D01*
G01X17166Y18529D01*
G01X17136Y18536D01*
G01X17104Y18543D01*
G01X17069Y18551D01*
G01X17033Y18558D01*
G01X16995Y18566D01*
G01X16955Y18575D01*
G01X16914Y18583D01*
G01X16873Y18592D01*
G01X16820Y18602D01*
G01X16770Y18612D01*
G01X16723Y18622D01*
G01X16680Y18630D01*
G01X16639Y18638D01*
G01X16602Y18645D01*
G01X16567Y18652D01*
G01X16535Y18657D01*
G01X16505Y18662D01*
G01X16478Y18667D01*
G01X16454Y18670D01*
G01X16432Y18673D01*
G01X16412Y18676D01*
G01X16394Y18678D01*
G01X16379Y18678D01*
G01X16365Y18679D01*
G37*

%LPD*%
G36*
G01X21252Y18640D02*
G01X21216Y18640D01*
G01X21200Y18638D01*
G01X21181Y18636D01*
G01X21160Y18633D01*
G01X21136Y18630D01*
G01X21110Y18626D01*
G01X21080Y18621D01*
G01X21047Y18616D01*
G01X21011Y18609D01*
G01X20971Y18603D01*
G01X20928Y18595D01*
G01X20881Y18586D01*
G01X20830Y18577D01*
G01X20776Y18567D01*
G01X20716Y18556D01*
G01X20659Y18545D01*
G01X20607Y18535D01*
G01X20559Y18526D01*
G01X20516Y18517D01*
G01X20477Y18509D01*
G01X20442Y18501D01*
G01X20411Y18493D01*
G01X20383Y18486D01*
G01X20359Y18479D01*
G01X20339Y18473D01*
G01X20321Y18466D01*
G01X20295Y18453D01*
G01X20286Y18446D01*
G01X20280Y18440D01*
G01X20275Y18433D01*
G01X20273Y18426D01*
G01X20272Y18418D01*
G01X20274Y18411D01*
G01X20277Y18402D01*
G01X20289Y18371D01*
G01X20302Y18334D01*
G01X20315Y18296D01*
G01X20325Y18263D01*
G01X20339Y18232D01*
G01X20360Y18214D01*
G01X20388Y18208D01*
G01X20423Y18214D01*
G01X20434Y18218D01*
G01X20447Y18223D01*
G01X20462Y18228D01*
G01X20479Y18235D01*
G01X20497Y18243D01*
G01X20539Y18261D01*
G01X20563Y18271D01*
G01X20587Y18282D01*
G01X20612Y18293D01*
G01X20666Y18317D01*
G01X20722Y18343D01*
G01X20752Y18356D01*
G01X20781Y18370D01*
G01X20871Y18412D01*
G01X20930Y18440D01*
G01X20959Y18455D01*
G01X20987Y18468D01*
G01X21015Y18482D01*
G01X21043Y18495D01*
G01X21069Y18508D01*
G01X21094Y18521D01*
G01X21142Y18545D01*
G01X21184Y18567D01*
G01X21202Y18576D01*
G01X21219Y18585D01*
G01X21234Y18594D01*
G01X21247Y18601D01*
G01X21258Y18607D01*
G01X21273Y18617D01*
G01X21277Y18621D01*
G01X21278Y18623D01*
G01X21278Y18627D01*
G01X21277Y18630D01*
G01X21275Y18633D01*
G01X21271Y18636D01*
G01X21266Y18638D01*
G01X21260Y18639D01*
G01X21252Y18640D01*
G37*

%LPD*%
G36*
G01X17103Y18148D02*
G01X17068Y18149D01*
G01X17027Y18148D01*
G01X17006Y18148D01*
G01X16984Y18147D01*
G01X16936Y18145D01*
G01X16886Y18141D01*
G01X16860Y18139D01*
G01X16835Y18137D01*
G01X16784Y18132D01*
G01X16759Y18130D01*
G01X16734Y18127D01*
G01X16688Y18121D01*
G01X16667Y18118D01*
G01X16647Y18115D01*
G01X16463Y18085D01*
G01X16811Y18001D01*
G01X16847Y17992D01*
G01X16882Y17984D01*
G01X16916Y17976D01*
G01X16949Y17969D01*
G01X16981Y17963D01*
G01X17011Y17957D01*
G01X17039Y17951D01*
G01X17066Y17946D01*
G01X17091Y17942D01*
G01X17114Y17938D01*
G01X17134Y17936D01*
G01X17151Y17934D01*
G01X17165Y17932D01*
G01X17185Y17932D01*
G01X17190Y17934D01*
G01X17202Y17948D01*
G01X17212Y17975D01*
G01X17219Y18011D01*
G01X17221Y18051D01*
G01X17221Y18073D01*
G01X17219Y18091D01*
G01X17216Y18106D01*
G01X17210Y18118D01*
G01X17202Y18128D01*
G01X17191Y18135D01*
G01X17176Y18141D01*
G01X17157Y18145D01*
G01X17133Y18147D01*
G01X17103Y18148D01*
G37*

%LPD*%
G36*
G01X20633Y18105D02*
G01X20377Y18110D01*
G01X20377Y17951D01*
G01X20380Y17925D01*
G01X20384Y17905D01*
G01X20390Y17890D01*
G01X20398Y17880D01*
G01X20408Y17874D01*
G01X20420Y17874D01*
G01X20434Y17878D01*
G01X20442Y17880D01*
G01X20452Y17884D01*
G01X20467Y17887D01*
G01X20483Y17892D01*
G01X20503Y17897D01*
G01X20525Y17903D01*
G01X20549Y17909D01*
G01X20575Y17915D01*
G01X20603Y17922D01*
G01X20633Y17929D01*
G01X20664Y17936D01*
G01X20696Y17943D01*
G01X20764Y17959D01*
G01X20798Y17966D01*
G01X20834Y17974D01*
G01X20878Y17984D01*
G01X20919Y17992D01*
G01X20955Y18001D01*
G01X20987Y18008D01*
G01X21039Y18021D01*
G01X21060Y18027D01*
G01X21076Y18032D01*
G01X21090Y18036D01*
G01X21099Y18041D01*
G01X21106Y18044D01*
G01X21109Y18048D01*
G01X21109Y18052D01*
G01X21106Y18055D01*
G01X21101Y18058D01*
G01X21092Y18061D01*
G01X21081Y18064D01*
G01X21067Y18067D01*
G01X21051Y18071D01*
G01X21032Y18074D01*
G01X21017Y18077D01*
G01X20998Y18079D01*
G01X20978Y18082D01*
G01X20957Y18084D01*
G01X20933Y18087D01*
G01X20909Y18089D01*
G01X20883Y18091D01*
G01X20856Y18094D01*
G01X20828Y18096D01*
G01X20801Y18098D01*
G01X20744Y18101D01*
G01X20715Y18102D01*
G01X20687Y18103D01*
G01X20633Y18105D01*
G37*

%LPD*%
G36*
G01X20428Y17796D02*
G01X20411Y17796D01*
G01X20407Y17795D01*
G01X20396Y17779D01*
G01X20386Y17747D01*
G01X20379Y17705D01*
G01X20377Y17657D01*
G01X20377Y17536D01*
G01X20916Y17536D01*
G01X20956Y17537D01*
G01X20994Y17537D01*
G01X21031Y17538D01*
G01X21067Y17539D01*
G01X21101Y17540D01*
G01X21133Y17541D01*
G01X21164Y17542D01*
G01X21193Y17543D01*
G01X21219Y17545D01*
G01X21244Y17546D01*
G01X21266Y17548D01*
G01X21286Y17550D01*
G01X21303Y17552D01*
G01X21318Y17554D01*
G01X21329Y17556D01*
G01X21338Y17558D01*
G01X21344Y17560D01*
G01X21347Y17563D01*
G01X21346Y17565D01*
G01X21342Y17567D01*
G01X21335Y17571D01*
G01X21326Y17575D01*
G01X21314Y17579D01*
G01X21300Y17584D01*
G01X21284Y17590D01*
G01X21265Y17596D01*
G01X21244Y17603D01*
G01X21221Y17609D01*
G01X21197Y17617D01*
G01X21171Y17625D01*
G01X21143Y17632D01*
G01X21113Y17641D01*
G01X21083Y17649D01*
G01X21051Y17658D01*
G01X21018Y17667D01*
G01X20984Y17676D01*
G01X20949Y17684D01*
G01X20914Y17694D01*
G01X20842Y17711D01*
G01X20806Y17720D01*
G01X20738Y17736D01*
G01X20705Y17744D01*
G01X20673Y17751D01*
G01X20642Y17758D01*
G01X20613Y17764D01*
G01X20585Y17770D01*
G01X20558Y17775D01*
G01X20534Y17780D01*
G01X20511Y17784D01*
G01X20490Y17788D01*
G01X20471Y17790D01*
G01X20454Y17793D01*
G01X20440Y17795D01*
G01X20428Y17796D01*
G37*

%LPD*%
G36*
G01X20672Y17295D02*
G01X20356Y17443D01*
G01X20309Y17336D01*
G01X20298Y17312D01*
G01X20290Y17292D01*
G01X20285Y17275D01*
G01X20284Y17260D01*
G01X20286Y17248D01*
G01X20293Y17238D01*
G01X20305Y17228D01*
G01X20322Y17220D01*
G01X20344Y17212D01*
G01X20373Y17204D01*
G01X20409Y17195D01*
G01X20452Y17185D01*
G01X20491Y17176D01*
G01X20529Y17167D01*
G01X20565Y17159D01*
G01X20601Y17152D01*
G01X20636Y17145D01*
G01X20669Y17138D01*
G01X20701Y17132D01*
G01X20732Y17127D01*
G01X20761Y17122D01*
G01X20789Y17117D01*
G01X20815Y17114D01*
G01X20840Y17110D01*
G01X20863Y17107D01*
G01X20884Y17105D01*
G01X20903Y17104D01*
G01X20921Y17103D01*
G01X20937Y17102D01*
G01X20951Y17102D01*
G01X20963Y17103D01*
G01X20972Y17104D01*
G01X20980Y17106D01*
G01X20986Y17109D01*
G01X20989Y17112D01*
G01X20990Y17116D01*
G01X20988Y17120D01*
G01X20983Y17125D01*
G01X20975Y17132D01*
G01X20964Y17140D01*
G01X20951Y17149D01*
G01X20935Y17159D01*
G01X20916Y17170D01*
G01X20896Y17182D01*
G01X20873Y17194D01*
G01X20849Y17207D01*
G01X20795Y17235D01*
G01X20766Y17250D01*
G01X20736Y17265D01*
G01X20672Y17295D01*
G37*

%LPD*%
G36*
G01X18858Y19331D02*
G01X18834Y19331D01*
G01X18810Y19330D01*
G01X18785Y19330D01*
G01X18761Y19329D01*
G01X18737Y19327D01*
G01X18713Y19326D01*
G01X18689Y19323D01*
G01X18664Y19321D01*
G01X18640Y19318D01*
G01X18615Y19315D01*
G01X18543Y19303D01*
G01X18518Y19298D01*
G01X18470Y19288D01*
G01X18422Y19276D01*
G01X18398Y19269D01*
G01X18375Y19263D01*
G01X18351Y19256D01*
G01X18327Y19248D01*
G01X18281Y19232D01*
G01X18257Y19224D01*
G01X18235Y19216D01*
G01X18189Y19198D01*
G01X18123Y19168D01*
G01X18102Y19157D01*
G01X18080Y19147D01*
G01X18038Y19125D01*
G01X18018Y19113D01*
G01X17997Y19101D01*
G01X17957Y19077D01*
G01X17919Y19051D01*
G01X17901Y19038D01*
G01X17882Y19024D01*
G01X17864Y19011D01*
G01X17847Y18996D01*
G01X17829Y18982D01*
G01X17813Y18968D01*
G01X17796Y18953D01*
G01X17780Y18938D01*
G01X17744Y18902D01*
G01X17726Y18883D01*
G01X17709Y18864D01*
G01X17691Y18844D01*
G01X17674Y18825D01*
G01X17657Y18804D01*
G01X17640Y18784D01*
G01X17624Y18763D01*
G01X17608Y18741D01*
G01X17592Y18720D01*
G01X17577Y18698D01*
G01X17547Y18653D01*
G01X17532Y18631D01*
G01X17518Y18608D01*
G01X17504Y18586D01*
G01X17478Y18540D01*
G01X17465Y18516D01*
G01X17441Y18470D01*
G01X17429Y18446D01*
G01X17418Y18423D01*
G01X17408Y18400D01*
G01X17397Y18377D01*
G01X17388Y18353D01*
G01X17378Y18330D01*
G01X17370Y18307D01*
G01X17361Y18284D01*
G01X17354Y18261D01*
G01X17347Y18239D01*
G01X17340Y18216D01*
G01X17328Y18172D01*
G01X17318Y18128D01*
G01X17314Y18107D01*
G01X17308Y18065D01*
G01X17304Y18025D01*
G01X17303Y18005D01*
G01X17303Y17877D01*
G01X17744Y17850D01*
G01X17837Y17844D01*
G01X17897Y17840D01*
G01X17955Y17834D01*
G01X17983Y17832D01*
G01X18067Y17823D01*
G01X18093Y17820D01*
G01X18120Y17817D01*
G01X18172Y17811D01*
G01X18198Y17807D01*
G01X18223Y17803D01*
G01X18248Y17800D01*
G01X18298Y17792D01*
G01X18322Y17788D01*
G01X18346Y17783D01*
G01X18370Y17779D01*
G01X18393Y17774D01*
G01X18417Y17769D01*
G01X18439Y17765D01*
G01X18485Y17755D01*
G01X18507Y17749D01*
G01X18530Y17744D01*
G01X18574Y17732D01*
G01X18596Y17727D01*
G01X18618Y17720D01*
G01X18660Y17708D01*
G01X18682Y17701D01*
G01X18703Y17694D01*
G01X18746Y17680D01*
G01X18788Y17665D01*
G01X18809Y17658D01*
G01X18872Y17634D01*
G01X18893Y17625D01*
G01X18913Y17617D01*
G01X18976Y17590D01*
G01X19019Y17571D01*
G01X19061Y17551D01*
G01X19082Y17540D01*
G01X19106Y17529D01*
G01X19130Y17517D01*
G01X19154Y17504D01*
G01X19223Y17465D01*
G01X19247Y17451D01*
G01X19269Y17437D01*
G01X19292Y17423D01*
G01X19314Y17408D01*
G01X19336Y17394D01*
G01X19359Y17378D01*
G01X19380Y17363D01*
G01X19402Y17348D01*
G01X19444Y17316D01*
G01X19464Y17300D01*
G01X19485Y17283D01*
G01X19505Y17267D01*
G01X19543Y17233D01*
G01X19563Y17216D01*
G01X19617Y17165D01*
G01X19652Y17130D01*
G01X19684Y17094D01*
G01X19700Y17077D01*
G01X19730Y17041D01*
G01X19744Y17023D01*
G01X19757Y17006D01*
G01X19771Y16988D01*
G01X19795Y16952D01*
G01X19806Y16934D01*
G01X19818Y16917D01*
G01X19828Y16899D01*
G01X19837Y16885D01*
G01X19846Y16873D01*
G01X19855Y16863D01*
G01X19865Y16857D01*
G01X19875Y16852D01*
G01X19886Y16850D01*
G01X19897Y16851D01*
G01X19908Y16855D01*
G01X19920Y16861D01*
G01X19932Y16870D01*
G01X19946Y16881D01*
G01X19960Y16896D01*
G01X19975Y16913D01*
G01X19990Y16934D01*
G01X20006Y16957D01*
G01X20023Y16984D01*
G01X20042Y17013D01*
G01X20061Y17045D01*
G01X20081Y17081D01*
G01X20102Y17119D01*
G01X20114Y17141D01*
G01X20125Y17162D01*
G01X20135Y17184D01*
G01X20146Y17205D01*
G01X20155Y17227D01*
G01X20165Y17249D01*
G01X20174Y17271D01*
G01X20182Y17294D01*
G01X20191Y17316D01*
G01X20198Y17338D01*
G01X20206Y17361D01*
G01X20220Y17407D01*
G01X20238Y17476D01*
G01X20243Y17499D01*
G01X20248Y17523D01*
G01X20253Y17546D01*
G01X20257Y17569D01*
G01X20261Y17593D01*
G01X20264Y17616D01*
G01X20270Y17664D01*
G01X20272Y17687D01*
G01X20276Y17735D01*
G01X20277Y17759D01*
G01X20278Y17782D01*
G01X20278Y17878D01*
G01X20277Y17902D01*
G01X20275Y17926D01*
G01X20274Y17949D01*
G01X20272Y17973D01*
G01X20269Y17997D01*
G01X20267Y18020D01*
G01X20264Y18044D01*
G01X20260Y18068D01*
G01X20256Y18091D01*
G01X20252Y18115D01*
G01X20248Y18138D01*
G01X20243Y18161D01*
G01X20238Y18185D01*
G01X20220Y18254D01*
G01X20199Y18323D01*
G01X20192Y18345D01*
G01X20184Y18368D01*
G01X20175Y18390D01*
G01X20167Y18413D01*
G01X20157Y18435D01*
G01X20148Y18457D01*
G01X20139Y18478D01*
G01X20128Y18500D01*
G01X20118Y18522D01*
G01X20085Y18585D01*
G01X20049Y18648D01*
G01X20010Y18708D01*
G01X19996Y18727D01*
G01X19982Y18747D01*
G01X19968Y18766D01*
G01X19938Y18804D01*
G01X19922Y18823D01*
G01X19907Y18841D01*
G01X19875Y18877D01*
G01X19830Y18922D01*
G01X19798Y18950D01*
G01X19781Y18964D01*
G01X19763Y18978D01*
G01X19745Y18993D01*
G01X19726Y19007D01*
G01X19666Y19049D01*
G01X19645Y19063D01*
G01X19623Y19077D01*
G01X19602Y19090D01*
G01X19579Y19104D01*
G01X19557Y19117D01*
G01X19534Y19130D01*
G01X19511Y19142D01*
G01X19488Y19155D01*
G01X19442Y19179D01*
G01X19418Y19191D01*
G01X19372Y19213D01*
G01X19326Y19233D01*
G01X19303Y19242D01*
G01X19280Y19252D01*
G01X19214Y19276D01*
G01X19193Y19282D01*
G01X19172Y19289D01*
G01X19152Y19294D01*
G01X19131Y19299D01*
G01X19112Y19304D01*
G01X19090Y19308D01*
G01X19067Y19312D01*
G01X19045Y19316D01*
G01X18976Y19325D01*
G01X18952Y19327D01*
G01X18929Y19328D01*
G01X18905Y19330D01*
G01X18881Y19330D01*
G01X18858Y19331D01*
G37*

%LPD*%
G36*
G01X20257Y17163D02*
G01X20254Y17164D01*
G01X20246Y17160D01*
G01X20233Y17147D01*
G01X20217Y17126D01*
G01X20200Y17101D01*
G01X20180Y17071D01*
G01X20161Y17039D01*
G01X20143Y17007D01*
G01X20126Y16977D01*
G01X20112Y16949D01*
G01X20102Y16927D01*
G01X20098Y16910D01*
G01X20099Y16903D01*
G01X20106Y16898D01*
G01X20115Y16893D01*
G01X20141Y16880D01*
G01X20158Y16872D01*
G01X20177Y16863D01*
G01X20198Y16853D01*
G01X20220Y16843D01*
G01X20245Y16832D01*
G01X20271Y16821D01*
G01X20298Y16809D01*
G01X20327Y16797D01*
G01X20357Y16784D01*
G01X20419Y16758D01*
G01X20451Y16744D01*
G01X20484Y16731D01*
G01X20551Y16704D01*
G01X20584Y16690D01*
G01X20651Y16663D01*
G01X20715Y16637D01*
G01X20747Y16625D01*
G01X20778Y16613D01*
G01X20807Y16601D01*
G01X20836Y16590D01*
G01X20864Y16580D01*
G01X20889Y16569D01*
G01X20914Y16561D01*
G01X20936Y16552D01*
G01X20957Y16545D01*
G01X20976Y16538D01*
G01X20993Y16532D01*
G01X21007Y16528D01*
G01X21019Y16524D01*
G01X21028Y16522D01*
G01X21035Y16521D01*
G01X21038Y16521D01*
G01X21040Y16523D01*
G01X21039Y16527D01*
G01X21035Y16533D01*
G01X21029Y16540D01*
G01X21021Y16550D01*
G01X20982Y16589D01*
G01X20965Y16605D01*
G01X20947Y16621D01*
G01X20926Y16640D01*
G01X20904Y16659D01*
G01X20880Y16680D01*
G01X20854Y16702D01*
G01X20827Y16724D01*
G01X20799Y16747D01*
G01X20769Y16771D01*
G01X20739Y16796D01*
G01X20707Y16821D01*
G01X20675Y16847D01*
G01X20642Y16873D01*
G01X20610Y16898D01*
G01X20578Y16922D01*
G01X20547Y16946D01*
G01X20518Y16969D01*
G01X20489Y16991D01*
G01X20461Y17013D01*
G01X20435Y17033D01*
G01X20410Y17052D01*
G01X20386Y17069D01*
G01X20364Y17086D01*
G01X20343Y17102D01*
G01X20325Y17115D01*
G01X20308Y17128D01*
G01X20293Y17138D01*
G01X20281Y17147D01*
G01X20271Y17154D01*
G01X20263Y17159D01*
G01X20257Y17163D01*
G37*

%LPD*%
G36*
G01X20054Y16838D02*
G01X20050Y16840D01*
G01X20032Y16836D01*
G01X20012Y16824D01*
G01X19992Y16807D01*
G01X19972Y16786D01*
G01X19954Y16762D01*
G01X19939Y16738D01*
G01X19930Y16714D01*
G01X19926Y16693D01*
G01X19927Y16687D01*
G01X19932Y16680D01*
G01X19939Y16670D01*
G01X19949Y16659D01*
G01X19961Y16647D01*
G01X19976Y16634D01*
G01X19992Y16619D01*
G01X20010Y16603D01*
G01X20030Y16586D01*
G01X20051Y16569D01*
G01X20073Y16552D01*
G01X20097Y16533D01*
G01X20121Y16515D01*
G01X20146Y16496D01*
G01X20172Y16477D01*
G01X20223Y16440D01*
G01X20275Y16404D01*
G01X20300Y16387D01*
G01X20324Y16371D01*
G01X20347Y16356D01*
G01X20369Y16342D01*
G01X20391Y16329D01*
G01X20410Y16317D01*
G01X20428Y16307D01*
G01X20445Y16299D01*
G01X20459Y16292D01*
G01X20471Y16287D01*
G01X20481Y16284D01*
G01X20488Y16284D01*
G01X20492Y16285D01*
G01X20493Y16289D01*
G01X20491Y16294D01*
G01X20488Y16303D01*
G01X20482Y16314D01*
G01X20474Y16327D01*
G01X20465Y16342D01*
G01X20454Y16359D01*
G01X20441Y16377D01*
G01X20427Y16398D01*
G01X20411Y16419D01*
G01X20394Y16442D01*
G01X20376Y16466D01*
G01X20357Y16492D01*
G01X20315Y16544D01*
G01X20293Y16572D01*
G01X20249Y16626D01*
G01X20227Y16651D01*
G01X20206Y16676D01*
G01X20186Y16699D01*
G01X20167Y16721D01*
G01X20149Y16742D01*
G01X20132Y16761D01*
G01X20116Y16778D01*
G01X20102Y16794D01*
G01X20077Y16819D01*
G01X20067Y16828D01*
G01X20060Y16834D01*
G01X20054Y16838D01*
G37*

%LPD*%
G36*
G01X17737Y17730D02*
G01X17447Y17730D01*
G01X17412Y17729D01*
G01X17377Y17729D01*
G01X17343Y17728D01*
G01X17307Y17728D01*
G01X17238Y17727D01*
G01X17168Y17725D01*
G01X17134Y17725D01*
G01X17032Y17722D01*
G01X16936Y17719D01*
G01X16905Y17717D01*
G01X16875Y17717D01*
G01X16846Y17715D01*
G01X16790Y17713D01*
G01X16764Y17711D01*
G01X16739Y17710D01*
G01X16715Y17709D01*
G01X16692Y17707D01*
G01X16671Y17706D01*
G01X16650Y17704D01*
G01X16632Y17703D01*
G01X16614Y17701D01*
G01X16599Y17700D01*
G01X16585Y17698D01*
G01X16573Y17696D01*
G01X16562Y17695D01*
G01X16553Y17693D01*
G01X16547Y17691D01*
G01X16542Y17690D01*
G01X16539Y17688D01*
G01X16536Y17684D01*
G01X16534Y17679D01*
G01X16533Y17673D01*
G01X16533Y17659D01*
G01X16534Y17650D01*
G01X16536Y17639D01*
G01X16539Y17628D01*
G01X16542Y17616D01*
G01X16552Y17588D01*
G01X16557Y17572D01*
G01X16564Y17555D01*
G01X16572Y17538D01*
G01X16580Y17519D01*
G01X16589Y17498D01*
G01X16599Y17478D01*
G01X16610Y17455D01*
G01X16622Y17432D01*
G01X16634Y17407D01*
G01X16647Y17382D01*
G01X16661Y17355D01*
G01X16676Y17327D01*
G01X16692Y17298D01*
G01X16708Y17268D01*
G01X16725Y17236D01*
G01X16743Y17204D01*
G01X16763Y17170D01*
G01X16782Y17136D01*
G01X16803Y17100D01*
G01X16825Y17063D01*
G01X16847Y17024D01*
G01X16858Y17005D01*
G01X16884Y16963D01*
G01X16898Y16941D01*
G01X16912Y16918D01*
G01X16927Y16894D01*
G01X16943Y16870D01*
G01X16960Y16846D01*
G01X16976Y16821D01*
G01X16994Y16795D01*
G01X17011Y16769D01*
G01X17029Y16743D01*
G01X17047Y16716D01*
G01X17066Y16690D01*
G01X17104Y16636D01*
G01X17142Y16583D01*
G01X17161Y16557D01*
G01X17180Y16530D01*
G01X17199Y16505D01*
G01X17218Y16479D01*
G01X17236Y16454D01*
G01X17255Y16430D01*
G01X17273Y16405D01*
G01X17291Y16382D01*
G01X17308Y16359D01*
G01X17325Y16338D01*
G01X17342Y16316D01*
G01X17358Y16296D01*
G01X17373Y16277D01*
G01X17388Y16259D01*
G01X17402Y16242D01*
G01X17415Y16226D01*
G01X17428Y16211D01*
G01X17440Y16197D01*
G01X17451Y16185D01*
G01X17461Y16174D01*
G01X17478Y16157D01*
G01X17485Y16151D01*
G01X17491Y16146D01*
G01X17496Y16144D01*
G01X17500Y16142D01*
G01X17505Y16141D01*
G01X17513Y16137D01*
G01X17524Y16130D01*
G01X17537Y16121D01*
G01X17552Y16109D01*
G01X17569Y16096D01*
G01X17587Y16080D01*
G01X17607Y16063D01*
G01X17627Y16045D01*
G01X17649Y16026D01*
G01X17672Y16005D01*
G01X17694Y15984D01*
G01X17726Y15954D01*
G01X17743Y15940D01*
G01X17760Y15925D01*
G01X17777Y15911D01*
G01X17796Y15896D01*
G01X17814Y15882D01*
G01X17832Y15869D01*
G01X17852Y15855D01*
G01X17891Y15828D01*
G01X17931Y15802D01*
G01X17973Y15776D01*
G01X17994Y15764D01*
G01X18016Y15751D01*
G01X18038Y15740D01*
G01X18082Y15716D01*
G01X18104Y15705D01*
G01X18127Y15693D01*
G01X18172Y15672D01*
G01X18219Y15651D01*
G01X18265Y15631D01*
G01X18313Y15613D01*
G01X18336Y15604D01*
G01X18360Y15595D01*
G01X18432Y15571D01*
G01X18480Y15557D01*
G01X18503Y15550D01*
G01X18527Y15543D01*
G01X18575Y15531D01*
G01X18598Y15526D01*
G01X18622Y15521D01*
G01X18668Y15511D01*
G01X18714Y15503D01*
G01X18760Y15497D01*
G01X18782Y15495D01*
G01X18805Y15492D01*
G01X18827Y15490D01*
G01X18849Y15489D01*
G01X18870Y15488D01*
G01X18892Y15488D01*
G01X18913Y15487D01*
G01X18935Y15488D01*
G01X18958Y15489D01*
G01X18983Y15490D01*
G01X19009Y15492D01*
G01X19036Y15495D01*
G01X19064Y15498D01*
G01X19093Y15502D01*
G01X19122Y15507D01*
G01X19151Y15511D01*
G01X19180Y15516D01*
G01X19264Y15534D01*
G01X19291Y15540D01*
G01X19316Y15546D01*
G01X19340Y15553D01*
G01X19360Y15559D01*
G01X19400Y15569D01*
G01X19420Y15573D01*
G01X19441Y15578D01*
G01X19462Y15582D01*
G01X19483Y15585D01*
G01X19505Y15588D01*
G01X19527Y15592D01*
G01X19549Y15594D01*
G01X19571Y15597D01*
G01X19594Y15599D01*
G01X19618Y15601D01*
G01X19666Y15603D01*
G01X19691Y15604D01*
G01X19717Y15605D01*
G01X19823Y15605D01*
G01X19910Y15602D01*
G01X19949Y15600D01*
G01X19986Y15598D01*
G01X20021Y15598D01*
G01X20053Y15597D01*
G01X20111Y15597D01*
G01X20137Y15598D01*
G01X20160Y15599D01*
G01X20181Y15601D01*
G01X20199Y15603D01*
G01X20215Y15605D01*
G01X20228Y15607D01*
G01X20239Y15611D01*
G01X20247Y15614D01*
G01X20253Y15617D01*
G01X20256Y15621D01*
G01X20257Y15626D01*
G01X20254Y15630D01*
G01X20249Y15635D01*
G01X20242Y15640D01*
G01X20231Y15646D01*
G01X20218Y15652D01*
G01X20201Y15658D01*
G01X20153Y15674D01*
G01X20143Y15678D01*
G01X20119Y15686D01*
G01X20091Y15696D01*
G01X20075Y15702D01*
G01X20041Y15714D01*
G01X20003Y15728D01*
G01X19982Y15736D01*
G01X19961Y15743D01*
G01X19917Y15759D01*
G01X19845Y15786D01*
G01X19819Y15795D01*
G01X19793Y15805D01*
G01X19767Y15814D01*
G01X19740Y15824D01*
G01X19684Y15844D01*
G01X19656Y15855D01*
G01X19627Y15866D01*
G01X19598Y15876D01*
G01X19508Y15909D01*
G01X19478Y15921D01*
G01X19447Y15932D01*
G01X19385Y15955D01*
G01X19354Y15967D01*
G01X19323Y15978D01*
G01X19230Y16013D01*
G01X19199Y16025D01*
G01X19168Y16036D01*
G01X19137Y16048D01*
G01X19106Y16059D01*
G01X19075Y16071D01*
G01X19045Y16082D01*
G01X19010Y16095D01*
G01X18978Y16108D01*
G01X18947Y16120D01*
G01X18917Y16132D01*
G01X18889Y16144D01*
G01X18863Y16155D01*
G01X18838Y16166D01*
G01X18816Y16176D01*
G01X18795Y16186D01*
G01X18776Y16196D01*
G01X18759Y16205D01*
G01X18744Y16213D01*
G01X18731Y16221D01*
G01X18720Y16229D01*
G01X18711Y16236D01*
G01X18704Y16242D01*
G01X18699Y16247D01*
G01X18697Y16252D01*
G01X18696Y16256D01*
G01X18698Y16260D01*
G01X18702Y16262D01*
G01X18709Y16264D01*
G01X18718Y16265D01*
G01X18729Y16266D01*
G01X18749Y16267D01*
G01X18763Y16271D01*
G01X18773Y16276D01*
G01X18777Y16284D01*
G01X18778Y16293D01*
G01X18774Y16303D01*
G01X18765Y16315D01*
G01X18753Y16327D01*
G01X18737Y16340D01*
G01X18717Y16352D01*
G01X18693Y16365D01*
G01X18666Y16377D01*
G01X18653Y16383D01*
G01X18639Y16389D01*
G01X18605Y16406D01*
G01X18586Y16415D01*
G01X18565Y16426D01*
G01X18543Y16438D01*
G01X18519Y16450D01*
G01X18495Y16463D01*
G01X18470Y16476D01*
G01X18444Y16490D01*
G01X18417Y16505D01*
G01X18390Y16519D01*
G01X18362Y16535D01*
G01X18335Y16550D01*
G01X18306Y16566D01*
G01X18250Y16598D01*
G01X18222Y16613D01*
G01X18195Y16629D01*
G01X18168Y16644D01*
G01X18142Y16660D01*
G01X18116Y16675D01*
G01X18091Y16690D01*
G01X18068Y16703D01*
G01X18045Y16717D01*
G01X18023Y16730D01*
G01X18003Y16743D01*
G01X17985Y16754D01*
G01X17968Y16765D01*
G01X17953Y16775D01*
G01X17939Y16784D01*
G01X17915Y16801D01*
G01X17898Y16814D01*
G01X17887Y16824D01*
G01X17883Y16831D01*
G01X17886Y16836D01*
G01X17894Y16838D01*
G01X17910Y16840D01*
G01X17946Y16840D01*
G01X17959Y16842D01*
G01X17968Y16844D01*
G01X17976Y16847D01*
G01X17981Y16852D01*
G01X17983Y16857D01*
G01X17983Y16864D01*
G01X17980Y16872D01*
G01X17974Y16881D01*
G01X17966Y16891D01*
G01X17955Y16903D01*
G01X17942Y16915D01*
G01X17925Y16930D01*
G01X17906Y16945D01*
G01X17884Y16962D01*
G01X17859Y16980D01*
G01X17831Y17000D01*
G01X17800Y17022D01*
G01X17767Y17045D01*
G01X17730Y17069D01*
G01X17700Y17090D01*
G01X17671Y17109D01*
G01X17644Y17129D01*
G01X17619Y17147D01*
G01X17596Y17164D01*
G01X17576Y17180D01*
G01X17558Y17194D01*
G01X17544Y17207D01*
G01X17532Y17217D01*
G01X17525Y17226D01*
G01X17521Y17232D01*
G01X17521Y17236D01*
G01X17525Y17237D01*
G01X17532Y17238D01*
G01X17541Y17237D01*
G01X17553Y17235D01*
G01X17567Y17232D01*
G01X17583Y17228D01*
G01X17602Y17223D01*
G01X17622Y17217D01*
G01X17644Y17209D01*
G01X17668Y17201D01*
G01X17693Y17192D01*
G01X17720Y17183D01*
G01X17748Y17173D01*
G01X17777Y17162D01*
G01X17807Y17151D01*
G01X17838Y17139D01*
G01X17902Y17113D01*
G01X17968Y17087D01*
G01X18001Y17073D01*
G01X18035Y17059D01*
G01X18101Y17031D01*
G01X18197Y16989D01*
G01X18228Y16975D01*
G01X18258Y16961D01*
G01X18314Y16935D01*
G01X18341Y16923D01*
G01X18366Y16911D01*
G01X18389Y16899D01*
G01X18411Y16888D01*
G01X18431Y16877D01*
G01X18448Y16867D01*
G01X18464Y16858D01*
G01X18478Y16850D01*
G01X18489Y16842D01*
G01X18498Y16836D01*
G01X18504Y16830D01*
G01X18507Y16825D01*
G01X18507Y16817D01*
G01X18510Y16811D01*
G01X18515Y16804D01*
G01X18533Y16786D01*
G01X18546Y16776D01*
G01X18561Y16764D01*
G01X18578Y16752D01*
G01X18597Y16738D01*
G01X18618Y16724D01*
G01X18641Y16709D01*
G01X18666Y16694D01*
G01X18693Y16678D01*
G01X18721Y16661D01*
G01X18751Y16644D01*
G01X18782Y16626D01*
G01X18814Y16608D01*
G01X18848Y16590D01*
G01X18883Y16571D01*
G01X18919Y16552D01*
G01X18961Y16531D01*
G01X19000Y16510D01*
G01X19037Y16490D01*
G01X19072Y16471D01*
G01X19104Y16453D01*
G01X19134Y16436D01*
G01X19161Y16420D01*
G01X19186Y16405D01*
G01X19209Y16390D01*
G01X19229Y16377D01*
G01X19247Y16365D01*
G01X19262Y16353D01*
G01X19275Y16342D01*
G01X19286Y16333D01*
G01X19294Y16324D01*
G01X19300Y16317D01*
G01X19303Y16310D01*
G01X19304Y16304D01*
G01X19303Y16299D01*
G01X19299Y16295D01*
G01X19277Y16277D01*
G01X19270Y16263D01*
G01X19278Y16251D01*
G01X19300Y16239D01*
G01X19313Y16234D01*
G01X19330Y16225D01*
G01X19351Y16213D01*
G01X19375Y16199D01*
G01X19401Y16183D01*
G01X19429Y16166D01*
G01X19457Y16148D01*
G01X19486Y16130D01*
G01X19506Y16117D01*
G01X19527Y16103D01*
G01X19549Y16089D01*
G01X19573Y16075D01*
G01X19645Y16030D01*
G01X19669Y16016D01*
G01X19692Y16002D01*
G01X19714Y15989D01*
G01X19735Y15977D01*
G01X19754Y15967D01*
G01X19774Y15955D01*
G01X19793Y15944D01*
G01X19809Y15935D01*
G01X19823Y15927D01*
G01X19836Y15921D01*
G01X19847Y15917D01*
G01X19856Y15915D01*
G01X19864Y15915D01*
G01X19871Y15917D01*
G01X19876Y15923D01*
G01X19881Y15931D01*
G01X19885Y15942D01*
G01X19888Y15956D01*
G01X19890Y15974D01*
G01X19892Y15996D01*
G01X19894Y16021D01*
G01X19896Y16050D01*
G01X19897Y16084D01*
G01X19899Y16121D01*
G01X19902Y16163D01*
G01X19902Y16179D01*
G01X19901Y16197D01*
G01X19900Y16216D01*
G01X19898Y16237D01*
G01X19895Y16259D01*
G01X19892Y16282D01*
G01X19882Y16332D01*
G01X19877Y16359D01*
G01X19865Y16413D01*
G01X19858Y16441D01*
G01X19850Y16469D01*
G01X19843Y16498D01*
G01X19834Y16526D01*
G01X19826Y16554D01*
G01X19808Y16610D01*
G01X19798Y16638D01*
G01X19780Y16690D01*
G01X19770Y16715D01*
G01X19760Y16739D01*
G01X19750Y16762D01*
G01X19740Y16784D01*
G01X19731Y16804D01*
G01X19721Y16823D01*
G01X19701Y16857D01*
G01X19690Y16874D01*
G01X19680Y16890D01*
G01X19669Y16907D01*
G01X19657Y16923D01*
G01X19646Y16940D01*
G01X19635Y16956D01*
G01X19623Y16971D01*
G01X19599Y17003D01*
G01X19573Y17033D01*
G01X19561Y17048D01*
G01X19547Y17063D01*
G01X19534Y17077D01*
G01X19521Y17092D01*
G01X19506Y17106D01*
G01X19493Y17120D01*
G01X19478Y17134D01*
G01X19464Y17148D01*
G01X19449Y17161D01*
G01X19418Y17188D01*
G01X19387Y17214D01*
G01X19371Y17227D01*
G01X19354Y17240D01*
G01X19338Y17252D01*
G01X19321Y17264D01*
G01X19303Y17277D01*
G01X19286Y17288D01*
G01X19268Y17300D01*
G01X19232Y17323D01*
G01X19213Y17335D01*
G01X19156Y17368D01*
G01X19136Y17379D01*
G01X19115Y17390D01*
G01X19095Y17400D01*
G01X19075Y17411D01*
G01X19053Y17421D01*
G01X19032Y17431D01*
G01X19010Y17441D01*
G01X18989Y17451D01*
G01X18967Y17461D01*
G01X18944Y17470D01*
G01X18921Y17480D01*
G01X18898Y17489D01*
G01X18874Y17498D01*
G01X18851Y17507D01*
G01X18826Y17516D01*
G01X18802Y17525D01*
G01X18752Y17542D01*
G01X18726Y17551D01*
G01X18701Y17559D01*
G01X18674Y17568D01*
G01X18648Y17576D01*
G01X18594Y17592D01*
G01X18566Y17600D01*
G01X18538Y17607D01*
G01X18510Y17615D01*
G01X18481Y17622D01*
G01X18452Y17630D01*
G01X18423Y17637D01*
G01X18363Y17651D01*
G01X18332Y17658D01*
G01X18302Y17665D01*
G01X18270Y17671D01*
G01X18239Y17678D01*
G01X18207Y17685D01*
G01X18174Y17691D01*
G01X18142Y17698D01*
G01X18108Y17704D01*
G01X18075Y17710D01*
G01X18041Y17716D01*
G01X18031Y17717D01*
G01X18020Y17719D01*
G01X17992Y17721D01*
G01X17975Y17723D01*
G01X17957Y17724D01*
G01X17938Y17725D01*
G01X17917Y17726D01*
G01X17895Y17726D01*
G01X17847Y17728D01*
G01X17821Y17728D01*
G01X17794Y17729D01*
G01X17766Y17729D01*
G01X17737Y17730D01*
G37*

%LPD*%
G36*
G01X15174Y14865D02*
G01X15112Y14865D01*
G01X15087Y14864D01*
G01X15067Y14861D01*
G01X15049Y14858D01*
G01X15036Y14853D01*
G01X15025Y14847D01*
G01X15017Y14840D01*
G01X15012Y14830D01*
G01X15009Y14820D01*
G01X15008Y14808D01*
G01X15013Y14781D01*
G01X15027Y14765D01*
G01X15052Y14762D01*
G01X15088Y14769D01*
G01X15111Y14776D01*
G01X15132Y14780D01*
G01X15153Y14782D01*
G01X15173Y14782D01*
G01X15192Y14780D01*
G01X15209Y14776D01*
G01X15226Y14769D01*
G01X15242Y14761D01*
G01X15256Y14751D01*
G01X15269Y14740D01*
G01X15282Y14726D01*
G01X15293Y14710D01*
G01X15303Y14693D01*
G01X15311Y14674D01*
G01X15319Y14653D01*
G01X15325Y14630D01*
G01X15330Y14606D01*
G01X15333Y14580D01*
G01X15335Y14552D01*
G01X15336Y14523D01*
G01X15336Y14486D01*
G01X15339Y14452D01*
G01X15342Y14421D01*
G01X15347Y14394D01*
G01X15352Y14371D01*
G01X15359Y14354D01*
G01X15365Y14344D01*
G01X15373Y14340D01*
G01X15378Y14343D01*
G01X15384Y14351D01*
G01X15389Y14365D01*
G01X15394Y14383D01*
G01X15399Y14405D01*
G01X15405Y14430D01*
G01X15410Y14458D01*
G01X15414Y14488D01*
G01X15418Y14520D01*
G01X15422Y14553D01*
G01X15426Y14587D01*
G01X15429Y14621D01*
G01X15431Y14654D01*
G01X15433Y14686D01*
G01X15435Y14716D01*
G01X15435Y14769D01*
G01X15433Y14792D01*
G01X15431Y14809D01*
G01X15427Y14823D01*
G01X15421Y14830D01*
G01X15407Y14836D01*
G01X15386Y14842D01*
G01X15360Y14848D01*
G01X15328Y14853D01*
G01X15293Y14858D01*
G01X15254Y14861D01*
G01X15213Y14864D01*
G01X15174Y14865D01*
G37*

%LPD*%
G36*
G01X15819Y14876D02*
G01X15797Y14877D01*
G01X15775Y14876D01*
G01X15752Y14874D01*
G01X15731Y14871D01*
G01X15709Y14867D01*
G01X15688Y14861D01*
G01X15668Y14854D01*
G01X15649Y14846D01*
G01X15613Y14826D01*
G01X15597Y14814D01*
G01X15582Y14801D01*
G01X15569Y14786D01*
G01X15558Y14770D01*
G01X15543Y14747D01*
G01X15531Y14725D01*
G01X15521Y14704D01*
G01X15514Y14685D01*
G01X15509Y14667D01*
G01X15506Y14651D01*
G01X15507Y14635D01*
G01X15509Y14621D01*
G01X15515Y14609D01*
G01X15522Y14597D01*
G01X15533Y14587D01*
G01X15546Y14578D01*
G01X15562Y14570D01*
G01X15580Y14563D01*
G01X15601Y14557D01*
G01X15625Y14553D01*
G01X15652Y14549D01*
G01X15681Y14547D01*
G01X15713Y14545D01*
G01X15748Y14545D01*
G01X15800Y14544D01*
G01X15843Y14542D01*
G01X15878Y14538D01*
G01X15905Y14533D01*
G01X15924Y14526D01*
G01X15936Y14517D01*
G01X15941Y14506D01*
G01X15939Y14494D01*
G01X15932Y14482D01*
G01X15920Y14473D01*
G01X15902Y14465D01*
G01X15880Y14458D01*
G01X15853Y14453D01*
G01X15822Y14450D01*
G01X15787Y14449D01*
G01X15749Y14450D01*
G01X15721Y14451D01*
G01X15696Y14451D01*
G01X15673Y14449D01*
G01X15653Y14446D01*
G01X15636Y14443D01*
G01X15622Y14438D01*
G01X15610Y14433D01*
G01X15601Y14427D01*
G01X15595Y14421D01*
G01X15592Y14413D01*
G01X15592Y14405D01*
G01X15594Y14397D01*
G01X15600Y14388D01*
G01X15608Y14380D01*
G01X15619Y14370D01*
G01X15633Y14361D01*
G01X15650Y14351D01*
G01X15670Y14341D01*
G01X15693Y14331D01*
G01X15718Y14321D01*
G01X15739Y14315D01*
G01X15758Y14311D01*
G01X15778Y14309D01*
G01X15798Y14309D01*
G01X15817Y14310D01*
G01X15836Y14313D01*
G01X15854Y14318D01*
G01X15890Y14332D01*
G01X15907Y14341D01*
G01X15924Y14352D01*
G01X15940Y14363D01*
G01X15955Y14376D01*
G01X15969Y14390D01*
G01X15983Y14405D01*
G01X15996Y14420D01*
G01X16008Y14436D01*
G01X16019Y14453D01*
G01X16030Y14471D01*
G01X16039Y14490D01*
G01X16047Y14508D01*
G01X16054Y14528D01*
G01X16060Y14547D01*
G01X16065Y14567D01*
G01X16068Y14587D01*
G01X16070Y14607D01*
G01X16071Y14627D01*
G01X16070Y14647D01*
G01X16068Y14667D01*
G01X16060Y14705D01*
G01X16053Y14725D01*
G01X16044Y14743D01*
G01X16034Y14761D01*
G01X16022Y14778D01*
G01X16009Y14794D01*
G01X15994Y14809D01*
G01X15978Y14821D01*
G01X15961Y14833D01*
G01X15943Y14843D01*
G01X15924Y14852D01*
G01X15884Y14866D01*
G01X15863Y14871D01*
G01X15841Y14874D01*
G01X15819Y14876D01*
G37*

%LPC*%
G36*
G01X15814Y14787D02*
G01X15787Y14790D01*
G01X15757Y14787D01*
G01X15726Y14776D01*
G01X15696Y14761D01*
G01X15672Y14741D01*
G01X15654Y14723D01*
G01X15641Y14707D01*
G01X15632Y14692D01*
G01X15628Y14680D01*
G01X15629Y14670D01*
G01X15635Y14661D01*
G01X15646Y14654D01*
G01X15662Y14648D01*
G01X15684Y14643D01*
G01X15712Y14639D01*
G01X15746Y14636D01*
G01X15787Y14633D01*
G01X15819Y14632D01*
G01X15850Y14632D01*
G01X15878Y14634D01*
G01X15902Y14636D01*
G01X15922Y14640D01*
G01X15938Y14645D01*
G01X15947Y14651D01*
G01X15951Y14658D01*
G01X15947Y14680D01*
G01X15935Y14703D01*
G01X15917Y14725D01*
G01X15895Y14746D01*
G01X15869Y14763D01*
G01X15842Y14778D01*
G01X15814Y14787D01*
G37*

%LPD*%
G36*
G01X19247Y14882D02*
G01X19223Y14882D01*
G01X19199Y14880D01*
G01X19175Y14876D01*
G01X19151Y14869D01*
G01X19128Y14861D01*
G01X19105Y14851D01*
G01X19083Y14840D01*
G01X19062Y14827D01*
G01X19042Y14813D01*
G01X19024Y14797D01*
G01X19007Y14780D01*
G01X18993Y14763D01*
G01X18980Y14744D01*
G01X18969Y14725D01*
G01X18962Y14705D01*
G01X18956Y14683D01*
G01X18952Y14663D01*
G01X18950Y14644D01*
G01X18951Y14628D01*
G01X18954Y14613D01*
G01X18960Y14600D01*
G01X18969Y14588D01*
G01X18981Y14578D01*
G01X18996Y14570D01*
G01X19014Y14563D01*
G01X19035Y14557D01*
G01X19060Y14552D01*
G01X19088Y14549D01*
G01X19119Y14546D01*
G01X19155Y14545D01*
G01X19194Y14545D01*
G01X19245Y14544D01*
G01X19287Y14542D01*
G01X19322Y14538D01*
G01X19348Y14533D01*
G01X19367Y14526D01*
G01X19379Y14517D01*
G01X19384Y14506D01*
G01X19382Y14494D01*
G01X19375Y14482D01*
G01X19363Y14472D01*
G01X19346Y14465D01*
G01X19323Y14459D01*
G01X19297Y14454D01*
G01X19265Y14452D01*
G01X19230Y14452D01*
G01X19190Y14454D01*
G01X19162Y14455D01*
G01X19136Y14455D01*
G01X19114Y14453D01*
G01X19093Y14451D01*
G01X19076Y14448D01*
G01X19062Y14443D01*
G01X19050Y14438D01*
G01X19041Y14432D01*
G01X19035Y14425D01*
G01X19031Y14417D01*
G01X19031Y14409D01*
G01X19034Y14400D01*
G01X19039Y14391D01*
G01X19047Y14382D01*
G01X19059Y14372D01*
G01X19073Y14362D01*
G01X19090Y14352D01*
G01X19110Y14342D01*
G01X19134Y14332D01*
G01X19160Y14322D01*
G01X19179Y14316D01*
G01X19198Y14311D01*
G01X19217Y14308D01*
G01X19253Y14306D01*
G01X19271Y14307D01*
G01X19289Y14310D01*
G01X19306Y14313D01*
G01X19338Y14323D01*
G01X19354Y14330D01*
G01X19369Y14338D01*
G01X19384Y14347D01*
G01X19412Y14367D01*
G01X19425Y14378D01*
G01X19437Y14391D01*
G01X19448Y14403D01*
G01X19460Y14417D01*
G01X19470Y14431D01*
G01X19488Y14461D01*
G01X19496Y14476D01*
G01X19503Y14492D01*
G01X19509Y14509D01*
G01X19514Y14526D01*
G01X19519Y14542D01*
G01X19522Y14559D01*
G01X19525Y14577D01*
G01X19527Y14594D01*
G01X19527Y14629D01*
G01X19525Y14646D01*
G01X19522Y14663D01*
G01X19518Y14680D01*
G01X19513Y14697D01*
G01X19507Y14714D01*
G01X19500Y14730D01*
G01X19491Y14746D01*
G01X19481Y14762D01*
G01X19470Y14777D01*
G01X19458Y14791D01*
G01X19444Y14805D01*
G01X19428Y14819D01*
G01X19415Y14828D01*
G01X19399Y14838D01*
G01X19380Y14847D01*
G01X19359Y14856D01*
G01X19337Y14864D01*
G01X19314Y14871D01*
G01X19292Y14876D01*
G01X19270Y14880D01*
G01X19247Y14882D01*
G37*

%LPC*%
G36*
G01X19277Y14782D02*
G01X19256Y14782D01*
G01X19235Y14779D01*
G01X19213Y14775D01*
G01X19190Y14768D01*
G01X19167Y14759D01*
G01X19145Y14748D01*
G01X19123Y14736D01*
G01X19106Y14725D01*
G01X19091Y14714D01*
G01X19081Y14704D01*
G01X19074Y14695D01*
G01X19070Y14686D01*
G01X19070Y14678D01*
G01X19074Y14671D01*
G01X19081Y14664D01*
G01X19091Y14658D01*
G01X19106Y14653D01*
G01X19123Y14648D01*
G01X19144Y14645D01*
G01X19169Y14642D01*
G01X19197Y14639D01*
G01X19229Y14638D01*
G01X19269Y14637D01*
G01X19303Y14638D01*
G01X19331Y14641D01*
G01X19354Y14646D01*
G01X19372Y14653D01*
G01X19384Y14662D01*
G01X19391Y14673D01*
G01X19393Y14687D01*
G01X19392Y14704D01*
G01X19388Y14719D01*
G01X19381Y14733D01*
G01X19371Y14746D01*
G01X19360Y14756D01*
G01X19347Y14765D01*
G01X19331Y14772D01*
G01X19314Y14777D01*
G01X19296Y14781D01*
G01X19277Y14782D01*
G37*

%LPD*%
G36*
G01X17347Y15119D02*
G01X17059Y15119D01*
G01X17018Y15118D01*
G01X16980Y15117D01*
G01X16944Y15115D01*
G01X16910Y15113D01*
G01X16880Y15110D01*
G01X16852Y15107D01*
G01X16829Y15103D01*
G01X16808Y15098D01*
G01X16792Y15094D01*
G01X16780Y15089D01*
G01X16773Y15083D01*
G01X16770Y15078D01*
G01X16775Y15069D01*
G01X16788Y15061D01*
G01X16809Y15055D01*
G01X16836Y15048D01*
G01X16870Y15044D01*
G01X16908Y15040D01*
G01X16950Y15037D01*
G01X16996Y15036D01*
G01X17090Y15036D01*
G01X17125Y15034D01*
G01X17153Y15032D01*
G01X17175Y15027D01*
G01X17192Y15021D01*
G01X17204Y15011D01*
G01X17212Y15000D01*
G01X17217Y14984D01*
G01X17220Y14965D01*
G01X17221Y14942D01*
G01X17221Y14886D01*
G01X17220Y14863D01*
G01X17217Y14844D01*
G01X17213Y14829D01*
G01X17206Y14817D01*
G01X17195Y14807D01*
G01X17181Y14801D01*
G01X17163Y14796D01*
G01X17139Y14793D01*
G01X17111Y14792D01*
G01X17076Y14791D01*
G01X17034Y14790D01*
G01X16994Y14790D01*
G01X16959Y14788D01*
G01X16929Y14784D01*
G01X16905Y14780D01*
G01X16887Y14773D01*
G01X16875Y14767D01*
G01X16871Y14759D01*
G01X16873Y14750D01*
G01X16881Y14741D01*
G01X16895Y14734D01*
G01X16914Y14727D01*
G01X16938Y14721D01*
G01X16965Y14716D01*
G01X16995Y14712D01*
G01X17027Y14709D01*
G01X17221Y14709D01*
G01X17221Y14502D01*
G01X17220Y14471D01*
G01X17219Y14445D01*
G01X17216Y14425D01*
G01X17211Y14409D01*
G01X17205Y14397D01*
G01X17197Y14390D01*
G01X17186Y14385D01*
G01X17172Y14384D01*
G01X17154Y14385D01*
G01X17133Y14388D01*
G01X17108Y14393D01*
G01X17082Y14397D01*
G01X17054Y14400D01*
G01X17026Y14402D01*
G01X16997Y14402D01*
G01X16969Y14401D01*
G01X16940Y14400D01*
G01X16913Y14396D01*
G01X16863Y14388D01*
G01X16841Y14382D01*
G01X16821Y14375D01*
G01X16804Y14368D01*
G01X16789Y14360D01*
G01X16779Y14351D01*
G01X16772Y14342D01*
G01X16770Y14333D01*
G01X16773Y14328D01*
G01X16780Y14323D01*
G01X16792Y14319D01*
G01X16808Y14315D01*
G01X16828Y14312D01*
G01X16852Y14310D01*
G01X16878Y14308D01*
G01X16907Y14306D01*
G01X16939Y14305D01*
G01X16973Y14305D01*
G01X17047Y14307D01*
G01X17323Y14319D01*
G01X17347Y15119D01*
G37*

%LPD*%
G36*
G01X20390Y15115D02*
G01X20344Y15115D01*
G01X20322Y15113D01*
G01X20300Y15110D01*
G01X20277Y15106D01*
G01X20256Y15101D01*
G01X20235Y15095D01*
G01X20214Y15088D01*
G01X20194Y15080D01*
G01X20176Y15071D01*
G01X20158Y15061D01*
G01X20141Y15050D01*
G01X20125Y15038D01*
G01X20106Y15021D01*
G01X20091Y15006D01*
G01X20080Y14994D01*
G01X20073Y14982D01*
G01X20070Y14973D01*
G01X20071Y14966D01*
G01X20075Y14961D01*
G01X20084Y14957D01*
G01X20096Y14956D01*
G01X20111Y14957D01*
G01X20131Y14959D01*
G01X20153Y14964D01*
G01X20179Y14971D01*
G01X20209Y14979D01*
G01X20242Y14990D01*
G01X20278Y15003D01*
G01X20305Y15011D01*
G01X20328Y15019D01*
G01X20350Y15024D01*
G01X20370Y15028D01*
G01X20388Y15029D01*
G01X20406Y15028D01*
G01X20423Y15026D01*
G01X20440Y15021D01*
G01X20457Y15015D01*
G01X20476Y15006D01*
G01X20495Y14995D01*
G01X20516Y14982D01*
G01X20535Y14968D01*
G01X20553Y14954D01*
G01X20569Y14939D01*
G01X20584Y14923D01*
G01X20597Y14906D01*
G01X20609Y14888D01*
G01X20620Y14870D01*
G01X20629Y14851D01*
G01X20637Y14832D01*
G01X20643Y14811D01*
G01X20648Y14790D01*
G01X20651Y14769D01*
G01X20653Y14748D01*
G01X20654Y14726D01*
G01X20653Y14703D01*
G01X20650Y14681D01*
G01X20646Y14658D01*
G01X20640Y14635D01*
G01X20633Y14612D01*
G01X20624Y14589D01*
G01X20614Y14567D01*
G01X20604Y14548D01*
G01X20592Y14530D01*
G01X20579Y14513D01*
G01X20564Y14498D01*
G01X20549Y14485D01*
G01X20532Y14473D01*
G01X20513Y14462D01*
G01X20493Y14453D01*
G01X20472Y14444D01*
G01X20448Y14438D01*
G01X20423Y14432D01*
G01X20397Y14428D01*
G01X20368Y14425D01*
G01X20338Y14423D01*
G01X20305Y14422D01*
G01X20280Y14423D01*
G01X20259Y14427D01*
G01X20243Y14434D01*
G01X20231Y14446D01*
G01X20222Y14462D01*
G01X20217Y14483D01*
G01X20214Y14511D01*
G01X20213Y14545D01*
G01X20214Y14577D01*
G01X20217Y14604D01*
G01X20222Y14626D01*
G01X20230Y14642D01*
G01X20241Y14654D01*
G01X20255Y14662D01*
G01X20273Y14666D01*
G01X20295Y14667D01*
G01X20327Y14671D01*
G01X20353Y14680D01*
G01X20370Y14694D01*
G01X20377Y14711D01*
G01X20374Y14720D01*
G01X20365Y14728D01*
G01X20352Y14734D01*
G01X20333Y14739D01*
G01X20311Y14742D01*
G01X20285Y14744D01*
G01X20255Y14744D01*
G01X20223Y14742D01*
G01X20190Y14739D01*
G01X20161Y14735D01*
G01X20138Y14731D01*
G01X20118Y14726D01*
G01X20102Y14718D01*
G01X20090Y14709D01*
G01X20081Y14696D01*
G01X20073Y14681D01*
G01X20068Y14662D01*
G01X20063Y14638D01*
G01X20060Y14611D01*
G01X20057Y14578D01*
G01X20055Y14547D01*
G01X20054Y14519D01*
G01X20054Y14496D01*
G01X20057Y14475D01*
G01X20061Y14457D01*
G01X20068Y14441D01*
G01X20077Y14427D01*
G01X20088Y14414D01*
G01X20103Y14401D01*
G01X20121Y14388D01*
G01X20143Y14376D01*
G01X20168Y14363D01*
G01X20194Y14350D01*
G01X20219Y14338D01*
G01X20244Y14328D01*
G01X20268Y14320D01*
G01X20292Y14313D01*
G01X20315Y14309D01*
G01X20339Y14305D01*
G01X20361Y14303D01*
G01X20383Y14303D01*
G01X20405Y14304D01*
G01X20427Y14307D01*
G01X20448Y14311D01*
G01X20470Y14317D01*
G01X20491Y14325D01*
G01X20512Y14334D01*
G01X20533Y14344D01*
G01X20555Y14357D01*
G01X20576Y14371D01*
G01X20597Y14386D01*
G01X20618Y14404D01*
G01X20638Y14421D01*
G01X20656Y14439D01*
G01X20673Y14457D01*
G01X20688Y14476D01*
G01X20702Y14495D01*
G01X20715Y14515D01*
G01X20727Y14534D01*
G01X20738Y14555D01*
G01X20747Y14576D01*
G01X20755Y14596D01*
G01X20761Y14618D01*
G01X20767Y14639D01*
G01X20771Y14661D01*
G01X20774Y14682D01*
G01X20776Y14726D01*
G01X20775Y14747D01*
G01X20772Y14769D01*
G01X20769Y14790D01*
G01X20764Y14812D01*
G01X20758Y14833D01*
G01X20751Y14854D01*
G01X20742Y14875D01*
G01X20732Y14896D01*
G01X20721Y14916D01*
G01X20709Y14936D01*
G01X20695Y14955D01*
G01X20680Y14975D01*
G01X20664Y14993D01*
G01X20628Y15029D01*
G01X20608Y15046D01*
G01X20576Y15068D01*
G01X20558Y15077D01*
G01X20539Y15086D01*
G01X20519Y15093D01*
G01X20499Y15099D01*
G01X20478Y15105D01*
G01X20456Y15109D01*
G01X20435Y15112D01*
G01X20412Y15114D01*
G01X20390Y15115D01*
G37*

%LPD*%
G36*
G01X23482Y15118D02*
G01X23451Y15119D01*
G01X23428Y15118D01*
G01X23386Y15114D01*
G01X23365Y15111D01*
G01X23345Y15106D01*
G01X23326Y15101D01*
G01X23307Y15095D01*
G01X23288Y15088D01*
G01X23271Y15080D01*
G01X23253Y15072D01*
G01X23237Y15063D01*
G01X23221Y15053D01*
G01X23191Y15031D01*
G01X23177Y15019D01*
G01X23164Y15007D01*
G01X23151Y14994D01*
G01X23127Y14966D01*
G01X23117Y14952D01*
G01X23106Y14937D01*
G01X23097Y14921D01*
G01X23088Y14906D01*
G01X23080Y14890D01*
G01X23073Y14873D01*
G01X23067Y14857D01*
G01X23061Y14840D01*
G01X23056Y14823D01*
G01X23051Y14805D01*
G01X23048Y14788D01*
G01X23045Y14770D01*
G01X23043Y14752D01*
G01X23041Y14716D01*
G01X23041Y14698D01*
G01X23042Y14680D01*
G01X23044Y14663D01*
G01X23047Y14644D01*
G01X23051Y14627D01*
G01X23055Y14609D01*
G01X23060Y14592D01*
G01X23066Y14574D01*
G01X23073Y14557D01*
G01X23081Y14540D01*
G01X23090Y14524D01*
G01X23099Y14507D01*
G01X23110Y14491D01*
G01X23121Y14476D01*
G01X23133Y14461D01*
G01X23147Y14446D01*
G01X23160Y14431D01*
G01X23176Y14417D01*
G01X23192Y14404D01*
G01X23209Y14391D01*
G01X23226Y14379D01*
G01X23245Y14367D01*
G01X23267Y14355D01*
G01X23287Y14344D01*
G01X23308Y14335D01*
G01X23328Y14326D01*
G01X23348Y14319D01*
G01X23368Y14313D01*
G01X23388Y14309D01*
G01X23407Y14305D01*
G01X23426Y14303D01*
G01X23464Y14303D01*
G01X23484Y14305D01*
G01X23502Y14308D01*
G01X23521Y14312D01*
G01X23540Y14318D01*
G01X23559Y14325D01*
G01X23578Y14333D01*
G01X23597Y14342D01*
G01X23617Y14353D01*
G01X23636Y14365D01*
G01X23656Y14378D01*
G01X23675Y14393D01*
G01X23695Y14409D01*
G01X23715Y14426D01*
G01X23736Y14444D01*
G01X23772Y14482D01*
G01X23788Y14502D01*
G01X23802Y14522D01*
G01X23815Y14542D01*
G01X23827Y14562D01*
G01X23837Y14583D01*
G01X23846Y14603D01*
G01X23853Y14625D01*
G01X23859Y14646D01*
G01X23864Y14667D01*
G01X23867Y14688D01*
G01X23868Y14709D01*
G01X23868Y14730D01*
G01X23867Y14752D01*
G01X23864Y14773D01*
G01X23860Y14794D01*
G01X23855Y14815D01*
G01X23848Y14837D01*
G01X23840Y14857D01*
G01X23830Y14878D01*
G01X23818Y14899D01*
G01X23806Y14919D01*
G01X23792Y14940D01*
G01X23776Y14960D01*
G01X23759Y14979D01*
G01X23741Y14999D01*
G01X23718Y15021D01*
G01X23696Y15040D01*
G01X23675Y15057D01*
G01X23653Y15071D01*
G01X23632Y15084D01*
G01X23610Y15094D01*
G01X23588Y15102D01*
G01X23564Y15108D01*
G01X23539Y15113D01*
G01X23512Y15116D01*
G01X23482Y15118D01*
G37*

%LPC*%
G36*
G01X23465Y15030D02*
G01X23446Y15030D01*
G01X23427Y15029D01*
G01X23408Y15026D01*
G01X23389Y15020D01*
G01X23371Y15013D01*
G01X23352Y15005D01*
G01X23333Y14994D01*
G01X23313Y14982D01*
G01X23293Y14967D01*
G01X23272Y14951D01*
G01X23256Y14938D01*
G01X23241Y14923D01*
G01X23227Y14908D01*
G01X23215Y14892D01*
G01X23204Y14875D01*
G01X23194Y14857D01*
G01X23186Y14839D01*
G01X23179Y14821D01*
G01X23173Y14801D01*
G01X23168Y14782D01*
G01X23165Y14763D01*
G01X23161Y14723D01*
G01X23163Y14683D01*
G01X23165Y14663D01*
G01X23169Y14644D01*
G01X23174Y14624D01*
G01X23186Y14586D01*
G01X23194Y14568D01*
G01X23214Y14534D01*
G01X23225Y14517D01*
G01X23251Y14487D01*
G01X23265Y14473D01*
G01X23281Y14460D01*
G01X23297Y14448D01*
G01X23315Y14438D01*
G01X23334Y14428D01*
G01X23353Y14420D01*
G01X23373Y14413D01*
G01X23394Y14409D01*
G01X23416Y14407D01*
G01X23438Y14407D01*
G01X23461Y14409D01*
G01X23484Y14412D01*
G01X23507Y14417D01*
G01X23530Y14424D01*
G01X23552Y14432D01*
G01X23575Y14442D01*
G01X23617Y14466D01*
G01X23637Y14480D01*
G01X23656Y14496D01*
G01X23674Y14512D01*
G01X23690Y14529D01*
G01X23705Y14547D01*
G01X23718Y14566D01*
G01X23729Y14586D01*
G01X23738Y14607D01*
G01X23744Y14627D01*
G01X23749Y14648D01*
G01X23752Y14670D01*
G01X23753Y14693D01*
G01X23753Y14717D01*
G01X23751Y14740D01*
G01X23748Y14764D01*
G01X23743Y14787D01*
G01X23737Y14811D01*
G01X23730Y14834D01*
G01X23721Y14856D01*
G01X23711Y14877D01*
G01X23700Y14898D01*
G01X23688Y14917D01*
G01X23676Y14934D01*
G01X23662Y14951D01*
G01X23647Y14965D01*
G01X23632Y14978D01*
G01X23616Y14988D01*
G01X23599Y14996D01*
G01X23574Y15006D01*
G01X23550Y15014D01*
G01X23527Y15021D01*
G01X23506Y15026D01*
G01X23485Y15029D01*
G01X23465Y15030D01*
G37*

%LPD*%
G36*
G01X22046Y14871D02*
G01X22021Y14871D01*
G01X21996Y14870D01*
G01X21972Y14867D01*
G01X21948Y14863D01*
G01X21926Y14858D01*
G01X21905Y14851D01*
G01X21885Y14842D01*
G01X21866Y14832D01*
G01X21850Y14821D01*
G01X21835Y14808D01*
G01X21822Y14793D01*
G01X21810Y14775D01*
G01X21799Y14755D01*
G01X21789Y14733D01*
G01X21781Y14711D01*
G01X21775Y14688D01*
G01X21772Y14665D01*
G01X21770Y14644D01*
G01X21771Y14623D01*
G01X21772Y14604D01*
G01X21776Y14589D01*
G01X21782Y14577D01*
G01X21791Y14567D01*
G01X21804Y14559D01*
G01X21822Y14554D01*
G01X21845Y14550D01*
G01X21873Y14547D01*
G01X21908Y14546D01*
G01X21951Y14545D01*
G01X22001Y14545D01*
G01X22048Y14544D01*
G01X22089Y14544D01*
G01X22122Y14543D01*
G01X22149Y14541D01*
G01X22169Y14538D01*
G01X22184Y14534D01*
G01X22194Y14529D01*
G01X22199Y14522D01*
G01X22199Y14514D01*
G01X22195Y14505D01*
G01X22188Y14493D01*
G01X22177Y14479D01*
G01X22161Y14463D01*
G01X22143Y14450D01*
G01X22123Y14440D01*
G01X22100Y14434D01*
G01X22073Y14431D01*
G01X22043Y14430D01*
G01X22007Y14433D01*
G01X21967Y14439D01*
G01X21937Y14443D01*
G01X21910Y14445D01*
G01X21886Y14446D01*
G01X21865Y14445D01*
G01X21848Y14442D01*
G01X21834Y14438D01*
G01X21823Y14433D01*
G01X21816Y14427D01*
G01X21812Y14419D01*
G01X21812Y14410D01*
G01X21816Y14401D01*
G01X21823Y14390D01*
G01X21834Y14379D01*
G01X21849Y14367D01*
G01X21868Y14354D01*
G01X21890Y14341D01*
G01X21914Y14329D01*
G01X21938Y14319D01*
G01X21961Y14312D01*
G01X21985Y14306D01*
G01X22007Y14303D01*
G01X22030Y14301D01*
G01X22052Y14302D01*
G01X22075Y14304D01*
G01X22097Y14309D01*
G01X22118Y14316D01*
G01X22140Y14325D01*
G01X22161Y14335D01*
G01X22182Y14348D01*
G01X22203Y14363D01*
G01X22223Y14380D01*
G01X22243Y14399D01*
G01X22261Y14418D01*
G01X22277Y14437D01*
G01X22290Y14456D01*
G01X22303Y14476D01*
G01X22313Y14496D01*
G01X22322Y14517D01*
G01X22329Y14537D01*
G01X22335Y14558D01*
G01X22338Y14578D01*
G01X22340Y14599D01*
G01X22340Y14620D01*
G01X22339Y14640D01*
G01X22335Y14660D01*
G01X22330Y14680D01*
G01X22323Y14700D01*
G01X22314Y14719D01*
G01X22304Y14738D01*
G01X22292Y14756D01*
G01X22278Y14773D01*
G01X22262Y14790D01*
G01X22246Y14805D01*
G01X22228Y14818D01*
G01X22209Y14829D01*
G01X22188Y14839D01*
G01X22166Y14848D01*
G01X22143Y14855D01*
G01X22119Y14861D01*
G01X22095Y14866D01*
G01X22070Y14869D01*
G01X22046Y14871D01*
G37*

%LPC*%
G36*
G01X22053Y14787D02*
G01X22033Y14787D01*
G01X22012Y14783D01*
G01X21987Y14776D01*
G01X21958Y14766D01*
G01X21935Y14756D01*
G01X21917Y14745D01*
G01X21903Y14734D01*
G01X21894Y14723D01*
G01X21888Y14711D01*
G01X21886Y14699D01*
G01X21889Y14688D01*
G01X21894Y14677D01*
G01X21904Y14667D01*
G01X21917Y14657D01*
G01X21932Y14648D01*
G01X21952Y14641D01*
G01X21974Y14635D01*
G01X21999Y14630D01*
G01X22027Y14628D01*
G01X22057Y14627D01*
G01X22088Y14627D01*
G01X22116Y14629D01*
G01X22140Y14632D01*
G01X22161Y14636D01*
G01X22179Y14640D01*
G01X22194Y14646D01*
G01X22205Y14653D01*
G01X22213Y14660D01*
G01X22218Y14669D01*
G01X22218Y14678D01*
G01X22216Y14688D01*
G01X22210Y14698D01*
G01X22200Y14709D01*
G01X22187Y14721D01*
G01X22170Y14734D01*
G01X22149Y14746D01*
G01X22120Y14763D01*
G01X22095Y14775D01*
G01X22073Y14783D01*
G01X22053Y14787D01*
G37*

%LPD*%
G36*
G01X18645Y14871D02*
G01X18613Y14873D01*
G01X18584Y14872D01*
G01X18558Y14870D01*
G01X18534Y14867D01*
G01X18512Y14863D01*
G01X18491Y14857D01*
G01X18472Y14850D01*
G01X18454Y14841D01*
G01X18437Y14830D01*
G01X18421Y14817D01*
G01X18405Y14803D01*
G01X18389Y14786D01*
G01X18374Y14767D01*
G01X18356Y14744D01*
G01X18341Y14722D01*
G01X18329Y14701D01*
G01X18319Y14682D01*
G01X18313Y14665D01*
G01X18309Y14648D01*
G01X18308Y14633D01*
G01X18310Y14619D01*
G01X18314Y14607D01*
G01X18322Y14596D01*
G01X18332Y14586D01*
G01X18346Y14577D01*
G01X18362Y14569D01*
G01X18382Y14562D01*
G01X18404Y14557D01*
G01X18430Y14552D01*
G01X18458Y14549D01*
G01X18490Y14546D01*
G01X18525Y14545D01*
G01X18563Y14545D01*
G01X18609Y14544D01*
G01X18649Y14544D01*
G01X18681Y14543D01*
G01X18708Y14541D01*
G01X18728Y14538D01*
G01X18743Y14534D01*
G01X18752Y14529D01*
G01X18756Y14522D01*
G01X18756Y14514D01*
G01X18752Y14504D01*
G01X18745Y14493D01*
G01X18734Y14479D01*
G01X18719Y14463D01*
G01X18702Y14451D01*
G01X18682Y14441D01*
G01X18660Y14434D01*
G01X18636Y14430D01*
G01X18609Y14430D01*
G01X18578Y14431D01*
G01X18545Y14436D01*
G01X18512Y14440D01*
G01X18484Y14443D01*
G01X18460Y14443D01*
G01X18441Y14442D01*
G01X18427Y14438D01*
G01X18418Y14432D01*
G01X18413Y14423D01*
G01X18413Y14413D01*
G01X18417Y14400D01*
G01X18427Y14385D01*
G01X18440Y14367D01*
G01X18459Y14348D01*
G01X18475Y14334D01*
G01X18492Y14323D01*
G01X18511Y14313D01*
G01X18531Y14307D01*
G01X18552Y14303D01*
G01X18575Y14301D01*
G01X18597Y14301D01*
G01X18620Y14303D01*
G01X18644Y14309D01*
G01X18668Y14316D01*
G01X18692Y14325D01*
G01X18715Y14336D01*
G01X18739Y14350D01*
G01X18762Y14366D01*
G01X18784Y14384D01*
G01X18805Y14404D01*
G01X18825Y14424D01*
G01X18842Y14443D01*
G01X18856Y14461D01*
G01X18868Y14479D01*
G01X18877Y14496D01*
G01X18885Y14513D01*
G01X18889Y14531D01*
G01X18892Y14549D01*
G01X18893Y14569D01*
G01X18892Y14589D01*
G01X18889Y14611D01*
G01X18885Y14636D01*
G01X18879Y14662D01*
G01X18872Y14689D01*
G01X18863Y14716D01*
G01X18854Y14741D01*
G01X18844Y14765D01*
G01X18834Y14786D01*
G01X18824Y14804D01*
G01X18814Y14817D01*
G01X18802Y14828D01*
G01X18784Y14839D01*
G01X18762Y14848D01*
G01X18736Y14856D01*
G01X18707Y14863D01*
G01X18677Y14868D01*
G01X18645Y14871D01*
G37*

%LPC*%
G36*
G01X18606Y14786D02*
G01X18586Y14787D01*
G01X18567Y14784D01*
G01X18547Y14778D01*
G01X18528Y14769D01*
G01X18508Y14755D01*
G01X18488Y14739D01*
G01X18466Y14719D01*
G01X18444Y14696D01*
G01X18429Y14678D01*
G01X18422Y14665D01*
G01X18423Y14655D01*
G01X18434Y14648D01*
G01X18455Y14643D01*
G01X18486Y14638D01*
G01X18529Y14634D01*
G01X18557Y14632D01*
G01X18586Y14631D01*
G01X18615Y14631D01*
G01X18644Y14632D01*
G01X18670Y14635D01*
G01X18694Y14638D01*
G01X18715Y14642D01*
G01X18731Y14647D01*
G01X18751Y14655D01*
G01X18765Y14663D01*
G01X18773Y14671D01*
G01X18775Y14679D01*
G01X18771Y14688D01*
G01X18760Y14700D01*
G01X18743Y14714D01*
G01X18719Y14732D01*
G01X18694Y14750D01*
G01X18670Y14764D01*
G01X18648Y14775D01*
G01X18627Y14782D01*
G01X18606Y14786D01*
G37*

%LPD*%
G36*
G01X16688Y14873D02*
G01X16497Y14873D01*
G01X16469Y14872D01*
G01X16443Y14871D01*
G01X16418Y14870D01*
G01X16394Y14867D01*
G01X16372Y14865D01*
G01X16351Y14861D01*
G01X16331Y14856D01*
G01X16313Y14851D01*
G01X16295Y14844D01*
G01X16279Y14837D01*
G01X16264Y14829D01*
G01X16251Y14820D01*
G01X16238Y14810D01*
G01X16226Y14799D01*
G01X16215Y14787D01*
G01X16206Y14774D01*
G01X16197Y14759D01*
G01X16189Y14744D01*
G01X16182Y14727D01*
G01X16177Y14709D01*
G01X16171Y14690D01*
G01X16167Y14670D01*
G01X16163Y14648D01*
G01X16160Y14625D01*
G01X16158Y14600D01*
G01X16157Y14574D01*
G01X16156Y14547D01*
G01X16156Y14474D01*
G01X16159Y14433D01*
G01X16163Y14396D01*
G01X16168Y14363D01*
G01X16174Y14336D01*
G01X16181Y14316D01*
G01X16188Y14303D01*
G01X16197Y14299D01*
G01X16205Y14303D01*
G01X16212Y14313D01*
G01X16219Y14330D01*
G01X16226Y14352D01*
G01X16231Y14379D01*
G01X16234Y14410D01*
G01X16237Y14444D01*
G01X16238Y14480D01*
G01X16238Y14514D01*
G01X16241Y14546D01*
G01X16245Y14577D01*
G01X16251Y14606D01*
G01X16258Y14634D01*
G01X16267Y14659D01*
G01X16277Y14683D01*
G01X16289Y14705D01*
G01X16302Y14724D01*
G01X16316Y14741D01*
G01X16331Y14756D01*
G01X16347Y14768D01*
G01X16365Y14778D01*
G01X16383Y14785D01*
G01X16402Y14789D01*
G01X16422Y14790D01*
G01X16436Y14789D01*
G01X16450Y14786D01*
G01X16463Y14780D01*
G01X16477Y14771D01*
G01X16490Y14761D01*
G01X16515Y14736D01*
G01X16527Y14720D01*
G01X16538Y14703D01*
G01X16548Y14685D01*
G01X16559Y14665D01*
G01X16568Y14644D01*
G01X16576Y14623D01*
G01X16584Y14600D01*
G01X16590Y14576D01*
G01X16596Y14553D01*
G01X16604Y14503D01*
G01X16606Y14478D01*
G01X16606Y14453D01*
G01X16607Y14423D01*
G01X16610Y14394D01*
G01X16613Y14367D01*
G01X16618Y14344D01*
G01X16625Y14325D01*
G01X16631Y14311D01*
G01X16639Y14302D01*
G01X16647Y14299D01*
G01X16653Y14301D01*
G01X16659Y14309D01*
G01X16664Y14321D01*
G01X16673Y14357D01*
G01X16677Y14381D01*
G01X16680Y14408D01*
G01X16683Y14438D01*
G01X16685Y14472D01*
G01X16687Y14507D01*
G01X16688Y14546D01*
G01X16688Y14873D01*
G37*

%LPD*%
G36*
G01X18246Y14873D02*
G01X18059Y14873D01*
G01X18032Y14872D01*
G01X18006Y14871D01*
G01X17954Y14867D01*
G01X17928Y14864D01*
G01X17904Y14861D01*
G01X17881Y14857D01*
G01X17860Y14853D01*
G01X17840Y14848D01*
G01X17822Y14843D01*
G01X17808Y14838D01*
G01X17796Y14832D01*
G01X17783Y14823D01*
G01X17770Y14812D01*
G01X17759Y14798D01*
G01X17747Y14781D01*
G01X17737Y14763D01*
G01X17728Y14742D01*
G01X17719Y14720D01*
G01X17711Y14697D01*
G01X17705Y14672D01*
G01X17698Y14646D01*
G01X17693Y14620D01*
G01X17689Y14594D01*
G01X17683Y14540D01*
G01X17682Y14513D01*
G01X17681Y14487D01*
G01X17682Y14462D01*
G01X17683Y14438D01*
G01X17685Y14414D01*
G01X17689Y14393D01*
G01X17694Y14373D01*
G01X17699Y14354D01*
G01X17706Y14338D01*
G01X17714Y14325D01*
G01X17723Y14314D01*
G01X17733Y14305D01*
G01X17744Y14301D01*
G01X17757Y14299D01*
G01X17764Y14302D01*
G01X17772Y14313D01*
G01X17778Y14329D01*
G01X17784Y14351D01*
G01X17788Y14378D01*
G01X17792Y14408D01*
G01X17794Y14441D01*
G01X17795Y14477D01*
G01X17795Y14508D01*
G01X17797Y14536D01*
G01X17800Y14563D01*
G01X17803Y14587D01*
G01X17808Y14610D01*
G01X17814Y14631D01*
G01X17822Y14651D01*
G01X17831Y14669D01*
G01X17840Y14686D01*
G01X17852Y14702D01*
G01X17865Y14717D01*
G01X17879Y14731D01*
G01X17898Y14747D01*
G01X17916Y14760D01*
G01X17934Y14770D01*
G01X17951Y14777D01*
G01X17967Y14781D01*
G01X17983Y14783D01*
G01X17998Y14782D01*
G01X18012Y14778D01*
G01X18026Y14771D01*
G01X18039Y14761D01*
G01X18051Y14749D01*
G01X18063Y14734D01*
G01X18073Y14717D01*
G01X18083Y14697D01*
G01X18092Y14675D01*
G01X18100Y14649D01*
G01X18107Y14621D01*
G01X18113Y14591D01*
G01X18118Y14559D01*
G01X18123Y14523D01*
G01X18128Y14483D01*
G01X18135Y14445D01*
G01X18143Y14410D01*
G01X18152Y14379D01*
G01X18162Y14352D01*
G01X18173Y14331D01*
G01X18184Y14316D01*
G01X18194Y14309D01*
G01X18203Y14307D01*
G01X18211Y14310D01*
G01X18218Y14316D01*
G01X18225Y14327D01*
G01X18230Y14341D01*
G01X18234Y14361D01*
G01X18238Y14385D01*
G01X18241Y14413D01*
G01X18243Y14448D01*
G01X18244Y14487D01*
G01X18245Y14532D01*
G01X18246Y14582D01*
G01X18246Y14873D01*
G37*

%LPD*%
G36*
G01X20008Y14579D02*
G01X20008Y14859D01*
G01X19813Y14855D01*
G01X19783Y14854D01*
G01X19754Y14852D01*
G01X19728Y14849D01*
G01X19703Y14845D01*
G01X19681Y14840D01*
G01X19662Y14835D01*
G01X19645Y14830D01*
G01X19631Y14824D01*
G01X19620Y14818D01*
G01X19612Y14811D01*
G01X19607Y14805D01*
G01X19605Y14799D01*
G01X19606Y14793D01*
G01X19611Y14788D01*
G01X19620Y14783D01*
G01X19633Y14778D01*
G01X19649Y14775D01*
G01X19669Y14772D01*
G01X19694Y14771D01*
G01X19722Y14770D01*
G01X19745Y14769D01*
G01X19765Y14768D01*
G01X19785Y14765D01*
G01X19802Y14761D01*
G01X19819Y14755D01*
G01X19834Y14748D01*
G01X19847Y14740D01*
G01X19860Y14730D01*
G01X19871Y14719D01*
G01X19881Y14706D01*
G01X19890Y14692D01*
G01X19898Y14675D01*
G01X19905Y14657D01*
G01X19915Y14615D01*
G01X19919Y14590D01*
G01X19922Y14564D01*
G01X19924Y14536D01*
G01X19925Y14506D01*
G01X19925Y14473D01*
G01X19926Y14438D01*
G01X19929Y14405D01*
G01X19933Y14376D01*
G01X19938Y14350D01*
G01X19944Y14329D01*
G01X19951Y14313D01*
G01X19959Y14302D01*
G01X19967Y14299D01*
G01X19973Y14301D01*
G01X19978Y14309D01*
G01X19983Y14320D01*
G01X19988Y14336D01*
G01X19992Y14356D01*
G01X19996Y14379D01*
G01X20000Y14406D01*
G01X20002Y14435D01*
G01X20005Y14468D01*
G01X20006Y14503D01*
G01X20007Y14540D01*
G01X20008Y14579D01*
G37*

%LPD*%
G36*
G01X21513Y14882D02*
G01X21490Y14883D01*
G01X21466Y14882D01*
G01X21442Y14880D01*
G01X21417Y14878D01*
G01X21393Y14875D01*
G01X21369Y14871D01*
G01X21346Y14866D01*
G01X21324Y14861D01*
G01X21303Y14855D01*
G01X21285Y14848D01*
G01X21268Y14841D01*
G01X21250Y14832D01*
G01X21233Y14824D01*
G01X21219Y14815D01*
G01X21206Y14806D01*
G01X21196Y14796D01*
G01X21187Y14786D01*
G01X21179Y14773D01*
G01X21173Y14759D01*
G01X21168Y14743D01*
G01X21164Y14725D01*
G01X21160Y14703D01*
G01X21159Y14679D01*
G01X21157Y14651D01*
G01X21156Y14619D01*
G01X21156Y14510D01*
G01X21157Y14478D01*
G01X21159Y14448D01*
G01X21161Y14420D01*
G01X21164Y14394D01*
G01X21168Y14370D01*
G01X21171Y14350D01*
G01X21176Y14332D01*
G01X21181Y14318D01*
G01X21185Y14307D01*
G01X21191Y14301D01*
G01X21197Y14299D01*
G01X21205Y14303D01*
G01X21212Y14313D01*
G01X21219Y14330D01*
G01X21226Y14352D01*
G01X21231Y14379D01*
G01X21234Y14410D01*
G01X21237Y14444D01*
G01X21238Y14480D01*
G01X21238Y14511D01*
G01X21240Y14541D01*
G01X21244Y14569D01*
G01X21249Y14596D01*
G01X21255Y14621D01*
G01X21263Y14645D01*
G01X21271Y14668D01*
G01X21281Y14688D01*
G01X21292Y14707D01*
G01X21303Y14725D01*
G01X21315Y14740D01*
G01X21328Y14754D01*
G01X21342Y14765D01*
G01X21356Y14775D01*
G01X21371Y14782D01*
G01X21386Y14787D01*
G01X21402Y14790D01*
G01X21418Y14791D01*
G01X21434Y14789D01*
G01X21451Y14784D01*
G01X21467Y14778D01*
G01X21484Y14768D01*
G01X21500Y14756D01*
G01X21516Y14741D01*
G01X21526Y14729D01*
G01X21535Y14712D01*
G01X21544Y14691D01*
G01X21551Y14668D01*
G01X21557Y14642D01*
G01X21561Y14615D01*
G01X21564Y14588D01*
G01X21567Y14504D01*
G01X21569Y14476D01*
G01X21573Y14448D01*
G01X21576Y14423D01*
G01X21581Y14399D01*
G01X21585Y14380D01*
G01X21590Y14364D01*
G01X21598Y14346D01*
G01X21605Y14332D01*
G01X21612Y14321D01*
G01X21619Y14315D01*
G01X21627Y14311D01*
G01X21634Y14311D01*
G01X21640Y14313D01*
G01X21646Y14319D01*
G01X21652Y14328D01*
G01X21658Y14340D01*
G01X21663Y14355D01*
G01X21668Y14373D01*
G01X21673Y14394D01*
G01X21677Y14417D01*
G01X21680Y14442D01*
G01X21683Y14471D01*
G01X21685Y14501D01*
G01X21687Y14534D01*
G01X21688Y14569D01*
G01X21688Y14867D01*
G01X21535Y14881D01*
G01X21513Y14882D01*
G37*

%LPD*%
G36*
G01X22709Y14882D02*
G01X22685Y14883D01*
G01X22662Y14881D01*
G01X22639Y14878D01*
G01X22615Y14873D01*
G01X22593Y14866D01*
G01X22570Y14857D01*
G01X22548Y14847D01*
G01X22527Y14836D01*
G01X22507Y14822D01*
G01X22488Y14807D01*
G01X22471Y14791D01*
G01X22455Y14774D01*
G01X22440Y14755D01*
G01X22427Y14736D01*
G01X22416Y14715D01*
G01X22407Y14692D01*
G01X22401Y14671D01*
G01X22396Y14650D01*
G01X22394Y14629D01*
G01X22393Y14608D01*
G01X22394Y14586D01*
G01X22397Y14565D01*
G01X22407Y14525D01*
G01X22423Y14485D01*
G01X22434Y14466D01*
G01X22445Y14448D01*
G01X22457Y14430D01*
G01X22485Y14398D01*
G01X22500Y14383D01*
G01X22516Y14369D01*
G01X22533Y14356D01*
G01X22550Y14344D01*
G01X22568Y14334D01*
G01X22586Y14325D01*
G01X22605Y14317D01*
G01X22625Y14311D01*
G01X22644Y14306D01*
G01X22663Y14303D01*
G01X22683Y14301D01*
G01X22702Y14301D01*
G01X22722Y14303D01*
G01X22741Y14307D01*
G01X22760Y14313D01*
G01X22778Y14321D01*
G01X22797Y14332D01*
G01X22822Y14346D01*
G01X22840Y14355D01*
G01X22855Y14357D01*
G01X22864Y14351D01*
G01X22871Y14337D01*
G01X22875Y14313D01*
G01X22876Y14279D01*
G01X22877Y14234D01*
G01X22877Y14200D01*
G01X22880Y14170D01*
G01X22884Y14146D01*
G01X22889Y14128D01*
G01X22897Y14114D01*
G01X22906Y14105D01*
G01X22916Y14102D01*
G01X22928Y14104D01*
G01X22935Y14108D01*
G01X22943Y14115D01*
G01X22949Y14125D01*
G01X22955Y14138D01*
G01X22961Y14153D01*
G01X22966Y14171D01*
G01X22971Y14190D01*
G01X22975Y14211D01*
G01X22978Y14234D01*
G01X22982Y14259D01*
G01X22985Y14284D01*
G01X22989Y14338D01*
G01X22990Y14367D01*
G01X22990Y14452D01*
G01X22989Y14480D01*
G01X22988Y14509D01*
G01X22985Y14536D01*
G01X22983Y14563D01*
G01X22980Y14588D01*
G01X22976Y14612D01*
G01X22972Y14635D01*
G01X22967Y14656D01*
G01X22961Y14676D01*
G01X22955Y14693D01*
G01X22948Y14708D01*
G01X22935Y14729D01*
G01X22920Y14751D01*
G01X22902Y14773D01*
G01X22882Y14794D01*
G01X22861Y14814D01*
G01X22839Y14832D01*
G01X22818Y14847D01*
G01X22797Y14859D01*
G01X22776Y14868D01*
G01X22754Y14875D01*
G01X22731Y14880D01*
G01X22709Y14882D01*
G37*

%LPC*%
G36*
G01X22712Y14787D02*
G01X22695Y14787D01*
G01X22677Y14785D01*
G01X22657Y14780D01*
G01X22636Y14772D01*
G01X22613Y14761D01*
G01X22587Y14748D01*
G01X22572Y14738D01*
G01X22557Y14726D01*
G01X22545Y14711D01*
G01X22535Y14695D01*
G01X22526Y14678D01*
G01X22519Y14659D01*
G01X22514Y14640D01*
G01X22511Y14620D01*
G01X22510Y14600D01*
G01X22510Y14579D01*
G01X22513Y14559D01*
G01X22518Y14539D01*
G01X22524Y14520D01*
G01X22533Y14503D01*
G01X22544Y14486D01*
G01X22557Y14471D01*
G01X22572Y14458D01*
G01X22589Y14447D01*
G01X22607Y14438D01*
G01X22626Y14431D01*
G01X22645Y14427D01*
G01X22665Y14424D01*
G01X22686Y14423D01*
G01X22706Y14425D01*
G01X22726Y14428D01*
G01X22746Y14433D01*
G01X22764Y14440D01*
G01X22782Y14448D01*
G01X22798Y14459D01*
G01X22812Y14471D01*
G01X22824Y14485D01*
G01X22834Y14501D01*
G01X22847Y14526D01*
G01X22858Y14550D01*
G01X22866Y14571D01*
G01X22871Y14590D01*
G01X22873Y14609D01*
G01X22873Y14626D01*
G01X22870Y14642D01*
G01X22864Y14658D01*
G01X22856Y14674D01*
G01X22844Y14691D01*
G01X22830Y14708D01*
G01X22813Y14726D01*
G01X22794Y14744D01*
G01X22777Y14758D01*
G01X22760Y14769D01*
G01X22744Y14778D01*
G01X22728Y14784D01*
G01X22712Y14787D01*
G37*

%LPD*%
G36*
G01X13900Y14870D02*
G01X13890Y14873D01*
G01X13881Y14872D01*
G01X13874Y14868D01*
G01X13868Y14860D01*
G01X13864Y14848D01*
G01X13861Y14832D01*
G01X13860Y14813D01*
G01X13861Y14802D01*
G01X13864Y14789D01*
G01X13867Y14773D01*
G01X13872Y14755D01*
G01X13879Y14734D01*
G01X13886Y14712D01*
G01X13895Y14688D01*
G01X13915Y14636D01*
G01X13926Y14607D01*
G01X13938Y14578D01*
G01X13951Y14549D01*
G01X13964Y14518D01*
G01X13977Y14488D01*
G01X13991Y14457D01*
G01X14006Y14426D01*
G01X14020Y14396D01*
G01X14034Y14365D01*
G01X14048Y14336D01*
G01X14063Y14307D01*
G01X14077Y14280D01*
G01X14090Y14253D01*
G01X14104Y14228D01*
G01X14117Y14205D01*
G01X14129Y14183D01*
G01X14140Y14164D01*
G01X14151Y14146D01*
G01X14161Y14132D01*
G01X14170Y14119D01*
G01X14178Y14110D01*
G01X14185Y14103D01*
G01X14191Y14100D01*
G01X14203Y14097D01*
G01X14212Y14099D01*
G01X14219Y14105D01*
G01X14223Y14115D01*
G01X14224Y14129D01*
G01X14223Y14148D01*
G01X14219Y14172D01*
G01X14212Y14201D01*
G01X14206Y14228D01*
G01X14196Y14276D01*
G01X14193Y14298D01*
G01X14189Y14318D01*
G01X14188Y14338D01*
G01X14186Y14357D01*
G01X14186Y14376D01*
G01X14187Y14395D01*
G01X14189Y14413D01*
G01X14192Y14431D01*
G01X14196Y14450D01*
G01X14201Y14469D01*
G01X14207Y14488D01*
G01X14214Y14509D01*
G01X14222Y14530D01*
G01X14232Y14553D01*
G01X14243Y14577D01*
G01X14254Y14603D01*
G01X14268Y14630D01*
G01X14285Y14666D01*
G01X14300Y14701D01*
G01X14315Y14734D01*
G01X14327Y14764D01*
G01X14338Y14790D01*
G01X14346Y14813D01*
G01X14351Y14829D01*
G01X14352Y14839D01*
G01X14348Y14852D01*
G01X14336Y14863D01*
G01X14318Y14870D01*
G01X14297Y14873D01*
G01X14284Y14869D01*
G01X14270Y14859D01*
G01X14254Y14843D01*
G01X14237Y14821D01*
G01X14219Y14796D01*
G01X14202Y14766D01*
G01X14185Y14733D01*
G01X14170Y14698D01*
G01X14098Y14524D01*
G01X14019Y14698D01*
G01X14004Y14729D01*
G01X13989Y14757D01*
G01X13975Y14783D01*
G01X13961Y14805D01*
G01X13947Y14825D01*
G01X13934Y14841D01*
G01X13922Y14854D01*
G01X13910Y14863D01*
G01X13900Y14870D01*
G37*

%LPD*%
G36*
G01X14678Y14871D02*
G01X14655Y14871D01*
G01X14631Y14869D01*
G01X14608Y14866D01*
G01X14585Y14862D01*
G01X14562Y14857D01*
G01X14540Y14851D01*
G01X14500Y14835D01*
G01X14481Y14825D01*
G01X14464Y14815D01*
G01X14448Y14803D01*
G01X14434Y14790D01*
G01X14423Y14778D01*
G01X14413Y14764D01*
G01X14403Y14748D01*
G01X14394Y14731D01*
G01X14385Y14713D01*
G01X14378Y14694D01*
G01X14371Y14673D01*
G01X14365Y14652D01*
G01X14360Y14630D01*
G01X14356Y14607D01*
G01X14352Y14583D01*
G01X14349Y14559D01*
G01X14347Y14535D01*
G01X14345Y14510D01*
G01X14344Y14486D01*
G01X14344Y14461D01*
G01X14345Y14436D01*
G01X14349Y14388D01*
G01X14352Y14364D01*
G01X14356Y14341D01*
G01X14360Y14319D01*
G01X14365Y14297D01*
G01X14377Y14257D01*
G01X14385Y14238D01*
G01X14393Y14221D01*
G01X14401Y14205D01*
G01X14411Y14191D01*
G01X14421Y14178D01*
G01X14432Y14167D01*
G01X14443Y14158D01*
G01X14461Y14146D01*
G01X14480Y14136D01*
G01X14500Y14126D01*
G01X14521Y14118D01*
G01X14542Y14111D01*
G01X14563Y14105D01*
G01X14585Y14100D01*
G01X14607Y14097D01*
G01X14630Y14094D01*
G01X14652Y14093D01*
G01X14675Y14092D01*
G01X14697Y14093D01*
G01X14719Y14095D01*
G01X14740Y14098D01*
G01X14761Y14102D01*
G01X14781Y14107D01*
G01X14819Y14121D01*
G01X14836Y14129D01*
G01X14853Y14138D01*
G01X14868Y14149D01*
G01X14881Y14160D01*
G01X14894Y14173D01*
G01X14904Y14186D01*
G01X14924Y14215D01*
G01X14938Y14237D01*
G01X14946Y14254D01*
G01X14948Y14266D01*
G01X14945Y14276D01*
G01X14935Y14282D01*
G01X14920Y14288D01*
G01X14899Y14293D01*
G01X14868Y14294D01*
G01X14835Y14284D01*
G01X14805Y14266D01*
G01X14781Y14242D01*
G01X14767Y14226D01*
G01X14752Y14212D01*
G01X14736Y14201D01*
G01X14718Y14192D01*
G01X14700Y14185D01*
G01X14681Y14180D01*
G01X14662Y14178D01*
G01X14643Y14178D01*
G01X14624Y14181D01*
G01X14605Y14186D01*
G01X14587Y14192D01*
G01X14570Y14201D01*
G01X14554Y14213D01*
G01X14539Y14226D01*
G01X14527Y14242D01*
G01X14515Y14259D01*
G01X14502Y14284D01*
G01X14494Y14303D01*
G01X14492Y14317D01*
G01X14494Y14325D01*
G01X14503Y14329D01*
G01X14519Y14328D01*
G01X14542Y14324D01*
G01X14572Y14317D01*
G01X14600Y14311D01*
G01X14627Y14307D01*
G01X14653Y14305D01*
G01X14678Y14305D01*
G01X14702Y14307D01*
G01X14726Y14312D01*
G01X14748Y14318D01*
G01X14770Y14326D01*
G01X14790Y14337D01*
G01X14810Y14349D01*
G01X14828Y14363D01*
G01X14846Y14380D01*
G01X14863Y14398D01*
G01X14878Y14419D01*
G01X14893Y14441D01*
G01X14907Y14465D01*
G01X14919Y14491D01*
G01X14929Y14518D01*
G01X14936Y14545D01*
G01X14942Y14572D01*
G01X14945Y14599D01*
G01X14947Y14625D01*
G01X14946Y14651D01*
G01X14943Y14677D01*
G01X14938Y14702D01*
G01X14931Y14725D01*
G01X14922Y14747D01*
G01X14911Y14768D01*
G01X14899Y14787D01*
G01X14884Y14804D01*
G01X14868Y14819D01*
G01X14850Y14831D01*
G01X14832Y14840D01*
G01X14812Y14848D01*
G01X14792Y14855D01*
G01X14770Y14861D01*
G01X14748Y14865D01*
G01X14725Y14869D01*
G01X14702Y14870D01*
G01X14678Y14871D01*
G37*

%LPC*%
G36*
G01X14678Y14786D02*
G01X14661Y14787D01*
G01X14644Y14785D01*
G01X14625Y14780D01*
G01X14604Y14772D01*
G01X14581Y14761D01*
G01X14555Y14748D01*
G01X14536Y14736D01*
G01X14519Y14722D01*
G01X14506Y14705D01*
G01X14495Y14688D01*
G01X14487Y14668D01*
G01X14481Y14648D01*
G01X14478Y14626D01*
G01X14478Y14605D01*
G01X14480Y14582D01*
G01X14485Y14560D01*
G01X14492Y14538D01*
G01X14501Y14517D01*
G01X14514Y14497D01*
G01X14528Y14478D01*
G01X14546Y14461D01*
G01X14565Y14445D01*
G01X14592Y14427D01*
G01X14615Y14415D01*
G01X14635Y14407D01*
G01X14655Y14403D01*
G01X14673Y14405D01*
G01X14693Y14411D01*
G01X14715Y14422D01*
G01X14740Y14437D01*
G01X14760Y14452D01*
G01X14777Y14467D01*
G01X14793Y14482D01*
G01X14806Y14498D01*
G01X14816Y14515D01*
G01X14825Y14532D01*
G01X14831Y14549D01*
G01X14835Y14566D01*
G01X14836Y14584D01*
G01X14835Y14602D01*
G01X14832Y14620D01*
G01X14826Y14639D01*
G01X14818Y14657D01*
G01X14808Y14675D01*
G01X14795Y14694D01*
G01X14780Y14712D01*
G01X14760Y14732D01*
G01X14743Y14750D01*
G01X14726Y14764D01*
G01X14710Y14774D01*
G01X14694Y14782D01*
G01X14678Y14786D01*
G37*

%LPD*%
G54D11*
G01X30059Y24086D02*
G01X30349Y23322D01*
G01X30059Y24086D02*
G01X29768Y23322D01*
G01X30240Y23577D02*
G01X29877Y23577D01*
G01X29528Y23831D02*
G01X29528Y23322D01*
G01X29528Y23613D02*
G01X29491Y23722D01*
G01X29419Y23795D01*
G01X29346Y23831D01*
G01X29237Y23831D01*
G01X28560Y24086D02*
G01X28560Y23322D01*
G01X28560Y23722D02*
G01X28633Y23795D01*
G01X28706Y23831D01*
G01X28815Y23831D01*
G01X28888Y23795D01*
G01X28960Y23722D01*
G01X28997Y23613D01*
G01X28997Y23540D01*
G01X28960Y23431D01*
G01X28888Y23359D01*
G01X28815Y23322D01*
G01X28706Y23322D01*
G01X28633Y23359D01*
G01X28560Y23431D01*
G01X28320Y23831D02*
G01X28320Y23468D01*
G01X28284Y23359D01*
G01X28211Y23322D01*
G01X28102Y23322D01*
G01X28029Y23359D01*
G01X27920Y23468D01*
G01X27920Y23831D02*
G01X27920Y23322D01*
G01X27680Y24086D02*
G01X27644Y24049D01*
G01X27608Y24086D01*
G01X27644Y24122D01*
G01X27680Y24086D01*
G01X27644Y23831D02*
G01X27644Y23322D01*
G01X27368Y23831D02*
G01X27368Y23322D01*
G01X27368Y23686D02*
G01X27259Y23795D01*
G01X27186Y23831D01*
G01X27077Y23831D01*
G01X27004Y23795D01*
G01X26968Y23686D01*
G01X26968Y23322D01*
G01X26546Y23831D02*
G01X26619Y23795D01*
G01X26691Y23722D01*
G01X26728Y23613D01*
G01X26728Y23540D01*
G01X26691Y23431D01*
G01X26619Y23359D01*
G01X26546Y23322D01*
G01X26437Y23322D01*
G01X26364Y23359D01*
G01X26291Y23431D01*
G01X26255Y23540D01*
G01X26255Y23613D01*
G01X26291Y23722D01*
G01X26364Y23795D01*
G01X26437Y23831D01*
G01X26546Y23831D01*
G01X25455Y24086D02*
G01X25455Y23322D01*
G01X25455Y24086D02*
G01X25128Y24086D01*
G01X25019Y24049D01*
G01X24982Y24013D01*
G01X24946Y23940D01*
G01X24946Y23868D01*
G01X24982Y23795D01*
G01X25019Y23759D01*
G01X25128Y23722D01*
G01X25455Y23722D02*
G01X25128Y23722D01*
G01X25019Y23686D01*
G01X24982Y23649D01*
G01X24946Y23577D01*
G01X24946Y23468D01*
G01X24982Y23395D01*
G01X25019Y23359D01*
G01X25128Y23322D01*
G01X25455Y23322D01*
G01X24269Y23831D02*
G01X24269Y23322D01*
G01X24269Y23722D02*
G01X24342Y23795D01*
G01X24415Y23831D01*
G01X24524Y23831D01*
G01X24597Y23795D01*
G01X24669Y23722D01*
G01X24706Y23613D01*
G01X24706Y23540D01*
G01X24669Y23431D01*
G01X24597Y23359D01*
G01X24524Y23322D01*
G01X24415Y23322D01*
G01X24342Y23359D01*
G01X24269Y23431D01*
G01X23920Y24086D02*
G01X23920Y23468D01*
G01X23884Y23359D01*
G01X23811Y23322D01*
G01X23739Y23322D01*
G01X24029Y23831D02*
G01X23775Y23831D01*
G01X23389Y24086D02*
G01X23389Y23468D01*
G01X23353Y23359D01*
G01X23280Y23322D01*
G01X23208Y23322D01*
G01X23499Y23831D02*
G01X23244Y23831D01*
G01X22968Y23613D02*
G01X22531Y23613D01*
G01X22531Y23686D01*
G01X22568Y23759D01*
G01X22604Y23795D01*
G01X22677Y23831D01*
G01X22786Y23831D01*
G01X22859Y23795D01*
G01X22931Y23722D01*
G01X22968Y23613D01*
G01X22968Y23540D01*
G01X22931Y23431D01*
G01X22859Y23359D01*
G01X22786Y23322D01*
G01X22677Y23322D01*
G01X22604Y23359D01*
G01X22531Y23431D01*
G01X22291Y23831D02*
G01X22291Y23322D01*
G01X22291Y23613D02*
G01X22255Y23722D01*
G01X22182Y23795D01*
G01X22109Y23831D01*
G01X22000Y23831D01*
G01X21724Y23831D02*
G01X21506Y23322D01*
G01X21288Y23831D02*
G01X21506Y23322D01*
G01X21579Y23177D01*
G01X21651Y23104D01*
G01X21724Y23068D01*
G01X21760Y23068D01*
G01X19942Y23904D02*
G01X19979Y23977D01*
G01X20051Y24049D01*
G01X20124Y24086D01*
G01X20269Y24086D01*
G01X20342Y24049D01*
G01X20415Y23977D01*
G01X20451Y23904D01*
G01X20488Y23795D01*
G01X20488Y23613D01*
G01X20451Y23504D01*
G01X20415Y23431D01*
G01X20342Y23359D01*
G01X20269Y23322D01*
G01X20124Y23322D01*
G01X20051Y23359D01*
G01X19979Y23431D01*
G01X19942Y23504D01*
G01X19266Y23831D02*
G01X19266Y23322D01*
G01X19266Y23722D02*
G01X19339Y23795D01*
G01X19411Y23831D01*
G01X19520Y23831D01*
G01X19593Y23795D01*
G01X19666Y23722D01*
G01X19702Y23613D01*
G01X19702Y23540D01*
G01X19666Y23431D01*
G01X19593Y23359D01*
G01X19520Y23322D01*
G01X19411Y23322D01*
G01X19339Y23359D01*
G01X19266Y23431D01*
G01X19026Y23831D02*
G01X19026Y23068D01*
G01X19026Y23722D02*
G01X18953Y23795D01*
G01X18880Y23831D01*
G01X18771Y23831D01*
G01X18699Y23795D01*
G01X18626Y23722D01*
G01X18589Y23613D01*
G01X18589Y23540D01*
G01X18626Y23431D01*
G01X18699Y23359D01*
G01X18771Y23322D01*
G01X18880Y23322D01*
G01X18953Y23359D01*
G01X19026Y23431D01*
G01X17913Y23831D02*
G01X17913Y23322D01*
G01X17913Y23722D02*
G01X17986Y23795D01*
G01X18059Y23831D01*
G01X18168Y23831D01*
G01X18240Y23795D01*
G01X18313Y23722D01*
G01X18349Y23613D01*
G01X18349Y23540D01*
G01X18313Y23431D01*
G01X18240Y23359D01*
G01X18168Y23322D01*
G01X18059Y23322D01*
G01X17986Y23359D01*
G01X17913Y23431D01*
G01X17237Y23722D02*
G01X17309Y23795D01*
G01X17382Y23831D01*
G01X17491Y23831D01*
G01X17564Y23795D01*
G01X17637Y23722D01*
G01X17673Y23613D01*
G01X17673Y23540D01*
G01X17637Y23431D01*
G01X17564Y23359D01*
G01X17491Y23322D01*
G01X17382Y23322D01*
G01X17309Y23359D01*
G01X17237Y23431D01*
G01X16997Y24086D02*
G01X16960Y24049D01*
G01X16924Y24086D01*
G01X16960Y24122D01*
G01X16997Y24086D01*
G01X16960Y23831D02*
G01X16960Y23322D01*
G01X16575Y24086D02*
G01X16575Y23468D01*
G01X16539Y23359D01*
G01X16466Y23322D01*
G01X16393Y23322D01*
G01X16684Y23831D02*
G01X16429Y23831D01*
G01X16117Y23831D02*
G01X15899Y23322D01*
G01X15680Y23831D02*
G01X15899Y23322D01*
G01X15971Y23177D01*
G01X16044Y23104D01*
G01X16117Y23068D01*
G01X16153Y23068D01*
G01X14626Y24086D02*
G01X14626Y23322D01*
G01X14880Y24086D02*
G01X14371Y24086D01*
G01X14131Y23613D02*
G01X13695Y23613D01*
G01X13695Y23686D01*
G01X13731Y23759D01*
G01X13768Y23795D01*
G01X13840Y23831D01*
G01X13949Y23831D01*
G01X14022Y23795D01*
G01X14095Y23722D01*
G01X14131Y23613D01*
G01X14131Y23540D01*
G01X14095Y23431D01*
G01X14022Y23359D01*
G01X13949Y23322D01*
G01X13840Y23322D01*
G01X13768Y23359D01*
G01X13695Y23431D01*
G01X13055Y23722D02*
G01X13091Y23795D01*
G01X13200Y23831D01*
G01X13309Y23831D01*
G01X13419Y23795D01*
G01X13455Y23722D01*
G01X13419Y23649D01*
G01X13346Y23613D01*
G01X13164Y23577D01*
G01X13091Y23540D01*
G01X13055Y23468D01*
G01X13055Y23431D01*
G01X13091Y23359D01*
G01X13200Y23322D01*
G01X13309Y23322D01*
G01X13419Y23359D01*
G01X13455Y23431D01*
G01X12706Y24086D02*
G01X12706Y23468D01*
G01X12669Y23359D01*
G01X12597Y23322D01*
G01X12524Y23322D01*
G01X12815Y23831D02*
G01X12560Y23831D01*
G01X12284Y23613D02*
G01X11848Y23613D01*
G01X11848Y23686D01*
G01X11884Y23759D01*
G01X11920Y23795D01*
G01X11993Y23831D01*
G01X12102Y23831D01*
G01X12175Y23795D01*
G01X12248Y23722D01*
G01X12284Y23613D01*
G01X12284Y23540D01*
G01X12248Y23431D01*
G01X12175Y23359D01*
G01X12102Y23322D01*
G01X11993Y23322D01*
G01X11920Y23359D01*
G01X11848Y23431D01*
G01X11608Y23831D02*
G01X11608Y23322D01*
G01X11608Y23613D02*
G01X11571Y23722D01*
G01X11499Y23795D01*
G01X11426Y23831D01*
G01X11317Y23831D01*
G01X10517Y24086D02*
G01X10226Y23322D01*
G01X9935Y24086D02*
G01X10226Y23322D01*
G01X9659Y23904D02*
G01X9659Y23940D01*
G01X9622Y24013D01*
G01X9586Y24049D01*
G01X9513Y24086D01*
G01X9368Y24086D01*
G01X9295Y24049D01*
G01X9259Y24013D01*
G01X9222Y23940D01*
G01X9222Y23868D01*
G01X9259Y23795D01*
G01X9331Y23686D01*
G01X9695Y23322D01*
G01X9186Y23322D01*
G01X8909Y23504D02*
G01X8946Y23468D01*
G01X8909Y23431D01*
G01X8873Y23468D01*
G01X8909Y23504D01*
G01X8415Y24086D02*
G01X8524Y24049D01*
G01X8597Y23940D01*
G01X8633Y23759D01*
G01X8633Y23649D01*
G01X8597Y23468D01*
G01X8524Y23359D01*
G01X8415Y23322D01*
G01X8342Y23322D01*
G01X8233Y23359D01*
G01X8160Y23468D01*
G01X8124Y23649D01*
G01X8124Y23759D01*
G01X8160Y23940D01*
G01X8233Y24049D01*
G01X8342Y24086D01*
G01X8415Y24086D01*
M00*
M02*
