G04 Layer: TopSilkLayer*
G04 EasyEDA v6.2.46, 2019-11-10T15:39:34+05:30*
G04 8ae749d232974c02949487af05e517e1,699dadb93aee4be8b9b8ad6142c81684,10*
G04 Gerber Generator version 0.2*
G04 Scale: 100 percent, Rotated: No, Reflected: No *
G04 Dimensions in inches *
G04 leading zeros omitted , absolute positions ,2 integer and 4 decimal *
%FSLAX24Y24*%
%MOIN*%
G90*
G70D02*

%ADD10C,0.010000*%
%ADD11C,0.008000*%
%ADD28C,0.007000*%
%ADD29C,0.015748*%
%ADD30C,0.006000*%
%ADD31C,0.005000*%

%LPD*%

%LPD*%
G36*
G01X33389Y5499D02*
G01X33386Y5500D01*
G01X33383Y5499D01*
G01X33380Y5496D01*
G01X33373Y5482D01*
G01X33370Y5472D01*
G01X33368Y5464D01*
G01X33365Y5453D01*
G01X33363Y5439D01*
G01X33360Y5423D01*
G01X33356Y5404D01*
G01X33353Y5383D01*
G01X33350Y5360D01*
G01X33347Y5335D01*
G01X33343Y5309D01*
G01X33339Y5282D01*
G01X33336Y5253D01*
G01X33332Y5224D01*
G01X33329Y5194D01*
G01X33325Y5163D01*
G01X33322Y5133D01*
G01X33318Y5102D01*
G01X33312Y5042D01*
G01X33309Y5013D01*
G01X33306Y4985D01*
G01X33304Y4958D01*
G01X33302Y4933D01*
G01X33300Y4909D01*
G01X33298Y4886D01*
G01X33297Y4866D01*
G01X33296Y4848D01*
G01X33295Y4833D01*
G01X33295Y4821D01*
G01X33296Y4792D01*
G01X33297Y4770D01*
G01X33302Y4754D01*
G01X33310Y4743D01*
G01X33322Y4736D01*
G01X33340Y4732D01*
G01X33364Y4730D01*
G01X33395Y4729D01*
G01X33444Y4729D01*
G01X33454Y4730D01*
G01X33462Y4732D01*
G01X33469Y4735D01*
G01X33475Y4739D01*
G01X33481Y4745D01*
G01X33485Y4752D01*
G01X33488Y4761D01*
G01X33490Y4772D01*
G01X33491Y4786D01*
G01X33491Y4802D01*
G01X33490Y4821D01*
G01X33489Y4842D01*
G01X33487Y4867D01*
G01X33484Y4896D01*
G01X33480Y4928D01*
G01X33476Y4964D01*
G01X33471Y5003D01*
G01X33465Y5048D01*
G01X33459Y5096D01*
G01X33452Y5150D01*
G01X33445Y5198D01*
G01X33439Y5243D01*
G01X33434Y5284D01*
G01X33428Y5321D01*
G01X33423Y5354D01*
G01X33418Y5383D01*
G01X33414Y5409D01*
G01X33410Y5431D01*
G01X33406Y5450D01*
G01X33399Y5478D01*
G01X33396Y5488D01*
G01X33392Y5495D01*
G01X33389Y5499D01*
G37*

%LPD*%
G36*
G01X33710Y5192D02*
G01X33707Y5193D01*
G01X33702Y5190D01*
G01X33697Y5181D01*
G01X33690Y5168D01*
G01X33682Y5149D01*
G01X33673Y5125D01*
G01X33661Y5095D01*
G01X33648Y5059D01*
G01X33631Y5011D01*
G01X33615Y4968D01*
G01X33602Y4930D01*
G01X33581Y4867D01*
G01X33574Y4842D01*
G01X33568Y4820D01*
G01X33564Y4801D01*
G01X33561Y4786D01*
G01X33561Y4761D01*
G01X33564Y4751D01*
G01X33567Y4744D01*
G01X33572Y4737D01*
G01X33579Y4731D01*
G01X33586Y4726D01*
G01X33606Y4715D01*
G01X33623Y4707D01*
G01X33638Y4703D01*
G01X33651Y4703D01*
G01X33663Y4708D01*
G01X33672Y4717D01*
G01X33681Y4731D01*
G01X33689Y4750D01*
G01X33695Y4774D01*
G01X33701Y4803D01*
G01X33706Y4839D01*
G01X33711Y4880D01*
G01X33714Y4905D01*
G01X33716Y4930D01*
G01X33718Y4956D01*
G01X33719Y4982D01*
G01X33721Y5007D01*
G01X33722Y5032D01*
G01X33723Y5055D01*
G01X33723Y5098D01*
G01X33722Y5116D01*
G01X33722Y5132D01*
G01X33721Y5145D01*
G01X33718Y5163D01*
G01X33716Y5177D01*
G01X33714Y5186D01*
G01X33710Y5192D01*
G37*

%LPD*%
G36*
G01X33046Y5215D02*
G01X33044Y5215D01*
G01X33042Y5210D01*
G01X33041Y5201D01*
G01X33040Y5188D01*
G01X33039Y5171D01*
G01X33039Y5151D01*
G01X33040Y5128D01*
G01X33040Y5102D01*
G01X33042Y5073D01*
G01X33043Y5042D01*
G01X33045Y5009D01*
G01X33048Y4975D01*
G01X33050Y4940D01*
G01X33056Y4874D01*
G01X33059Y4844D01*
G01X33062Y4816D01*
G01X33065Y4790D01*
G01X33068Y4767D01*
G01X33070Y4747D01*
G01X33073Y4731D01*
G01X33075Y4719D01*
G01X33077Y4710D01*
G01X33079Y4706D01*
G01X33089Y4703D01*
G01X33109Y4702D01*
G01X33134Y4705D01*
G01X33162Y4711D01*
G01X33232Y4729D01*
G01X33148Y4964D01*
G01X33136Y4996D01*
G01X33125Y5027D01*
G01X33114Y5057D01*
G01X33103Y5085D01*
G01X33093Y5111D01*
G01X33083Y5135D01*
G01X33075Y5156D01*
G01X33067Y5175D01*
G01X33060Y5190D01*
G01X33054Y5203D01*
G01X33050Y5211D01*
G01X33046Y5215D01*
G37*

%LPD*%
G36*
G01X34143Y5299D02*
G01X34134Y5303D01*
G01X34130Y5301D01*
G01X34125Y5297D01*
G01X34118Y5290D01*
G01X34109Y5279D01*
G01X34100Y5267D01*
G01X34088Y5252D01*
G01X34076Y5234D01*
G01X34063Y5215D01*
G01X34048Y5194D01*
G01X34033Y5171D01*
G01X34017Y5146D01*
G01X34001Y5120D01*
G01X33984Y5093D01*
G01X33966Y5064D01*
G01X33930Y5004D01*
G01X33912Y4973D01*
G01X33878Y4915D01*
G01X33862Y4887D01*
G01X33846Y4860D01*
G01X33832Y4835D01*
G01X33818Y4811D01*
G01X33806Y4789D01*
G01X33794Y4769D01*
G01X33784Y4751D01*
G01X33775Y4734D01*
G01X33768Y4721D01*
G01X33762Y4709D01*
G01X33757Y4701D01*
G01X33754Y4692D01*
G01X33761Y4684D01*
G01X33780Y4672D01*
G01X33808Y4657D01*
G01X33843Y4642D01*
G01X33859Y4636D01*
G01X33873Y4630D01*
G01X33886Y4626D01*
G01X33898Y4623D01*
G01X33909Y4621D01*
G01X33918Y4622D01*
G01X33928Y4624D01*
G01X33936Y4629D01*
G01X33945Y4636D01*
G01X33953Y4646D01*
G01X33960Y4659D01*
G01X33968Y4675D01*
G01X33977Y4694D01*
G01X33985Y4717D01*
G01X33994Y4744D01*
G01X34004Y4775D01*
G01X34014Y4810D01*
G01X34025Y4849D01*
G01X34037Y4893D01*
G01X34051Y4942D01*
G01X34061Y4978D01*
G01X34071Y5013D01*
G01X34081Y5047D01*
G01X34090Y5080D01*
G01X34099Y5111D01*
G01X34108Y5141D01*
G01X34115Y5168D01*
G01X34123Y5192D01*
G01X34129Y5213D01*
G01X34135Y5230D01*
G01X34139Y5244D01*
G01X34143Y5253D01*
G01X34148Y5272D01*
G01X34148Y5288D01*
G01X34143Y5299D01*
G37*

%LPD*%
G36*
G01X32660Y5272D02*
G01X32656Y5274D01*
G01X32647Y5270D01*
G01X32643Y5259D01*
G01X32642Y5244D01*
G01X32645Y5224D01*
G01X32647Y5217D01*
G01X32650Y5208D01*
G01X32653Y5196D01*
G01X32657Y5182D01*
G01X32663Y5165D01*
G01X32668Y5146D01*
G01X32674Y5125D01*
G01X32681Y5103D01*
G01X32688Y5078D01*
G01X32696Y5053D01*
G01X32712Y4999D01*
G01X32730Y4941D01*
G01X32748Y4881D01*
G01X32837Y4589D01*
G01X32930Y4628D01*
G01X32965Y4645D01*
G01X32995Y4663D01*
G01X33015Y4678D01*
G01X33022Y4691D01*
G01X33021Y4697D01*
G01X33018Y4707D01*
G01X33011Y4720D01*
G01X33004Y4736D01*
G01X32993Y4755D01*
G01X32982Y4776D01*
G01X32969Y4799D01*
G01X32939Y4851D01*
G01X32922Y4879D01*
G01X32904Y4908D01*
G01X32868Y4968D01*
G01X32830Y5028D01*
G01X32792Y5086D01*
G01X32774Y5114D01*
G01X32756Y5141D01*
G01X32740Y5166D01*
G01X32724Y5189D01*
G01X32709Y5210D01*
G01X32696Y5228D01*
G01X32684Y5244D01*
G01X32674Y5257D01*
G01X32666Y5266D01*
G01X32660Y5272D01*
G37*

%LPD*%
G36*
G01X34322Y4917D02*
G01X34318Y4917D01*
G01X34313Y4914D01*
G01X34304Y4908D01*
G01X34293Y4899D01*
G01X34279Y4888D01*
G01X34263Y4874D01*
G01X34246Y4859D01*
G01X34227Y4841D01*
G01X34207Y4822D01*
G01X34185Y4801D01*
G01X34163Y4779D01*
G01X34140Y4755D01*
G01X34102Y4717D01*
G01X34071Y4685D01*
G01X34046Y4658D01*
G01X34026Y4635D01*
G01X34011Y4616D01*
G01X34001Y4601D01*
G01X33996Y4588D01*
G01X33995Y4577D01*
G01X33997Y4568D01*
G01X34004Y4559D01*
G01X34013Y4550D01*
G01X34025Y4541D01*
G01X34048Y4525D01*
G01X34070Y4512D01*
G01X34088Y4503D01*
G01X34100Y4500D01*
G01X34105Y4503D01*
G01X34113Y4511D01*
G01X34122Y4524D01*
G01X34134Y4542D01*
G01X34147Y4563D01*
G01X34162Y4587D01*
G01X34177Y4613D01*
G01X34193Y4642D01*
G01X34210Y4672D01*
G01X34226Y4702D01*
G01X34242Y4733D01*
G01X34257Y4763D01*
G01X34272Y4792D01*
G01X34285Y4820D01*
G01X34297Y4845D01*
G01X34307Y4867D01*
G01X34315Y4886D01*
G01X34320Y4901D01*
G01X34322Y4912D01*
G01X34322Y4917D01*
G37*

%LPD*%
G36*
G01X32453Y4900D02*
G01X32445Y4901D01*
G01X32439Y4900D01*
G01X32435Y4894D01*
G01X32434Y4886D01*
G01X32437Y4875D01*
G01X32458Y4833D01*
G01X32473Y4807D01*
G01X32482Y4792D01*
G01X32494Y4771D01*
G01X32508Y4748D01*
G01X32523Y4722D01*
G01X32539Y4694D01*
G01X32573Y4636D01*
G01X32589Y4607D01*
G01X32612Y4567D01*
G01X32632Y4536D01*
G01X32648Y4514D01*
G01X32663Y4499D01*
G01X32677Y4491D01*
G01X32690Y4489D01*
G01X32706Y4492D01*
G01X32722Y4500D01*
G01X32737Y4509D01*
G01X32750Y4518D01*
G01X32760Y4527D01*
G01X32767Y4536D01*
G01X32772Y4546D01*
G01X32773Y4557D01*
G01X32772Y4569D01*
G01X32769Y4582D01*
G01X32762Y4597D01*
G01X32752Y4613D01*
G01X32739Y4630D01*
G01X32723Y4650D01*
G01X32704Y4672D01*
G01X32682Y4696D01*
G01X32656Y4723D01*
G01X32627Y4752D01*
G01X32594Y4784D01*
G01X32564Y4812D01*
G01X32538Y4836D01*
G01X32515Y4857D01*
G01X32496Y4873D01*
G01X32478Y4885D01*
G01X32464Y4894D01*
G01X32453Y4900D01*
G37*

%LPD*%
G36*
G01X34797Y4899D02*
G01X34796Y4900D01*
G01X34792Y4899D01*
G01X34785Y4896D01*
G01X34775Y4890D01*
G01X34763Y4883D01*
G01X34747Y4873D01*
G01X34730Y4863D01*
G01X34710Y4850D01*
G01X34665Y4820D01*
G01X34640Y4803D01*
G01X34614Y4785D01*
G01X34586Y4766D01*
G01X34557Y4746D01*
G01X34527Y4726D01*
G01X34496Y4704D01*
G01X34464Y4682D01*
G01X34157Y4464D01*
G01X34217Y4380D01*
G01X34242Y4348D01*
G01X34265Y4323D01*
G01X34285Y4308D01*
G01X34299Y4305D01*
G01X34303Y4307D01*
G01X34310Y4313D01*
G01X34345Y4348D01*
G01X34360Y4365D01*
G01X34377Y4383D01*
G01X34395Y4404D01*
G01X34415Y4426D01*
G01X34435Y4449D01*
G01X34457Y4474D01*
G01X34479Y4500D01*
G01X34502Y4526D01*
G01X34524Y4553D01*
G01X34547Y4580D01*
G01X34571Y4608D01*
G01X34593Y4636D01*
G01X34616Y4663D01*
G01X34638Y4690D01*
G01X34660Y4716D01*
G01X34680Y4741D01*
G01X34699Y4765D01*
G01X34718Y4788D01*
G01X34734Y4810D01*
G01X34749Y4829D01*
G01X34763Y4847D01*
G01X34774Y4863D01*
G01X34783Y4876D01*
G01X34790Y4886D01*
G01X34795Y4894D01*
G01X34797Y4899D01*
G37*

%LPD*%
G36*
G01X32084Y4814D02*
G01X32080Y4815D01*
G01X32073Y4814D01*
G01X32067Y4810D01*
G01X32063Y4805D01*
G01X32061Y4798D01*
G01X32067Y4786D01*
G01X32075Y4776D01*
G01X32084Y4763D01*
G01X32096Y4748D01*
G01X32110Y4730D01*
G01X32126Y4710D01*
G01X32143Y4689D01*
G01X32162Y4666D01*
G01X32182Y4642D01*
G01X32203Y4617D01*
G01X32225Y4592D01*
G01X32247Y4566D01*
G01X32293Y4514D01*
G01X32315Y4488D01*
G01X32337Y4463D01*
G01X32359Y4439D01*
G01X32380Y4415D01*
G01X32399Y4394D01*
G01X32418Y4374D01*
G01X32435Y4355D01*
G01X32450Y4339D01*
G01X32475Y4314D01*
G01X32484Y4306D01*
G01X32490Y4301D01*
G01X32494Y4299D01*
G01X32507Y4305D01*
G01X32528Y4321D01*
G01X32552Y4344D01*
G01X32578Y4371D01*
G01X32602Y4398D01*
G01X32621Y4423D01*
G01X32632Y4442D01*
G01X32633Y4452D01*
G01X32624Y4458D01*
G01X32613Y4467D01*
G01X32599Y4477D01*
G01X32583Y4488D01*
G01X32564Y4501D01*
G01X32543Y4515D01*
G01X32521Y4530D01*
G01X32497Y4546D01*
G01X32472Y4563D01*
G01X32447Y4581D01*
G01X32420Y4598D01*
G01X32393Y4617D01*
G01X32365Y4635D01*
G01X32338Y4653D01*
G01X32310Y4671D01*
G01X32284Y4688D01*
G01X32257Y4706D01*
G01X32232Y4722D01*
G01X32208Y4738D01*
G01X32185Y4752D01*
G01X32164Y4766D01*
G01X32144Y4778D01*
G01X32127Y4789D01*
G01X32112Y4798D01*
G01X32100Y4805D01*
G01X32090Y4811D01*
G01X32084Y4814D01*
G37*

%LPD*%
G36*
G01X34746Y4437D02*
G01X34736Y4437D01*
G01X34723Y4434D01*
G01X34705Y4428D01*
G01X34682Y4420D01*
G01X34654Y4409D01*
G01X34619Y4394D01*
G01X34578Y4377D01*
G01X34529Y4356D01*
G01X34492Y4339D01*
G01X34456Y4322D01*
G01X34424Y4306D01*
G01X34396Y4291D01*
G01X34372Y4278D01*
G01X34353Y4266D01*
G01X34341Y4257D01*
G01X34335Y4250D01*
G01X34335Y4236D01*
G01X34340Y4217D01*
G01X34350Y4196D01*
G01X34364Y4175D01*
G01X34372Y4164D01*
G01X34380Y4156D01*
G01X34388Y4151D01*
G01X34398Y4148D01*
G01X34409Y4149D01*
G01X34422Y4153D01*
G01X34438Y4160D01*
G01X34457Y4171D01*
G01X34481Y4186D01*
G01X34508Y4206D01*
G01X34541Y4229D01*
G01X34579Y4257D01*
G01X34615Y4285D01*
G01X34649Y4311D01*
G01X34679Y4336D01*
G01X34706Y4359D01*
G01X34727Y4379D01*
G01X34744Y4396D01*
G01X34755Y4409D01*
G01X34758Y4416D01*
G01X34757Y4425D01*
G01X34756Y4431D01*
G01X34752Y4435D01*
G01X34746Y4437D01*
G37*

%LPD*%
G36*
G01X32020Y4413D02*
G01X32015Y4413D01*
G01X32010Y4412D01*
G01X32007Y4407D01*
G01X32005Y4401D01*
G01X32005Y4392D01*
G01X32007Y4388D01*
G01X32014Y4380D01*
G01X32025Y4370D01*
G01X32039Y4357D01*
G01X32056Y4342D01*
G01X32076Y4326D01*
G01X32098Y4308D01*
G01X32121Y4289D01*
G01X32146Y4269D01*
G01X32172Y4250D01*
G01X32224Y4210D01*
G01X32250Y4191D01*
G01X32274Y4173D01*
G01X32297Y4156D01*
G01X32318Y4141D01*
G01X32338Y4128D01*
G01X32354Y4117D01*
G01X32367Y4109D01*
G01X32377Y4105D01*
G01X32387Y4107D01*
G01X32400Y4120D01*
G01X32414Y4141D01*
G01X32429Y4169D01*
G01X32439Y4192D01*
G01X32444Y4210D01*
G01X32445Y4225D01*
G01X32441Y4237D01*
G01X32430Y4249D01*
G01X32413Y4260D01*
G01X32388Y4273D01*
G01X32355Y4287D01*
G01X32332Y4297D01*
G01X32308Y4307D01*
G01X32282Y4317D01*
G01X32256Y4328D01*
G01X32228Y4338D01*
G01X32201Y4349D01*
G01X32174Y4359D01*
G01X32148Y4369D01*
G01X32123Y4378D01*
G01X32100Y4386D01*
G01X32078Y4394D01*
G01X32059Y4401D01*
G01X32043Y4406D01*
G01X32030Y4410D01*
G01X32020Y4413D01*
G37*

%LPD*%
G36*
G01X35114Y4209D02*
G01X35089Y4209D01*
G01X35072Y4207D01*
G01X35052Y4205D01*
G01X35029Y4202D01*
G01X35001Y4198D01*
G01X34969Y4192D01*
G01X34934Y4186D01*
G01X34893Y4178D01*
G01X34798Y4159D01*
G01X34744Y4148D01*
G01X34705Y4140D01*
G01X34667Y4132D01*
G01X34631Y4125D01*
G01X34598Y4117D01*
G01X34567Y4111D01*
G01X34538Y4105D01*
G01X34513Y4099D01*
G01X34491Y4094D01*
G01X34473Y4089D01*
G01X34460Y4086D01*
G01X34451Y4083D01*
G01X34447Y4082D01*
G01X34441Y4067D01*
G01X34441Y4043D01*
G01X34448Y4013D01*
G01X34458Y3981D01*
G01X34472Y3950D01*
G01X34487Y3923D01*
G01X34503Y3904D01*
G01X34517Y3897D01*
G01X34524Y3898D01*
G01X34534Y3901D01*
G01X34548Y3906D01*
G01X34565Y3913D01*
G01X34585Y3921D01*
G01X34608Y3930D01*
G01X34632Y3941D01*
G01X34659Y3953D01*
G01X34687Y3966D01*
G01X34716Y3980D01*
G01X34747Y3994D01*
G01X34778Y4009D01*
G01X34841Y4040D01*
G01X34873Y4055D01*
G01X34904Y4071D01*
G01X34934Y4086D01*
G01X34963Y4101D01*
G01X34991Y4115D01*
G01X35017Y4129D01*
G01X35042Y4142D01*
G01X35064Y4154D01*
G01X35083Y4165D01*
G01X35099Y4175D01*
G01X35113Y4183D01*
G01X35123Y4190D01*
G01X35129Y4195D01*
G01X35131Y4199D01*
G01X35130Y4203D01*
G01X35127Y4205D01*
G01X35122Y4208D01*
G01X35114Y4209D01*
G37*

%LPD*%
G36*
G01X31694Y4182D02*
G01X31682Y4182D01*
G01X31673Y4181D01*
G01X31667Y4180D01*
G01X31663Y4177D01*
G01X31660Y4174D01*
G01X31660Y4170D01*
G01X31661Y4167D01*
G01X31667Y4163D01*
G01X31676Y4158D01*
G01X31688Y4151D01*
G01X31703Y4143D01*
G01X31721Y4134D01*
G01X31740Y4123D01*
G01X31786Y4100D01*
G01X31811Y4087D01*
G01X31838Y4074D01*
G01X31866Y4060D01*
G01X31895Y4046D01*
G01X31925Y4032D01*
G01X31954Y4018D01*
G01X32014Y3990D01*
G01X32043Y3977D01*
G01X32072Y3963D01*
G01X32100Y3951D01*
G01X32126Y3939D01*
G01X32151Y3928D01*
G01X32175Y3917D01*
G01X32197Y3908D01*
G01X32216Y3900D01*
G01X32233Y3893D01*
G01X32247Y3888D01*
G01X32259Y3884D01*
G01X32283Y3880D01*
G01X32303Y3884D01*
G01X32317Y3896D01*
G01X32327Y3918D01*
G01X32334Y3941D01*
G01X32343Y3968D01*
G01X32352Y3993D01*
G01X32361Y4015D01*
G01X32363Y4023D01*
G01X32364Y4029D01*
G01X32363Y4036D01*
G01X32359Y4042D01*
G01X32353Y4048D01*
G01X32344Y4053D01*
G01X32332Y4059D01*
G01X32318Y4065D01*
G01X32299Y4071D01*
G01X32277Y4077D01*
G01X32251Y4083D01*
G01X32221Y4090D01*
G01X32186Y4097D01*
G01X32147Y4105D01*
G01X32103Y4114D01*
G01X32053Y4123D01*
G01X31992Y4134D01*
G01X31938Y4144D01*
G01X31889Y4153D01*
G01X31847Y4161D01*
G01X31810Y4167D01*
G01X31778Y4172D01*
G01X31751Y4176D01*
G01X31728Y4179D01*
G01X31709Y4181D01*
G01X31694Y4182D01*
G37*

%LPD*%
G36*
G01X34636Y3838D02*
G01X34594Y3838D01*
G01X34562Y3837D01*
G01X34538Y3834D01*
G01X34521Y3829D01*
G01X34510Y3820D01*
G01X34504Y3808D01*
G01X34501Y3791D01*
G01X34500Y3770D01*
G01X34502Y3742D01*
G01X34506Y3717D01*
G01X34513Y3698D01*
G01X34521Y3688D01*
G01X34527Y3686D01*
G01X34536Y3686D01*
G01X34549Y3687D01*
G01X34566Y3689D01*
G01X34585Y3692D01*
G01X34608Y3696D01*
G01X34634Y3701D01*
G01X34661Y3706D01*
G01X34690Y3712D01*
G01X34721Y3719D01*
G01X34754Y3726D01*
G01X34787Y3734D01*
G01X35031Y3794D01*
G01X34902Y3815D01*
G01X34883Y3817D01*
G01X34841Y3823D01*
G01X34818Y3826D01*
G01X34722Y3834D01*
G01X34699Y3835D01*
G01X34677Y3836D01*
G01X34656Y3837D01*
G01X34636Y3838D01*
G37*

%LPD*%
G36*
G01X32291Y3722D02*
G01X32291Y3811D01*
G01X32111Y3807D01*
G01X32086Y3807D01*
G01X32034Y3805D01*
G01X31981Y3801D01*
G01X31956Y3800D01*
G01X31931Y3797D01*
G01X31907Y3795D01*
G01X31885Y3793D01*
G01X31865Y3790D01*
G01X31847Y3788D01*
G01X31832Y3786D01*
G01X31811Y3782D01*
G01X31795Y3778D01*
G01X31784Y3775D01*
G01X31778Y3771D01*
G01X31779Y3767D01*
G01X31785Y3762D01*
G01X31798Y3757D01*
G01X31817Y3751D01*
G01X31844Y3744D01*
G01X31878Y3736D01*
G01X31921Y3727D01*
G01X31971Y3716D01*
G01X32004Y3709D01*
G01X32036Y3701D01*
G01X32067Y3694D01*
G01X32097Y3687D01*
G01X32126Y3681D01*
G01X32152Y3674D01*
G01X32176Y3669D01*
G01X32198Y3663D01*
G01X32216Y3658D01*
G01X32231Y3654D01*
G01X32243Y3651D01*
G01X32251Y3648D01*
G01X32269Y3646D01*
G01X32282Y3657D01*
G01X32289Y3682D01*
G01X32291Y3722D01*
G37*

%LPD*%
G36*
G01X32264Y3591D02*
G01X32252Y3591D01*
G01X32237Y3589D01*
G01X32216Y3586D01*
G01X32192Y3582D01*
G01X32164Y3576D01*
G01X32132Y3570D01*
G01X32098Y3563D01*
G01X32061Y3555D01*
G01X32022Y3546D01*
G01X31858Y3505D01*
G01X31819Y3494D01*
G01X31782Y3484D01*
G01X31748Y3475D01*
G01X31717Y3466D01*
G01X31689Y3457D01*
G01X31665Y3450D01*
G01X31644Y3443D01*
G01X31629Y3437D01*
G01X31618Y3433D01*
G01X31613Y3429D01*
G01X31612Y3427D01*
G01X31616Y3425D01*
G01X31622Y3423D01*
G01X31632Y3421D01*
G01X31646Y3420D01*
G01X31661Y3418D01*
G01X31680Y3417D01*
G01X31701Y3415D01*
G01X31725Y3414D01*
G01X31750Y3413D01*
G01X31778Y3412D01*
G01X31808Y3411D01*
G01X31839Y3410D01*
G01X31872Y3410D01*
G01X31906Y3409D01*
G01X32291Y3409D01*
G01X32291Y3494D01*
G01X32289Y3528D01*
G01X32285Y3557D01*
G01X32278Y3579D01*
G01X32269Y3590D01*
G01X32264Y3591D01*
G37*

%LPD*%
G36*
G01X32339Y3269D02*
G01X32305Y3344D01*
G01X32084Y3241D01*
G01X32026Y3212D01*
G01X31998Y3199D01*
G01X31972Y3185D01*
G01X31949Y3173D01*
G01X31928Y3161D01*
G01X31909Y3150D01*
G01X31893Y3140D01*
G01X31880Y3132D01*
G01X31870Y3125D01*
G01X31864Y3119D01*
G01X31862Y3115D01*
G01X31863Y3111D01*
G01X31868Y3108D01*
G01X31877Y3107D01*
G01X31889Y3105D01*
G01X31904Y3106D01*
G01X31922Y3107D01*
G01X31943Y3109D01*
G01X31967Y3111D01*
G01X31993Y3115D01*
G01X32022Y3119D01*
G01X32053Y3125D01*
G01X32086Y3131D01*
G01X32122Y3138D01*
G01X32159Y3146D01*
G01X32198Y3154D01*
G01X32238Y3163D01*
G01X32281Y3173D01*
G01X32314Y3182D01*
G01X32336Y3191D01*
G01X32350Y3200D01*
G01X32356Y3211D01*
G01X32355Y3226D01*
G01X32349Y3245D01*
G01X32339Y3269D01*
G37*

%LPD*%
G36*
G01X33396Y4665D02*
G01X33321Y4665D01*
G01X33296Y4663D01*
G01X33272Y4661D01*
G01X33247Y4659D01*
G01X33223Y4655D01*
G01X33200Y4651D01*
G01X33176Y4646D01*
G01X33156Y4642D01*
G01X33134Y4636D01*
G01X33112Y4629D01*
G01X33066Y4613D01*
G01X33043Y4604D01*
G01X33018Y4594D01*
G01X32994Y4583D01*
G01X32970Y4571D01*
G01X32945Y4559D01*
G01X32921Y4547D01*
G01X32897Y4534D01*
G01X32873Y4520D01*
G01X32849Y4507D01*
G01X32826Y4492D01*
G01X32803Y4478D01*
G01X32781Y4463D01*
G01X32760Y4448D01*
G01X32740Y4434D01*
G01X32720Y4419D01*
G01X32702Y4404D01*
G01X32685Y4389D01*
G01X32669Y4375D01*
G01X32654Y4360D01*
G01X32606Y4306D01*
G01X32590Y4287D01*
G01X32562Y4249D01*
G01X32548Y4229D01*
G01X32509Y4169D01*
G01X32497Y4148D01*
G01X32486Y4127D01*
G01X32475Y4105D01*
G01X32465Y4084D01*
G01X32445Y4040D01*
G01X32436Y4018D01*
G01X32428Y3996D01*
G01X32420Y3973D01*
G01X32412Y3951D01*
G01X32405Y3928D01*
G01X32387Y3859D01*
G01X32382Y3835D01*
G01X32378Y3812D01*
G01X32374Y3788D01*
G01X32370Y3765D01*
G01X32367Y3741D01*
G01X32365Y3717D01*
G01X32363Y3694D01*
G01X32361Y3670D01*
G01X32360Y3646D01*
G01X32360Y3575D01*
G01X32361Y3551D01*
G01X32365Y3503D01*
G01X32368Y3480D01*
G01X32371Y3456D01*
G01X32375Y3432D01*
G01X32379Y3409D01*
G01X32389Y3363D01*
G01X32395Y3339D01*
G01X32401Y3316D01*
G01X32408Y3294D01*
G01X32424Y3248D01*
G01X32432Y3226D01*
G01X32441Y3204D01*
G01X32461Y3160D01*
G01X32472Y3139D01*
G01X32483Y3117D01*
G01X32502Y3084D01*
G01X32519Y3054D01*
G01X32535Y3027D01*
G01X32550Y3004D01*
G01X32564Y2984D01*
G01X32578Y2967D01*
G01X32590Y2953D01*
G01X32602Y2943D01*
G01X32613Y2935D01*
G01X32623Y2931D01*
G01X32633Y2929D01*
G01X32642Y2930D01*
G01X32651Y2934D01*
G01X32659Y2942D01*
G01X32667Y2951D01*
G01X32675Y2963D01*
G01X32685Y2981D01*
G01X32709Y3017D01*
G01X32722Y3034D01*
G01X32735Y3052D01*
G01X32765Y3088D01*
G01X32781Y3105D01*
G01X32797Y3123D01*
G01X32814Y3140D01*
G01X32831Y3158D01*
G01X32850Y3175D01*
G01X32868Y3192D01*
G01X32888Y3209D01*
G01X32907Y3226D01*
G01X32927Y3242D01*
G01X32969Y3274D01*
G01X32991Y3290D01*
G01X33035Y3320D01*
G01X33057Y3334D01*
G01X33103Y3362D01*
G01X33126Y3375D01*
G01X33150Y3388D01*
G01X33173Y3401D01*
G01X33197Y3412D01*
G01X33218Y3422D01*
G01X33259Y3442D01*
G01X33301Y3459D01*
G01X33321Y3468D01*
G01X33342Y3476D01*
G01X33362Y3484D01*
G01X33383Y3492D01*
G01X33424Y3507D01*
G01X33444Y3514D01*
G01X33486Y3528D01*
G01X33507Y3534D01*
G01X33529Y3540D01*
G01X33550Y3546D01*
G01X33571Y3551D01*
G01X33593Y3557D01*
G01X33637Y3567D01*
G01X33660Y3572D01*
G01X33683Y3576D01*
G01X33706Y3581D01*
G01X33729Y3585D01*
G01X33777Y3593D01*
G01X33802Y3597D01*
G01X33827Y3600D01*
G01X33852Y3604D01*
G01X33904Y3610D01*
G01X33931Y3613D01*
G01X33959Y3615D01*
G01X33986Y3618D01*
G01X34015Y3621D01*
G01X34073Y3625D01*
G01X34103Y3627D01*
G01X34134Y3629D01*
G01X34443Y3648D01*
G01X34443Y3724D01*
G01X34441Y3762D01*
G01X34439Y3782D01*
G01X34436Y3801D01*
G01X34428Y3843D01*
G01X34423Y3864D01*
G01X34417Y3885D01*
G01X34403Y3929D01*
G01X34395Y3951D01*
G01X34386Y3973D01*
G01X34377Y3996D01*
G01X34357Y4040D01*
G01X34346Y4063D01*
G01X34335Y4085D01*
G01X34322Y4107D01*
G01X34310Y4130D01*
G01X34297Y4152D01*
G01X34283Y4174D01*
G01X34269Y4195D01*
G01X34255Y4217D01*
G01X34225Y4259D01*
G01X34193Y4299D01*
G01X34177Y4318D01*
G01X34160Y4337D01*
G01X34126Y4373D01*
G01X34109Y4390D01*
G01X34092Y4406D01*
G01X34056Y4436D01*
G01X34037Y4451D01*
G01X34018Y4465D01*
G01X33998Y4479D01*
G01X33956Y4505D01*
G01X33935Y4517D01*
G01X33913Y4529D01*
G01X33891Y4540D01*
G01X33845Y4562D01*
G01X33822Y4572D01*
G01X33798Y4582D01*
G01X33750Y4600D01*
G01X33726Y4608D01*
G01X33701Y4615D01*
G01X33676Y4623D01*
G01X33626Y4635D01*
G01X33600Y4641D01*
G01X33575Y4646D01*
G01X33549Y4650D01*
G01X33524Y4654D01*
G01X33472Y4660D01*
G01X33447Y4663D01*
G01X33422Y4664D01*
G01X33396Y4665D01*
G37*

%LPD*%
G36*
G01X32387Y3142D02*
G01X32377Y3149D01*
G01X32374Y3147D01*
G01X32368Y3144D01*
G01X32360Y3138D01*
G01X32349Y3130D01*
G01X32336Y3121D01*
G01X32321Y3110D01*
G01X32303Y3097D01*
G01X32285Y3083D01*
G01X32264Y3067D01*
G01X32241Y3050D01*
G01X32217Y3032D01*
G01X32192Y3012D01*
G01X32166Y2992D01*
G01X32139Y2971D01*
G01X32111Y2949D01*
G01X32082Y2927D01*
G01X32054Y2904D01*
G01X32027Y2882D01*
G01X32000Y2861D01*
G01X31952Y2821D01*
G01X31930Y2803D01*
G01X31910Y2785D01*
G01X31892Y2769D01*
G01X31876Y2754D01*
G01X31861Y2741D01*
G01X31850Y2729D01*
G01X31840Y2719D01*
G01X31833Y2711D01*
G01X31828Y2705D01*
G01X31827Y2700D01*
G01X31828Y2698D01*
G01X31832Y2698D01*
G01X31840Y2701D01*
G01X31852Y2704D01*
G01X31868Y2709D01*
G01X31886Y2716D01*
G01X31908Y2724D01*
G01X31932Y2733D01*
G01X31958Y2743D01*
G01X31986Y2753D01*
G01X32016Y2765D01*
G01X32047Y2778D01*
G01X32113Y2803D01*
G01X32146Y2817D01*
G01X32179Y2830D01*
G01X32213Y2844D01*
G01X32245Y2858D01*
G01X32277Y2871D01*
G01X32308Y2884D01*
G01X32337Y2897D01*
G01X32365Y2909D01*
G01X32391Y2920D01*
G01X32414Y2930D01*
G01X32435Y2940D01*
G01X32453Y2948D01*
G01X32467Y2955D01*
G01X32478Y2961D01*
G01X32485Y2966D01*
G01X32485Y2976D01*
G01X32476Y2998D01*
G01X32461Y3028D01*
G01X32442Y3061D01*
G01X32422Y3094D01*
G01X32402Y3123D01*
G01X32387Y3142D01*
G37*

%LPD*%
G36*
G01X32532Y2919D02*
G01X32520Y2922D01*
G01X32516Y2920D01*
G01X32510Y2915D01*
G01X32501Y2907D01*
G01X32490Y2896D01*
G01X32477Y2882D01*
G01X32462Y2867D01*
G01X32446Y2849D01*
G01X32429Y2829D01*
G01X32410Y2807D01*
G01X32390Y2784D01*
G01X32350Y2734D01*
G01X32329Y2709D01*
G01X32310Y2684D01*
G01X32292Y2660D01*
G01X32275Y2638D01*
G01X32259Y2617D01*
G01X32246Y2598D01*
G01X32234Y2581D01*
G01X32225Y2566D01*
G01X32217Y2553D01*
G01X32212Y2544D01*
G01X32210Y2537D01*
G01X32210Y2534D01*
G01X32216Y2533D01*
G01X32227Y2536D01*
G01X32241Y2542D01*
G01X32260Y2552D01*
G01X32281Y2564D01*
G01X32305Y2579D01*
G01X32331Y2596D01*
G01X32359Y2615D01*
G01X32388Y2634D01*
G01X32416Y2655D01*
G01X32445Y2676D01*
G01X32473Y2697D01*
G01X32500Y2717D01*
G01X32525Y2737D01*
G01X32547Y2756D01*
G01X32567Y2773D01*
G01X32584Y2789D01*
G01X32596Y2802D01*
G01X32604Y2812D01*
G01X32606Y2819D01*
G01X32604Y2834D01*
G01X32597Y2850D01*
G01X32587Y2867D01*
G01X32574Y2884D01*
G01X32560Y2899D01*
G01X32546Y2911D01*
G01X32532Y2919D01*
G37*

%LPD*%
G36*
G01X34322Y3545D02*
G01X34139Y3545D01*
G01X34111Y3544D01*
G01X34085Y3544D01*
G01X34060Y3543D01*
G01X34037Y3543D01*
G01X34015Y3542D01*
G01X33977Y3540D01*
G01X33961Y3539D01*
G01X33947Y3538D01*
G01X33936Y3537D01*
G01X33926Y3535D01*
G01X33892Y3529D01*
G01X33826Y3517D01*
G01X33762Y3503D01*
G01X33731Y3496D01*
G01X33701Y3490D01*
G01X33671Y3482D01*
G01X33641Y3475D01*
G01X33612Y3468D01*
G01X33584Y3461D01*
G01X33528Y3445D01*
G01X33501Y3437D01*
G01X33449Y3421D01*
G01X33423Y3412D01*
G01X33398Y3403D01*
G01X33374Y3394D01*
G01X33350Y3386D01*
G01X33326Y3376D01*
G01X33303Y3367D01*
G01X33280Y3357D01*
G01X33258Y3348D01*
G01X33236Y3338D01*
G01X33215Y3328D01*
G01X33194Y3317D01*
G01X33174Y3307D01*
G01X33134Y3285D01*
G01X33096Y3263D01*
G01X33078Y3251D01*
G01X33060Y3240D01*
G01X33042Y3228D01*
G01X33025Y3215D01*
G01X33008Y3203D01*
G01X32960Y3164D01*
G01X32930Y3138D01*
G01X32915Y3124D01*
G01X32901Y3110D01*
G01X32888Y3095D01*
G01X32874Y3081D01*
G01X32835Y3036D01*
G01X32823Y3020D01*
G01X32811Y3005D01*
G01X32800Y2988D01*
G01X32778Y2956D01*
G01X32767Y2939D01*
G01X32747Y2905D01*
G01X32738Y2886D01*
G01X32718Y2842D01*
G01X32700Y2792D01*
G01X32690Y2765D01*
G01X32681Y2738D01*
G01X32665Y2682D01*
G01X32657Y2655D01*
G01X32650Y2627D01*
G01X32644Y2600D01*
G01X32638Y2574D01*
G01X32634Y2549D01*
G01X32630Y2525D01*
G01X32627Y2503D01*
G01X32624Y2482D01*
G01X32623Y2464D01*
G01X32623Y2448D01*
G01X32626Y2401D01*
G01X32628Y2362D01*
G01X32630Y2331D01*
G01X32632Y2307D01*
G01X32636Y2290D01*
G01X32641Y2280D01*
G01X32648Y2275D01*
G01X32657Y2275D01*
G01X32669Y2278D01*
G01X32685Y2286D01*
G01X32704Y2297D01*
G01X32727Y2311D01*
G01X32747Y2322D01*
G01X32770Y2336D01*
G01X32795Y2350D01*
G01X32820Y2365D01*
G01X32846Y2381D01*
G01X32870Y2396D01*
G01X32893Y2411D01*
G01X32914Y2425D01*
G01X32934Y2438D01*
G01X32974Y2462D01*
G01X32992Y2473D01*
G01X33009Y2483D01*
G01X33024Y2491D01*
G01X33036Y2497D01*
G01X33045Y2501D01*
G01X33060Y2509D01*
G01X33065Y2518D01*
G01X33060Y2528D01*
G01X33045Y2540D01*
G01X33042Y2544D01*
G01X33042Y2549D01*
G01X33044Y2554D01*
G01X33049Y2561D01*
G01X33056Y2569D01*
G01X33066Y2577D01*
G01X33079Y2587D01*
G01X33094Y2598D01*
G01X33112Y2609D01*
G01X33133Y2622D01*
G01X33156Y2636D01*
G01X33182Y2651D01*
G01X33210Y2667D01*
G01X33241Y2684D01*
G01X33275Y2702D01*
G01X33311Y2721D01*
G01X33343Y2737D01*
G01X33373Y2753D01*
G01X33402Y2769D01*
G01X33429Y2784D01*
G01X33455Y2800D01*
G01X33479Y2814D01*
G01X33502Y2828D01*
G01X33522Y2841D01*
G01X33540Y2853D01*
G01X33556Y2865D01*
G01X33570Y2875D01*
G01X33581Y2884D01*
G01X33590Y2892D01*
G01X33596Y2899D01*
G01X33599Y2905D01*
G01X33600Y2909D01*
G01X33600Y2913D01*
G01X33605Y2918D01*
G01X33613Y2924D01*
G01X33625Y2932D01*
G01X33639Y2940D01*
G01X33656Y2950D01*
G01X33677Y2960D01*
G01X33723Y2983D01*
G01X33749Y2995D01*
G01X33777Y3008D01*
G01X33806Y3021D01*
G01X33836Y3035D01*
G01X33867Y3048D01*
G01X33898Y3062D01*
G01X33963Y3089D01*
G01X33994Y3102D01*
G01X34026Y3115D01*
G01X34057Y3127D01*
G01X34087Y3138D01*
G01X34116Y3149D01*
G01X34143Y3159D01*
G01X34169Y3169D01*
G01X34193Y3177D01*
G01X34215Y3184D01*
G01X34235Y3190D01*
G01X34252Y3195D01*
G01X34267Y3198D01*
G01X34278Y3200D01*
G01X34285Y3200D01*
G01X34290Y3199D01*
G01X34289Y3194D01*
G01X34282Y3186D01*
G01X34269Y3174D01*
G01X34252Y3160D01*
G01X34230Y3143D01*
G01X34204Y3124D01*
G01X34175Y3104D01*
G01X34144Y3082D01*
G01X34102Y3055D01*
G01X34066Y3030D01*
G01X34036Y3007D01*
G01X34011Y2988D01*
G01X33992Y2972D01*
G01X33979Y2958D01*
G01X33970Y2946D01*
G01X33967Y2937D01*
G01X33968Y2930D01*
G01X33975Y2926D01*
G01X33986Y2923D01*
G01X34002Y2922D01*
G01X34029Y2921D01*
G01X34036Y2915D01*
G01X34026Y2904D01*
G01X33997Y2883D01*
G01X33984Y2874D01*
G01X33969Y2865D01*
G01X33952Y2854D01*
G01X33933Y2842D01*
G01X33913Y2830D01*
G01X33891Y2817D01*
G01X33868Y2803D01*
G01X33843Y2789D01*
G01X33793Y2759D01*
G01X33766Y2745D01*
G01X33714Y2715D01*
G01X33688Y2701D01*
G01X33663Y2687D01*
G01X33638Y2674D01*
G01X33614Y2661D01*
G01X33591Y2649D01*
G01X33569Y2638D01*
G01X33550Y2627D01*
G01X33531Y2618D01*
G01X33501Y2603D01*
G01X33489Y2598D01*
G01X33461Y2585D01*
G01X33439Y2571D01*
G01X33423Y2559D01*
G01X33413Y2546D01*
G01X33410Y2536D01*
G01X33414Y2528D01*
G01X33425Y2522D01*
G01X33444Y2520D01*
G01X33456Y2519D01*
G01X33463Y2518D01*
G01X33467Y2515D01*
G01X33467Y2510D01*
G01X33464Y2505D01*
G01X33457Y2499D01*
G01X33447Y2492D01*
G01X33434Y2483D01*
G01X33418Y2474D01*
G01X33398Y2465D01*
G01X33376Y2454D01*
G01X33351Y2442D01*
G01X33323Y2430D01*
G01X33292Y2418D01*
G01X33259Y2405D01*
G01X33223Y2391D01*
G01X33127Y2355D01*
G01X33028Y2319D01*
G01X32963Y2294D01*
G01X32931Y2282D01*
G01X32899Y2271D01*
G01X32867Y2259D01*
G01X32836Y2248D01*
G01X32806Y2236D01*
G01X32746Y2214D01*
G01X32690Y2194D01*
G01X32663Y2184D01*
G01X32638Y2175D01*
G01X32613Y2165D01*
G01X32589Y2157D01*
G01X32567Y2149D01*
G01X32546Y2141D01*
G01X32526Y2134D01*
G01X32508Y2128D01*
G01X32491Y2121D01*
G01X32476Y2116D01*
G01X32463Y2111D01*
G01X32451Y2107D01*
G01X32441Y2104D01*
G01X32433Y2101D01*
G01X32427Y2099D01*
G01X32408Y2092D01*
G01X32393Y2086D01*
G01X32383Y2080D01*
G01X32377Y2075D01*
G01X32375Y2070D01*
G01X32377Y2066D01*
G01X32384Y2062D01*
G01X32395Y2059D01*
G01X32409Y2057D01*
G01X32428Y2055D01*
G01X32450Y2053D01*
G01X32477Y2052D01*
G01X32540Y2052D01*
G01X32577Y2053D01*
G01X32618Y2055D01*
G01X32648Y2057D01*
G01X32678Y2057D01*
G01X32707Y2058D01*
G01X32735Y2058D01*
G01X32762Y2057D01*
G01X32814Y2055D01*
G01X32839Y2053D01*
G01X32863Y2051D01*
G01X32909Y2045D01*
G01X32953Y2037D01*
G01X32975Y2032D01*
G01X32996Y2027D01*
G01X33017Y2021D01*
G01X33039Y2015D01*
G01X33089Y2003D01*
G01X33115Y1998D01*
G01X33143Y1993D01*
G01X33170Y1988D01*
G01X33197Y1985D01*
G01X33223Y1981D01*
G01X33273Y1977D01*
G01X33295Y1976D01*
G01X33316Y1975D01*
G01X33336Y1975D01*
G01X33357Y1976D01*
G01X33423Y1982D01*
G01X33445Y1985D01*
G01X33468Y1988D01*
G01X33490Y1992D01*
G01X33559Y2007D01*
G01X33582Y2013D01*
G01X33606Y2020D01*
G01X33629Y2026D01*
G01X33652Y2034D01*
G01X33676Y2041D01*
G01X33699Y2050D01*
G01X33722Y2058D01*
G01X33746Y2067D01*
G01X33769Y2076D01*
G01X33792Y2086D01*
G01X33814Y2095D01*
G01X33837Y2106D01*
G01X33860Y2116D01*
G01X33904Y2138D01*
G01X33925Y2150D01*
G01X33947Y2162D01*
G01X33968Y2174D01*
G01X33988Y2186D01*
G01X34009Y2199D01*
G01X34028Y2212D01*
G01X34048Y2225D01*
G01X34067Y2238D01*
G01X34085Y2252D01*
G01X34103Y2265D01*
G01X34120Y2280D01*
G01X34137Y2294D01*
G01X34153Y2308D01*
G01X34169Y2323D01*
G01X34193Y2345D01*
G01X34215Y2365D01*
G01X34237Y2384D01*
G01X34256Y2401D01*
G01X34274Y2415D01*
G01X34288Y2425D01*
G01X34298Y2432D01*
G01X34305Y2434D01*
G01X34309Y2435D01*
G01X34314Y2439D01*
G01X34321Y2444D01*
G01X34329Y2453D01*
G01X34338Y2462D01*
G01X34349Y2474D01*
G01X34360Y2488D01*
G01X34373Y2503D01*
G01X34387Y2520D01*
G01X34402Y2538D01*
G01X34417Y2557D01*
G01X34433Y2578D01*
G01X34467Y2622D01*
G01X34484Y2645D01*
G01X34502Y2669D01*
G01X34520Y2694D01*
G01X34539Y2719D01*
G01X34557Y2744D01*
G01X34593Y2796D01*
G01X34611Y2821D01*
G01X34629Y2847D01*
G01X34647Y2872D01*
G01X34664Y2897D01*
G01X34696Y2945D01*
G01X34711Y2968D01*
G01X34725Y2990D01*
G01X34738Y3012D01*
G01X34751Y3032D01*
G01X34762Y3051D01*
G01X34786Y3093D01*
G01X34810Y3134D01*
G01X34831Y3172D01*
G01X34852Y3208D01*
G01X34871Y3242D01*
G01X34888Y3275D01*
G01X34904Y3305D01*
G01X34931Y3359D01*
G01X34942Y3383D01*
G01X34952Y3405D01*
G01X34961Y3425D01*
G01X34968Y3443D01*
G01X34973Y3459D01*
G01X34977Y3473D01*
G01X34980Y3486D01*
G01X34982Y3496D01*
G01X34981Y3505D01*
G01X34980Y3511D01*
G01X34977Y3515D01*
G01X34974Y3517D01*
G01X34968Y3519D01*
G01X34960Y3520D01*
G01X34950Y3522D01*
G01X34937Y3523D01*
G01X34922Y3525D01*
G01X34906Y3526D01*
G01X34886Y3528D01*
G01X34866Y3529D01*
G01X34844Y3531D01*
G01X34820Y3532D01*
G01X34768Y3534D01*
G01X34740Y3536D01*
G01X34711Y3537D01*
G01X34651Y3539D01*
G01X34619Y3540D01*
G01X34587Y3540D01*
G01X34555Y3541D01*
G01X34522Y3542D01*
G01X34488Y3543D01*
G01X34455Y3543D01*
G01X34422Y3544D01*
G01X34355Y3544D01*
G01X34322Y3545D01*
G37*

%LPD*%
G36*
G01X35976Y1540D02*
G01X35945Y1540D01*
G01X35906Y1538D01*
G01X35877Y1537D01*
G01X35850Y1534D01*
G01X35825Y1531D01*
G01X35803Y1528D01*
G01X35784Y1523D01*
G01X35769Y1519D01*
G01X35760Y1515D01*
G01X35755Y1510D01*
G01X35752Y1498D01*
G01X35751Y1481D01*
G01X35750Y1459D01*
G01X35751Y1435D01*
G01X35752Y1409D01*
G01X35753Y1380D01*
G01X35756Y1351D01*
G01X35759Y1321D01*
G01X35763Y1292D01*
G01X35766Y1265D01*
G01X35771Y1240D01*
G01X35775Y1217D01*
G01X35780Y1198D01*
G01X35784Y1184D01*
G01X35789Y1175D01*
G01X35793Y1172D01*
G01X35804Y1182D01*
G01X35812Y1209D01*
G01X35818Y1250D01*
G01X35819Y1300D01*
G01X35821Y1334D01*
G01X35825Y1364D01*
G01X35831Y1391D01*
G01X35841Y1415D01*
G01X35852Y1435D01*
G01X35866Y1452D01*
G01X35882Y1465D01*
G01X35900Y1474D01*
G01X35921Y1480D01*
G01X35943Y1482D01*
G01X35967Y1479D01*
G01X35993Y1473D01*
G01X36018Y1467D01*
G01X36036Y1470D01*
G01X36046Y1480D01*
G01X36049Y1500D01*
G01X36047Y1512D01*
G01X36043Y1521D01*
G01X36034Y1529D01*
G01X36020Y1534D01*
G01X36001Y1538D01*
G01X35976Y1540D01*
G37*

%LPD*%
G36*
G01X35513Y1547D02*
G01X35489Y1548D01*
G01X35466Y1546D01*
G01X35443Y1542D01*
G01X35422Y1536D01*
G01X35401Y1528D01*
G01X35381Y1517D01*
G01X35364Y1505D01*
G01X35349Y1490D01*
G01X35336Y1475D01*
G01X35318Y1443D01*
G01X35308Y1409D01*
G01X35306Y1391D01*
G01X35305Y1373D01*
G01X35306Y1355D01*
G01X35308Y1337D01*
G01X35312Y1319D01*
G01X35317Y1301D01*
G01X35324Y1284D01*
G01X35332Y1267D01*
G01X35341Y1251D01*
G01X35351Y1236D01*
G01X35362Y1222D01*
G01X35375Y1208D01*
G01X35388Y1196D01*
G01X35402Y1185D01*
G01X35416Y1175D01*
G01X35431Y1167D01*
G01X35447Y1160D01*
G01X35464Y1155D01*
G01X35481Y1151D01*
G01X35498Y1150D01*
G01X35516Y1151D01*
G01X35534Y1154D01*
G01X35552Y1159D01*
G01X35581Y1170D01*
G01X35604Y1182D01*
G01X35622Y1193D01*
G01X35633Y1204D01*
G01X35639Y1214D01*
G01X35640Y1223D01*
G01X35635Y1232D01*
G01X35625Y1238D01*
G01X35609Y1244D01*
G01X35588Y1248D01*
G01X35562Y1250D01*
G01X35531Y1249D01*
G01X35504Y1248D01*
G01X35479Y1249D01*
G01X35457Y1251D01*
G01X35439Y1255D01*
G01X35423Y1259D01*
G01X35411Y1265D01*
G01X35402Y1271D01*
G01X35397Y1279D01*
G01X35396Y1288D01*
G01X35400Y1296D01*
G01X35408Y1302D01*
G01X35421Y1307D01*
G01X35440Y1311D01*
G01X35465Y1313D01*
G01X35495Y1315D01*
G01X35531Y1315D01*
G01X35561Y1316D01*
G01X35589Y1317D01*
G01X35613Y1320D01*
G01X35634Y1324D01*
G01X35652Y1329D01*
G01X35667Y1336D01*
G01X35679Y1343D01*
G01X35689Y1352D01*
G01X35696Y1362D01*
G01X35699Y1373D01*
G01X35700Y1386D01*
G01X35698Y1401D01*
G01X35694Y1417D01*
G01X35687Y1434D01*
G01X35677Y1453D01*
G01X35664Y1473D01*
G01X35652Y1489D01*
G01X35637Y1503D01*
G01X35619Y1516D01*
G01X35600Y1526D01*
G01X35580Y1534D01*
G01X35558Y1541D01*
G01X35535Y1545D01*
G01X35513Y1547D01*
G37*

%LPC*%
G36*
G01X35525Y1485D02*
G01X35504Y1487D01*
G01X35485Y1485D01*
G01X35465Y1478D01*
G01X35446Y1468D01*
G01X35428Y1456D01*
G01X35413Y1441D01*
G01X35400Y1426D01*
G01X35392Y1410D01*
G01X35389Y1394D01*
G01X35398Y1386D01*
G01X35423Y1379D01*
G01X35460Y1376D01*
G01X35504Y1377D01*
G01X35545Y1380D01*
G01X35576Y1384D01*
G01X35597Y1390D01*
G01X35610Y1397D01*
G01X35615Y1407D01*
G01X35612Y1419D01*
G01X35602Y1434D01*
G01X35584Y1453D01*
G01X35567Y1466D01*
G01X35547Y1477D01*
G01X35525Y1485D01*
G37*

%LPD*%
G36*
G01X33110Y1551D02*
G01X33087Y1552D01*
G01X33065Y1550D01*
G01X33035Y1543D01*
G01X33003Y1533D01*
G01X32976Y1521D01*
G01X32955Y1507D01*
G01X32938Y1492D01*
G01X32924Y1476D01*
G01X32913Y1459D01*
G01X32903Y1442D01*
G01X32896Y1424D01*
G01X32890Y1405D01*
G01X32887Y1386D01*
G01X32886Y1367D01*
G01X32886Y1348D01*
G01X32888Y1329D01*
G01X32892Y1310D01*
G01X32898Y1292D01*
G01X32905Y1274D01*
G01X32913Y1257D01*
G01X32923Y1240D01*
G01X32934Y1225D01*
G01X32946Y1210D01*
G01X32960Y1197D01*
G01X32975Y1185D01*
G01X32990Y1174D01*
G01X33007Y1165D01*
G01X33024Y1158D01*
G01X33043Y1153D01*
G01X33061Y1150D01*
G01X33081Y1148D01*
G01X33101Y1150D01*
G01X33122Y1153D01*
G01X33143Y1159D01*
G01X33172Y1171D01*
G01X33196Y1183D01*
G01X33214Y1194D01*
G01X33226Y1206D01*
G01X33232Y1216D01*
G01X33232Y1226D01*
G01X33228Y1235D01*
G01X33217Y1242D01*
G01X33201Y1247D01*
G01X33180Y1251D01*
G01X33153Y1253D01*
G01X33121Y1251D01*
G01X33094Y1250D01*
G01X33069Y1251D01*
G01X33047Y1252D01*
G01X33028Y1255D01*
G01X33013Y1259D01*
G01X33001Y1265D01*
G01X32992Y1271D01*
G01X32987Y1279D01*
G01X32986Y1288D01*
G01X32989Y1296D01*
G01X32998Y1302D01*
G01X33011Y1307D01*
G01X33030Y1311D01*
G01X33054Y1313D01*
G01X33083Y1315D01*
G01X33119Y1315D01*
G01X33155Y1316D01*
G01X33186Y1317D01*
G01X33213Y1321D01*
G01X33235Y1325D01*
G01X33254Y1331D01*
G01X33268Y1339D01*
G01X33279Y1348D01*
G01X33286Y1360D01*
G01X33289Y1373D01*
G01X33289Y1389D01*
G01X33287Y1407D01*
G01X33281Y1428D01*
G01X33274Y1446D01*
G01X33263Y1464D01*
G01X33250Y1480D01*
G01X33234Y1496D01*
G01X33216Y1510D01*
G01X33197Y1522D01*
G01X33176Y1532D01*
G01X33154Y1541D01*
G01X33132Y1547D01*
G01X33110Y1551D01*
G37*

%LPC*%
G36*
G01X33071Y1481D02*
G01X33052Y1481D01*
G01X33035Y1478D01*
G01X33019Y1473D01*
G01X33006Y1465D01*
G01X32995Y1456D01*
G01X32986Y1444D01*
G01X32981Y1430D01*
G01X32979Y1415D01*
G01X32986Y1397D01*
G01X33007Y1386D01*
G01X33043Y1380D01*
G01X33094Y1380D01*
G01X33123Y1382D01*
G01X33148Y1384D01*
G01X33168Y1388D01*
G01X33184Y1392D01*
G01X33196Y1398D01*
G01X33203Y1403D01*
G01X33206Y1411D01*
G01X33204Y1418D01*
G01X33198Y1427D01*
G01X33188Y1436D01*
G01X33173Y1446D01*
G01X33153Y1458D01*
G01X33132Y1467D01*
G01X33111Y1475D01*
G01X33090Y1479D01*
G01X33071Y1481D01*
G37*

%LPD*%
G36*
G01X34614Y1717D02*
G01X34412Y1717D01*
G01X34428Y1157D01*
G01X34622Y1149D01*
G01X34661Y1148D01*
G01X34697Y1148D01*
G01X34730Y1149D01*
G01X34759Y1151D01*
G01X34782Y1154D01*
G01X34800Y1157D01*
G01X34811Y1162D01*
G01X34815Y1167D01*
G01X34813Y1176D01*
G01X34805Y1184D01*
G01X34792Y1192D01*
G01X34776Y1198D01*
G01X34756Y1204D01*
G01X34734Y1209D01*
G01X34709Y1212D01*
G01X34683Y1215D01*
G01X34630Y1215D01*
G01X34604Y1213D01*
G01X34579Y1209D01*
G01X34554Y1204D01*
G01X34535Y1203D01*
G01X34521Y1205D01*
G01X34511Y1212D01*
G01X34505Y1225D01*
G01X34502Y1246D01*
G01X34500Y1274D01*
G01X34500Y1430D01*
G01X34613Y1430D01*
G01X34658Y1432D01*
G01X34698Y1438D01*
G01X34728Y1448D01*
G01X34744Y1459D01*
G01X34742Y1471D01*
G01X34721Y1480D01*
G01X34684Y1485D01*
G01X34631Y1487D01*
G01X34589Y1488D01*
G01X34557Y1489D01*
G01X34534Y1493D01*
G01X34518Y1499D01*
G01X34508Y1510D01*
G01X34502Y1525D01*
G01X34500Y1546D01*
G01X34500Y1601D01*
G01X34502Y1623D01*
G01X34509Y1638D01*
G01X34520Y1648D01*
G01X34539Y1655D01*
G01X34567Y1658D01*
G01X34606Y1659D01*
G01X34658Y1659D01*
G01X34689Y1660D01*
G01X34719Y1662D01*
G01X34746Y1664D01*
G01X34769Y1668D01*
G01X34788Y1672D01*
G01X34803Y1677D01*
G01X34812Y1682D01*
G01X34815Y1688D01*
G01X34811Y1694D01*
G01X34800Y1700D01*
G01X34782Y1705D01*
G01X34758Y1709D01*
G01X34728Y1712D01*
G01X34694Y1715D01*
G01X34655Y1716D01*
G01X34614Y1717D01*
G37*

%LPD*%
G36*
G01X30161Y1716D02*
G01X30139Y1717D01*
G01X30106Y1716D01*
G01X30077Y1713D01*
G01X30051Y1708D01*
G01X30027Y1700D01*
G01X30005Y1688D01*
G01X29982Y1674D01*
G01X29960Y1655D01*
G01X29936Y1633D01*
G01X29918Y1614D01*
G01X29902Y1594D01*
G01X29889Y1575D01*
G01X29877Y1555D01*
G01X29867Y1534D01*
G01X29859Y1514D01*
G01X29853Y1493D01*
G01X29849Y1472D01*
G01X29847Y1451D01*
G01X29847Y1430D01*
G01X29849Y1409D01*
G01X29853Y1389D01*
G01X29859Y1368D01*
G01X29866Y1348D01*
G01X29876Y1328D01*
G01X29888Y1308D01*
G01X29901Y1288D01*
G01X29917Y1269D01*
G01X29934Y1250D01*
G01X29954Y1232D01*
G01X29975Y1214D01*
G01X29996Y1199D01*
G01X30016Y1185D01*
G01X30036Y1173D01*
G01X30056Y1164D01*
G01X30077Y1156D01*
G01X30096Y1151D01*
G01X30116Y1147D01*
G01X30136Y1146D01*
G01X30156Y1146D01*
G01X30177Y1149D01*
G01X30197Y1153D01*
G01X30218Y1160D01*
G01X30239Y1168D01*
G01X30261Y1178D01*
G01X30283Y1191D01*
G01X30301Y1203D01*
G01X30318Y1215D01*
G01X30334Y1228D01*
G01X30348Y1242D01*
G01X30361Y1256D01*
G01X30373Y1271D01*
G01X30384Y1287D01*
G01X30393Y1303D01*
G01X30401Y1319D01*
G01X30408Y1336D01*
G01X30414Y1353D01*
G01X30419Y1370D01*
G01X30422Y1388D01*
G01X30425Y1405D01*
G01X30426Y1423D01*
G01X30426Y1440D01*
G01X30425Y1458D01*
G01X30423Y1476D01*
G01X30420Y1493D01*
G01X30416Y1510D01*
G01X30410Y1526D01*
G01X30405Y1543D01*
G01X30389Y1575D01*
G01X30380Y1590D01*
G01X30370Y1604D01*
G01X30359Y1618D01*
G01X30347Y1632D01*
G01X30335Y1644D01*
G01X30321Y1656D01*
G01X30306Y1667D01*
G01X30291Y1676D01*
G01X30275Y1686D01*
G01X30258Y1694D01*
G01X30240Y1700D01*
G01X30221Y1706D01*
G01X30202Y1711D01*
G01X30182Y1714D01*
G01X30161Y1716D01*
G37*

%LPC*%
G36*
G01X30138Y1655D02*
G01X30120Y1655D01*
G01X30101Y1652D01*
G01X30080Y1647D01*
G01X30059Y1640D01*
G01X30035Y1631D01*
G01X30016Y1621D01*
G01X29998Y1606D01*
G01X29982Y1588D01*
G01X29967Y1567D01*
G01X29955Y1543D01*
G01X29944Y1517D01*
G01X29936Y1490D01*
G01X29930Y1463D01*
G01X29927Y1436D01*
G01X29928Y1409D01*
G01X29931Y1383D01*
G01X29938Y1359D01*
G01X29946Y1341D01*
G01X29957Y1323D01*
G01X29969Y1307D01*
G01X29983Y1292D01*
G01X29999Y1278D01*
G01X30015Y1265D01*
G01X30034Y1254D01*
G01X30052Y1244D01*
G01X30072Y1235D01*
G01X30092Y1228D01*
G01X30112Y1223D01*
G01X30132Y1220D01*
G01X30152Y1219D01*
G01X30171Y1219D01*
G01X30190Y1223D01*
G01X30207Y1228D01*
G01X30229Y1238D01*
G01X30249Y1249D01*
G01X30267Y1263D01*
G01X30283Y1279D01*
G01X30297Y1296D01*
G01X30309Y1315D01*
G01X30320Y1334D01*
G01X30328Y1355D01*
G01X30335Y1376D01*
G01X30339Y1398D01*
G01X30341Y1421D01*
G01X30342Y1443D01*
G01X30339Y1465D01*
G01X30335Y1487D01*
G01X30329Y1508D01*
G01X30321Y1529D01*
G01X30310Y1549D01*
G01X30297Y1567D01*
G01X30282Y1584D01*
G01X30264Y1600D01*
G01X30245Y1615D01*
G01X30226Y1627D01*
G01X30208Y1637D01*
G01X30191Y1645D01*
G01X30173Y1651D01*
G01X30156Y1654D01*
G01X30138Y1655D01*
G37*

%LPD*%
G36*
G01X32298Y1715D02*
G01X32274Y1715D01*
G01X32251Y1712D01*
G01X32227Y1709D01*
G01X32205Y1703D01*
G01X32184Y1696D01*
G01X32164Y1688D01*
G01X32146Y1678D01*
G01X32129Y1666D01*
G01X32111Y1650D01*
G01X32094Y1633D01*
G01X32078Y1616D01*
G01X32065Y1598D01*
G01X32053Y1580D01*
G01X32042Y1561D01*
G01X32033Y1542D01*
G01X32026Y1522D01*
G01X32020Y1502D01*
G01X32015Y1482D01*
G01X32013Y1462D01*
G01X32012Y1442D01*
G01X32012Y1421D01*
G01X32014Y1401D01*
G01X32018Y1381D01*
G01X32023Y1361D01*
G01X32030Y1342D01*
G01X32038Y1323D01*
G01X32048Y1303D01*
G01X32060Y1285D01*
G01X32073Y1267D01*
G01X32088Y1250D01*
G01X32104Y1233D01*
G01X32122Y1217D01*
G01X32140Y1202D01*
G01X32159Y1188D01*
G01X32177Y1177D01*
G01X32196Y1167D01*
G01X32214Y1160D01*
G01X32233Y1153D01*
G01X32252Y1149D01*
G01X32271Y1147D01*
G01X32290Y1146D01*
G01X32310Y1146D01*
G01X32330Y1149D01*
G01X32350Y1153D01*
G01X32371Y1159D01*
G01X32393Y1167D01*
G01X32414Y1176D01*
G01X32437Y1188D01*
G01X32463Y1201D01*
G01X32482Y1215D01*
G01X32497Y1228D01*
G01X32507Y1243D01*
G01X32514Y1260D01*
G01X32517Y1281D01*
G01X32517Y1307D01*
G01X32515Y1338D01*
G01X32511Y1371D01*
G01X32507Y1397D01*
G01X32501Y1416D01*
G01X32492Y1430D01*
G01X32478Y1440D01*
G01X32458Y1446D01*
G01X32432Y1450D01*
G01X32398Y1453D01*
G01X32355Y1455D01*
G01X32321Y1451D01*
G01X32299Y1443D01*
G01X32291Y1432D01*
G01X32295Y1420D01*
G01X32308Y1410D01*
G01X32326Y1404D01*
G01X32348Y1401D01*
G01X32376Y1397D01*
G01X32394Y1383D01*
G01X32403Y1357D01*
G01X32406Y1315D01*
G01X32403Y1272D01*
G01X32393Y1246D01*
G01X32373Y1233D01*
G01X32341Y1230D01*
G01X32311Y1230D01*
G01X32284Y1233D01*
G01X32258Y1236D01*
G01X32235Y1242D01*
G01X32214Y1249D01*
G01X32196Y1257D01*
G01X32178Y1267D01*
G01X32163Y1280D01*
G01X32150Y1293D01*
G01X32138Y1309D01*
G01X32127Y1326D01*
G01X32118Y1346D01*
G01X32108Y1373D01*
G01X32102Y1400D01*
G01X32098Y1426D01*
G01X32097Y1452D01*
G01X32099Y1478D01*
G01X32105Y1502D01*
G01X32112Y1525D01*
G01X32123Y1547D01*
G01X32137Y1568D01*
G01X32153Y1587D01*
G01X32172Y1605D01*
G01X32193Y1621D01*
G01X32215Y1634D01*
G01X32234Y1644D01*
G01X32253Y1651D01*
G01X32271Y1654D01*
G01X32289Y1654D01*
G01X32310Y1651D01*
G01X32333Y1645D01*
G01X32360Y1636D01*
G01X32393Y1624D01*
G01X32422Y1615D01*
G01X32447Y1609D01*
G01X32468Y1605D01*
G01X32484Y1603D01*
G01X32496Y1604D01*
G01X32503Y1608D01*
G01X32506Y1613D01*
G01X32503Y1622D01*
G01X32496Y1632D01*
G01X32484Y1645D01*
G01X32467Y1661D01*
G01X32450Y1673D01*
G01X32432Y1684D01*
G01X32412Y1693D01*
G01X32368Y1707D01*
G01X32345Y1711D01*
G01X32322Y1714D01*
G01X32298Y1715D01*
G37*

%LPD*%
G36*
G01X31144Y1544D02*
G01X31123Y1544D01*
G01X31101Y1542D01*
G01X31080Y1539D01*
G01X31059Y1534D01*
G01X31038Y1528D01*
G01X31019Y1520D01*
G01X31001Y1511D01*
G01X30985Y1500D01*
G01X30971Y1487D01*
G01X30953Y1467D01*
G01X30939Y1446D01*
G01X30928Y1424D01*
G01X30921Y1401D01*
G01X30917Y1377D01*
G01X30917Y1353D01*
G01X30919Y1329D01*
G01X30926Y1305D01*
G01X30935Y1281D01*
G01X30948Y1258D01*
G01X30964Y1235D01*
G01X30984Y1213D01*
G01X31003Y1196D01*
G01X31022Y1181D01*
G01X31042Y1169D01*
G01X31062Y1159D01*
G01X31082Y1151D01*
G01X31102Y1147D01*
G01X31123Y1145D01*
G01X31144Y1145D01*
G01X31165Y1148D01*
G01X31187Y1154D01*
G01X31209Y1162D01*
G01X31231Y1173D01*
G01X31252Y1185D01*
G01X31268Y1196D01*
G01X31279Y1207D01*
G01X31285Y1217D01*
G01X31286Y1225D01*
G01X31283Y1233D01*
G01X31276Y1238D01*
G01X31264Y1243D01*
G01X31249Y1245D01*
G01X31229Y1246D01*
G01X31205Y1245D01*
G01X31178Y1241D01*
G01X31150Y1237D01*
G01X31125Y1235D01*
G01X31103Y1236D01*
G01X31085Y1238D01*
G01X31068Y1242D01*
G01X31054Y1249D01*
G01X31042Y1258D01*
G01X31031Y1269D01*
G01X31021Y1283D01*
G01X31015Y1294D01*
G01X31017Y1302D01*
G01X31026Y1308D01*
G01X31043Y1311D01*
G01X31069Y1314D01*
G01X31106Y1315D01*
G01X31205Y1315D01*
G01X31243Y1317D01*
G01X31272Y1320D01*
G01X31292Y1326D01*
G01X31304Y1334D01*
G01X31311Y1346D01*
G01X31315Y1363D01*
G01X31315Y1385D01*
G01X31312Y1415D01*
G01X31302Y1447D01*
G01X31288Y1477D01*
G01X31270Y1500D01*
G01X31257Y1511D01*
G01X31242Y1520D01*
G01X31225Y1528D01*
G01X31206Y1534D01*
G01X31186Y1539D01*
G01X31166Y1542D01*
G01X31144Y1544D01*
G37*

%LPC*%
G36*
G01X31147Y1482D02*
G01X31117Y1485D01*
G01X31088Y1476D01*
G01X31050Y1456D01*
G01X31031Y1444D01*
G01X31017Y1433D01*
G01X31008Y1423D01*
G01X31003Y1413D01*
G01X31002Y1404D01*
G01X31006Y1396D01*
G01X31013Y1389D01*
G01X31026Y1384D01*
G01X31042Y1379D01*
G01X31062Y1376D01*
G01X31086Y1373D01*
G01X31115Y1373D01*
G01X31143Y1374D01*
G01X31167Y1377D01*
G01X31189Y1383D01*
G01X31206Y1390D01*
G01X31219Y1398D01*
G01X31228Y1408D01*
G01X31234Y1418D01*
G01X31234Y1429D01*
G01X31229Y1440D01*
G01X31219Y1450D01*
G01X31205Y1461D01*
G01X31184Y1470D01*
G01X31147Y1482D01*
G37*

%LPD*%
G36*
G01X33555Y1544D02*
G01X33526Y1545D01*
G01X33503Y1544D01*
G01X33481Y1542D01*
G01X33460Y1538D01*
G01X33439Y1533D01*
G01X33421Y1528D01*
G01X33406Y1521D01*
G01X33393Y1514D01*
G01X33385Y1506D01*
G01X33371Y1484D01*
G01X33357Y1453D01*
G01X33344Y1416D01*
G01X33335Y1379D01*
G01X33331Y1354D01*
G01X33330Y1332D01*
G01X33331Y1312D01*
G01X33335Y1293D01*
G01X33343Y1275D01*
G01X33355Y1257D01*
G01X33371Y1238D01*
G01X33391Y1217D01*
G01X33411Y1198D01*
G01X33432Y1183D01*
G01X33454Y1169D01*
G01X33476Y1159D01*
G01X33498Y1151D01*
G01X33520Y1146D01*
G01X33542Y1144D01*
G01X33563Y1145D01*
G01X33583Y1149D01*
G01X33601Y1155D01*
G01X33618Y1165D01*
G01X33634Y1178D01*
G01X33652Y1198D01*
G01X33663Y1214D01*
G01X33666Y1227D01*
G01X33662Y1236D01*
G01X33651Y1242D01*
G01X33633Y1244D01*
G01X33607Y1243D01*
G01X33573Y1239D01*
G01X33529Y1235D01*
G01X33492Y1238D01*
G01X33463Y1250D01*
G01X33441Y1269D01*
G01X33430Y1283D01*
G01X33425Y1294D01*
G01X33427Y1302D01*
G01X33435Y1308D01*
G01X33452Y1311D01*
G01X33477Y1314D01*
G01X33514Y1315D01*
G01X33561Y1315D01*
G01X33594Y1316D01*
G01X33623Y1317D01*
G01X33649Y1320D01*
G01X33672Y1324D01*
G01X33691Y1329D01*
G01X33707Y1335D01*
G01X33720Y1342D01*
G01X33729Y1351D01*
G01X33736Y1361D01*
G01X33739Y1372D01*
G01X33739Y1385D01*
G01X33736Y1399D01*
G01X33730Y1415D01*
G01X33720Y1432D01*
G01X33708Y1451D01*
G01X33693Y1471D01*
G01X33677Y1490D01*
G01X33660Y1506D01*
G01X33643Y1519D01*
G01X33624Y1529D01*
G01X33604Y1536D01*
G01X33581Y1541D01*
G01X33555Y1544D01*
G37*

%LPC*%
G36*
G01X33564Y1481D02*
G01X33544Y1485D01*
G01X33523Y1483D01*
G01X33501Y1476D01*
G01X33477Y1464D01*
G01X33451Y1446D01*
G01X33423Y1424D01*
G01X33412Y1409D01*
G01X33419Y1398D01*
G01X33443Y1387D01*
G01X33469Y1380D01*
G01X33504Y1377D01*
G01X33544Y1376D01*
G01X33585Y1378D01*
G01X33614Y1381D01*
G01X33636Y1384D01*
G01X33651Y1388D01*
G01X33658Y1393D01*
G01X33659Y1400D01*
G01X33654Y1409D01*
G01X33644Y1421D01*
G01X33628Y1437D01*
G01X33606Y1457D01*
G01X33585Y1472D01*
G01X33564Y1481D01*
G37*

%LPD*%
G36*
G01X35007Y1545D02*
G01X34873Y1545D01*
G01X34873Y1302D01*
G01X34875Y1264D01*
G01X34877Y1230D01*
G01X34881Y1201D01*
G01X34885Y1176D01*
G01X34890Y1158D01*
G01X34896Y1147D01*
G01X34902Y1143D01*
G01X34913Y1152D01*
G01X34922Y1175D01*
G01X34928Y1209D01*
G01X34930Y1251D01*
G01X34931Y1281D01*
G01X34935Y1309D01*
G01X34941Y1338D01*
G01X34949Y1365D01*
G01X34959Y1390D01*
G01X34971Y1413D01*
G01X34983Y1434D01*
G01X34997Y1452D01*
G01X35012Y1467D01*
G01X35027Y1478D01*
G01X35043Y1485D01*
G01X35059Y1487D01*
G01X35077Y1486D01*
G01X35095Y1480D01*
G01X35111Y1471D01*
G01X35127Y1460D01*
G01X35140Y1445D01*
G01X35152Y1427D01*
G01X35163Y1407D01*
G01X35172Y1384D01*
G01X35179Y1359D01*
G01X35184Y1331D01*
G01X35187Y1301D01*
G01X35188Y1270D01*
G01X35191Y1221D01*
G01X35197Y1180D01*
G01X35206Y1153D01*
G01X35217Y1143D01*
G01X35223Y1146D01*
G01X35228Y1155D01*
G01X35233Y1169D01*
G01X35237Y1188D01*
G01X35241Y1211D01*
G01X35243Y1237D01*
G01X35245Y1266D01*
G01X35246Y1296D01*
G01X35245Y1325D01*
G01X35244Y1351D01*
G01X35242Y1375D01*
G01X35239Y1397D01*
G01X35235Y1417D01*
G01X35230Y1436D01*
G01X35223Y1453D01*
G01X35215Y1468D01*
G01X35206Y1481D01*
G01X35196Y1493D01*
G01X35185Y1504D01*
G01X35172Y1513D01*
G01X35157Y1521D01*
G01X35141Y1528D01*
G01X35123Y1533D01*
G01X35103Y1538D01*
G01X35082Y1541D01*
G01X35059Y1543D01*
G01X35034Y1544D01*
G01X35007Y1545D01*
G37*

%LPD*%
G36*
G01X33914Y1545D02*
G01X33783Y1545D01*
G01X33783Y1290D01*
G01X33785Y1247D01*
G01X33787Y1213D01*
G01X33791Y1186D01*
G01X33796Y1167D01*
G01X33802Y1155D01*
G01X33809Y1150D01*
G01X33818Y1150D01*
G01X33826Y1155D01*
G01X33834Y1165D01*
G01X33841Y1180D01*
G01X33848Y1199D01*
G01X33855Y1221D01*
G01X33860Y1246D01*
G01X33865Y1272D01*
G01X33869Y1300D01*
G01X33872Y1331D01*
G01X33877Y1359D01*
G01X33884Y1384D01*
G01X33890Y1406D01*
G01X33898Y1426D01*
G01X33907Y1442D01*
G01X33917Y1456D01*
G01X33927Y1467D01*
G01X33939Y1475D01*
G01X33951Y1480D01*
G01X33964Y1482D01*
G01X33978Y1481D01*
G01X33992Y1477D01*
G01X34007Y1469D01*
G01X34023Y1459D01*
G01X34039Y1446D01*
G01X34054Y1431D01*
G01X34066Y1414D01*
G01X34077Y1396D01*
G01X34085Y1376D01*
G01X34091Y1353D01*
G01X34095Y1328D01*
G01X34097Y1300D01*
G01X34098Y1268D01*
G01X34100Y1219D01*
G01X34106Y1180D01*
G01X34114Y1153D01*
G01X34125Y1143D01*
G01X34137Y1146D01*
G01X34147Y1152D01*
G01X34156Y1163D01*
G01X34163Y1177D01*
G01X34169Y1195D01*
G01X34173Y1215D01*
G01X34176Y1237D01*
G01X34177Y1261D01*
G01X34178Y1286D01*
G01X34174Y1338D01*
G01X34170Y1365D01*
G01X34165Y1390D01*
G01X34159Y1415D01*
G01X34151Y1438D01*
G01X34143Y1459D01*
G01X34133Y1478D01*
G01X34122Y1494D01*
G01X34110Y1507D01*
G01X34097Y1516D01*
G01X34084Y1522D01*
G01X34067Y1527D01*
G01X34046Y1532D01*
G01X34022Y1536D01*
G01X33996Y1540D01*
G01X33969Y1542D01*
G01X33941Y1544D01*
G01X33914Y1545D01*
G37*

%LPD*%
G36*
G01X32685Y1533D02*
G01X32549Y1535D01*
G01X32549Y1339D01*
G01X32550Y1299D01*
G01X32551Y1261D01*
G01X32554Y1228D01*
G01X32557Y1199D01*
G01X32561Y1176D01*
G01X32566Y1158D01*
G01X32572Y1147D01*
G01X32578Y1143D01*
G01X32589Y1153D01*
G01X32598Y1179D01*
G01X32605Y1218D01*
G01X32607Y1265D01*
G01X32608Y1302D01*
G01X32610Y1335D01*
G01X32614Y1364D01*
G01X32620Y1389D01*
G01X32628Y1411D01*
G01X32638Y1428D01*
G01X32650Y1443D01*
G01X32664Y1454D01*
G01X32681Y1463D01*
G01X32701Y1469D01*
G01X32723Y1472D01*
G01X32749Y1473D01*
G01X32773Y1474D01*
G01X32793Y1476D01*
G01X32809Y1478D01*
G01X32821Y1482D01*
G01X32828Y1486D01*
G01X32831Y1491D01*
G01X32831Y1496D01*
G01X32826Y1502D01*
G01X32819Y1507D01*
G01X32808Y1513D01*
G01X32794Y1518D01*
G01X32777Y1522D01*
G01X32758Y1526D01*
G01X32736Y1530D01*
G01X32712Y1532D01*
G01X32685Y1533D01*
G37*

%LPD*%
G36*
G01X31528Y1551D02*
G01X31504Y1552D01*
G01X31480Y1551D01*
G01X31373Y1541D01*
G01X31373Y1326D01*
G01X31374Y1296D01*
G01X31376Y1269D01*
G01X31379Y1244D01*
G01X31382Y1221D01*
G01X31385Y1202D01*
G01X31389Y1186D01*
G01X31394Y1172D01*
G01X31399Y1162D01*
G01X31404Y1155D01*
G01X31410Y1151D01*
G01X31416Y1151D01*
G01X31422Y1155D01*
G01X31428Y1162D01*
G01X31435Y1173D01*
G01X31442Y1189D01*
G01X31448Y1213D01*
G01X31454Y1248D01*
G01X31457Y1287D01*
G01X31461Y1365D01*
G01X31469Y1401D01*
G01X31480Y1432D01*
G01X31493Y1453D01*
G01X31510Y1468D01*
G01X31528Y1478D01*
G01X31545Y1485D01*
G01X31562Y1487D01*
G01X31579Y1486D01*
G01X31595Y1481D01*
G01X31610Y1473D01*
G01X31625Y1461D01*
G01X31638Y1447D01*
G01X31651Y1429D01*
G01X31661Y1409D01*
G01X31671Y1386D01*
G01X31678Y1360D01*
G01X31684Y1332D01*
G01X31687Y1302D01*
G01X31688Y1270D01*
G01X31691Y1221D01*
G01X31697Y1180D01*
G01X31706Y1153D01*
G01X31717Y1143D01*
G01X31723Y1146D01*
G01X31728Y1157D01*
G01X31733Y1172D01*
G01X31737Y1193D01*
G01X31741Y1219D01*
G01X31743Y1248D01*
G01X31745Y1280D01*
G01X31746Y1315D01*
G01X31746Y1351D01*
G01X31745Y1383D01*
G01X31744Y1409D01*
G01X31742Y1432D01*
G01X31738Y1450D01*
G01X31734Y1465D01*
G01X31728Y1478D01*
G01X31720Y1489D01*
G01X31710Y1498D01*
G01X31698Y1507D01*
G01X31684Y1515D01*
G01X31667Y1523D01*
G01X31649Y1530D01*
G01X31628Y1536D01*
G01X31605Y1542D01*
G01X31580Y1546D01*
G01X31554Y1550D01*
G01X31528Y1551D01*
G37*

%LPD*%
G36*
G01X30695Y1551D02*
G01X30675Y1552D01*
G01X30655Y1551D01*
G01X30635Y1548D01*
G01X30615Y1543D01*
G01X30597Y1535D01*
G01X30582Y1527D01*
G01X30567Y1516D01*
G01X30537Y1490D01*
G01X30523Y1475D01*
G01X30511Y1460D01*
G01X30500Y1444D01*
G01X30491Y1429D01*
G01X30485Y1414D01*
G01X30479Y1396D01*
G01X30474Y1376D01*
G01X30470Y1353D01*
G01X30467Y1328D01*
G01X30464Y1301D01*
G01X30463Y1274D01*
G01X30461Y1246D01*
G01X30461Y1218D01*
G01X30462Y1190D01*
G01X30463Y1163D01*
G01X30465Y1137D01*
G01X30468Y1112D01*
G01X30471Y1088D01*
G01X30475Y1067D01*
G01X30480Y1048D01*
G01X30485Y1032D01*
G01X30491Y1020D01*
G01X30498Y1011D01*
G01X30505Y1007D01*
G01X30521Y1008D01*
G01X30532Y1023D01*
G01X30539Y1053D01*
G01X30541Y1098D01*
G01X30541Y1130D01*
G01X30542Y1153D01*
G01X30545Y1170D01*
G01X30550Y1180D01*
G01X30556Y1184D01*
G01X30566Y1182D01*
G01X30580Y1176D01*
G01X30597Y1166D01*
G01X30614Y1157D01*
G01X30631Y1150D01*
G01X30650Y1146D01*
G01X30668Y1145D01*
G01X30686Y1145D01*
G01X30704Y1148D01*
G01X30722Y1153D01*
G01X30740Y1159D01*
G01X30757Y1167D01*
G01X30789Y1189D01*
G01X30805Y1202D01*
G01X30818Y1216D01*
G01X30831Y1231D01*
G01X30843Y1248D01*
G01X30853Y1265D01*
G01X30862Y1282D01*
G01X30869Y1301D01*
G01X30875Y1320D01*
G01X30878Y1340D01*
G01X30880Y1359D01*
G01X30879Y1379D01*
G01X30876Y1399D01*
G01X30870Y1419D01*
G01X30862Y1438D01*
G01X30852Y1456D01*
G01X30839Y1473D01*
G01X30825Y1488D01*
G01X30810Y1502D01*
G01X30793Y1514D01*
G01X30775Y1525D01*
G01X30756Y1534D01*
G01X30736Y1542D01*
G01X30716Y1547D01*
G01X30695Y1551D01*
G37*

%LPC*%
G36*
G01X30675Y1484D02*
G01X30656Y1485D01*
G01X30639Y1481D01*
G01X30622Y1473D01*
G01X30605Y1460D01*
G01X30586Y1442D01*
G01X30568Y1423D01*
G01X30556Y1406D01*
G01X30547Y1389D01*
G01X30543Y1372D01*
G01X30544Y1354D01*
G01X30548Y1334D01*
G01X30557Y1311D01*
G01X30571Y1285D01*
G01X30580Y1270D01*
G01X30593Y1258D01*
G01X30607Y1248D01*
G01X30624Y1240D01*
G01X30642Y1234D01*
G01X30660Y1231D01*
G01X30679Y1230D01*
G01X30698Y1232D01*
G01X30717Y1236D01*
G01X30734Y1242D01*
G01X30750Y1252D01*
G01X30765Y1263D01*
G01X30777Y1278D01*
G01X30786Y1294D01*
G01X30792Y1311D01*
G01X30796Y1330D01*
G01X30798Y1349D01*
G01X30797Y1368D01*
G01X30794Y1386D01*
G01X30788Y1404D01*
G01X30781Y1421D01*
G01X30770Y1435D01*
G01X30758Y1448D01*
G01X30743Y1458D01*
G01X30717Y1471D01*
G01X30694Y1480D01*
G01X30675Y1484D01*
G37*

%LPD*%
G36*
G01X36556Y1542D02*
G01X36547Y1545D01*
G01X36532Y1543D01*
G01X36519Y1538D01*
G01X36511Y1530D01*
G01X36508Y1521D01*
G01X36509Y1514D01*
G01X36513Y1503D01*
G01X36518Y1487D01*
G01X36526Y1469D01*
G01X36534Y1448D01*
G01X36544Y1425D01*
G01X36568Y1375D01*
G01X36582Y1344D01*
G01X36595Y1316D01*
G01X36605Y1290D01*
G01X36613Y1267D01*
G01X36618Y1244D01*
G01X36622Y1223D01*
G01X36624Y1202D01*
G01X36624Y1180D01*
G01X36622Y1157D01*
G01X36618Y1132D01*
G01X36613Y1105D01*
G01X36606Y1075D01*
G01X36599Y1038D01*
G01X36599Y1014D01*
G01X36606Y1003D01*
G01X36621Y1004D01*
G01X36627Y1007D01*
G01X36633Y1015D01*
G01X36642Y1026D01*
G01X36651Y1040D01*
G01X36662Y1057D01*
G01X36673Y1077D01*
G01X36685Y1100D01*
G01X36698Y1123D01*
G01X36711Y1149D01*
G01X36724Y1176D01*
G01X36738Y1204D01*
G01X36764Y1261D01*
G01X36777Y1290D01*
G01X36801Y1346D01*
G01X36811Y1372D01*
G01X36822Y1398D01*
G01X36830Y1421D01*
G01X36838Y1443D01*
G01X36844Y1462D01*
G01X36848Y1479D01*
G01X36851Y1492D01*
G01X36852Y1503D01*
G01X36851Y1521D01*
G01X36848Y1533D01*
G01X36843Y1542D01*
G01X36836Y1545D01*
G01X36827Y1544D01*
G01X36818Y1538D01*
G01X36806Y1529D01*
G01X36795Y1515D01*
G01X36782Y1498D01*
G01X36769Y1476D01*
G01X36755Y1451D01*
G01X36742Y1423D01*
G01X36686Y1301D01*
G01X36636Y1423D01*
G01X36625Y1447D01*
G01X36613Y1470D01*
G01X36601Y1491D01*
G01X36589Y1509D01*
G01X36577Y1524D01*
G01X36566Y1535D01*
G01X36556Y1542D01*
G37*

%LPD*%
G36*
G01X36313Y1542D02*
G01X36285Y1544D01*
G01X36258Y1543D01*
G01X36231Y1540D01*
G01X36205Y1534D01*
G01X36181Y1526D01*
G01X36160Y1515D01*
G01X36143Y1504D01*
G01X36129Y1489D01*
G01X36117Y1471D01*
G01X36107Y1452D01*
G01X36100Y1431D01*
G01X36095Y1408D01*
G01X36092Y1384D01*
G01X36093Y1359D01*
G01X36095Y1334D01*
G01X36101Y1309D01*
G01X36109Y1284D01*
G01X36120Y1260D01*
G01X36133Y1237D01*
G01X36147Y1217D01*
G01X36162Y1200D01*
G01X36179Y1185D01*
G01X36197Y1172D01*
G01X36216Y1162D01*
G01X36236Y1155D01*
G01X36257Y1150D01*
G01X36280Y1148D01*
G01X36304Y1148D01*
G01X36328Y1151D01*
G01X36354Y1156D01*
G01X36391Y1164D01*
G01X36409Y1161D01*
G01X36409Y1146D01*
G01X36394Y1115D01*
G01X36383Y1099D01*
G01X36370Y1086D01*
G01X36356Y1075D01*
G01X36339Y1067D01*
G01X36322Y1061D01*
G01X36305Y1059D01*
G01X36286Y1059D01*
G01X36269Y1062D01*
G01X36252Y1068D01*
G01X36235Y1077D01*
G01X36221Y1088D01*
G01X36208Y1103D01*
G01X36191Y1120D01*
G01X36170Y1133D01*
G01X36147Y1139D01*
G01X36125Y1139D01*
G01X36100Y1132D01*
G01X36091Y1120D01*
G01X36098Y1100D01*
G01X36122Y1064D01*
G01X36133Y1050D01*
G01X36147Y1038D01*
G01X36163Y1028D01*
G01X36181Y1019D01*
G01X36201Y1011D01*
G01X36222Y1005D01*
G01X36244Y1001D01*
G01X36267Y999D01*
G01X36290Y999D01*
G01X36314Y1000D01*
G01X36337Y1003D01*
G01X36360Y1007D01*
G01X36383Y1014D01*
G01X36405Y1022D01*
G01X36425Y1032D01*
G01X36444Y1044D01*
G01X36457Y1055D01*
G01X36468Y1069D01*
G01X36479Y1086D01*
G01X36488Y1106D01*
G01X36495Y1128D01*
G01X36501Y1151D01*
G01X36506Y1176D01*
G01X36510Y1202D01*
G01X36512Y1229D01*
G01X36514Y1257D01*
G01X36513Y1284D01*
G01X36511Y1312D01*
G01X36509Y1339D01*
G01X36505Y1365D01*
G01X36499Y1390D01*
G01X36492Y1414D01*
G01X36484Y1436D01*
G01X36474Y1455D01*
G01X36463Y1473D01*
G01X36451Y1487D01*
G01X36434Y1502D01*
G01X36414Y1514D01*
G01X36391Y1524D01*
G01X36366Y1532D01*
G01X36340Y1538D01*
G01X36313Y1542D01*
G37*

%LPC*%
G36*
G01X36298Y1484D02*
G01X36280Y1484D01*
G01X36264Y1479D01*
G01X36247Y1469D01*
G01X36229Y1453D01*
G01X36209Y1432D01*
G01X36195Y1415D01*
G01X36184Y1398D01*
G01X36176Y1381D01*
G01X36172Y1364D01*
G01X36169Y1347D01*
G01X36171Y1330D01*
G01X36174Y1314D01*
G01X36181Y1298D01*
G01X36191Y1282D01*
G01X36203Y1268D01*
G01X36219Y1253D01*
G01X36237Y1240D01*
G01X36269Y1222D01*
G01X36296Y1216D01*
G01X36324Y1224D01*
G01X36359Y1246D01*
G01X36377Y1261D01*
G01X36392Y1278D01*
G01X36404Y1296D01*
G01X36412Y1316D01*
G01X36418Y1336D01*
G01X36420Y1357D01*
G01X36419Y1378D01*
G01X36415Y1397D01*
G01X36408Y1415D01*
G01X36397Y1432D01*
G01X36384Y1446D01*
G01X36367Y1458D01*
G01X36340Y1471D01*
G01X36317Y1480D01*
G01X36298Y1484D01*
G37*

%LPD*%
G36*
G01X27395Y22839D02*
G01X27007Y22839D01*
G01X26981Y22725D01*
G01X26975Y22702D01*
G01X26970Y22677D01*
G01X26966Y22653D01*
G01X26962Y22630D01*
G01X26959Y22609D01*
G01X26956Y22591D01*
G01X26955Y22575D01*
G01X26954Y22563D01*
G01X26953Y22544D01*
G01X26951Y22528D01*
G01X26947Y22514D01*
G01X26942Y22500D01*
G01X26934Y22488D01*
G01X26924Y22477D01*
G01X26911Y22466D01*
G01X26895Y22456D01*
G01X26876Y22446D01*
G01X26854Y22435D01*
G01X26827Y22425D01*
G01X26797Y22413D01*
G01X26678Y22369D01*
G01X26537Y22470D01*
G01X26509Y22490D01*
G01X26481Y22509D01*
G01X26455Y22526D01*
G01X26432Y22540D01*
G01X26412Y22553D01*
G01X26396Y22562D01*
G01X26384Y22568D01*
G01X26377Y22570D01*
G01X26371Y22567D01*
G01X26360Y22559D01*
G01X26344Y22547D01*
G01X26325Y22531D01*
G01X26303Y22511D01*
G01X26279Y22489D01*
G01X26227Y22437D01*
G01X26096Y22305D01*
G01X26306Y22003D01*
G01X26257Y21882D01*
G01X26243Y21850D01*
G01X26231Y21822D01*
G01X26218Y21798D01*
G01X26206Y21779D01*
G01X26192Y21763D01*
G01X26176Y21750D01*
G01X26158Y21739D01*
G01X26137Y21730D01*
G01X26112Y21723D01*
G01X26083Y21717D01*
G01X26049Y21711D01*
G01X26010Y21706D01*
G01X25984Y21703D01*
G01X25959Y21699D01*
G01X25935Y21695D01*
G01X25913Y21690D01*
G01X25894Y21686D01*
G01X25877Y21682D01*
G01X25865Y21678D01*
G01X25857Y21674D01*
G01X25851Y21667D01*
G01X25846Y21655D01*
G01X25842Y21638D01*
G01X25839Y21615D01*
G01X25837Y21587D01*
G01X25836Y21553D01*
G01X25836Y21514D01*
G01X25837Y21469D01*
G01X25843Y21280D01*
G01X26190Y21216D01*
G01X26296Y20944D01*
G01X26102Y20653D01*
G01X26230Y20523D01*
G01X26256Y20497D01*
G01X26282Y20473D01*
G01X26306Y20451D01*
G01X26328Y20432D01*
G01X26347Y20416D01*
G01X26363Y20404D01*
G01X26376Y20396D01*
G01X26383Y20394D01*
G01X26391Y20396D01*
G01X26403Y20401D01*
G01X26419Y20409D01*
G01X26439Y20420D01*
G01X26461Y20434D01*
G01X26485Y20449D01*
G01X26511Y20466D01*
G01X26538Y20484D01*
G01X26579Y20513D01*
G01X26611Y20534D01*
G01X26636Y20549D01*
G01X26656Y20557D01*
G01X26673Y20560D01*
G01X26688Y20558D01*
G01X26703Y20551D01*
G01X26720Y20540D01*
G01X26742Y20526D01*
G01X26751Y20521D01*
G01X26760Y20515D01*
G01X26768Y20511D01*
G01X26775Y20509D01*
G01X26782Y20508D01*
G01X26789Y20509D01*
G01X26796Y20511D01*
G01X26803Y20515D01*
G01X26810Y20521D01*
G01X26817Y20530D01*
G01X26825Y20541D01*
G01X26833Y20555D01*
G01X26842Y20571D01*
G01X26851Y20591D01*
G01X26861Y20613D01*
G01X26873Y20639D01*
G01X26885Y20669D01*
G01X26899Y20701D01*
G01X26914Y20738D01*
G01X26931Y20778D01*
G01X26949Y20823D01*
G01X26969Y20872D01*
G01X27068Y21115D01*
G01X27017Y21157D01*
G01X26996Y21174D01*
G01X26977Y21188D01*
G01X26962Y21197D01*
G01X26953Y21201D01*
G01X26944Y21208D01*
G01X26929Y21227D01*
G01X26911Y21255D01*
G01X26891Y21289D01*
G01X26879Y21311D01*
G01X26869Y21334D01*
G01X26861Y21358D01*
G01X26854Y21382D01*
G01X26849Y21407D01*
G01X26845Y21431D01*
G01X26843Y21455D01*
G01X26843Y21505D01*
G01X26846Y21529D01*
G01X26850Y21553D01*
G01X26855Y21577D01*
G01X26862Y21600D01*
G01X26870Y21622D01*
G01X26879Y21644D01*
G01X26890Y21665D01*
G01X26902Y21686D01*
G01X26915Y21705D01*
G01X26930Y21723D01*
G01X26946Y21740D01*
G01X26963Y21756D01*
G01X26981Y21771D01*
G01X27001Y21784D01*
G01X27021Y21796D01*
G01X27038Y21803D01*
G01X27057Y21810D01*
G01X27078Y21816D01*
G01X27101Y21820D01*
G01X27125Y21824D01*
G01X27175Y21828D01*
G01X27227Y21828D01*
G01X27277Y21824D01*
G01X27301Y21820D01*
G01X27324Y21816D01*
G01X27345Y21810D01*
G01X27364Y21803D01*
G01X27381Y21796D01*
G01X27402Y21784D01*
G01X27421Y21771D01*
G01X27439Y21756D01*
G01X27456Y21740D01*
G01X27472Y21723D01*
G01X27486Y21705D01*
G01X27500Y21686D01*
G01X27512Y21665D01*
G01X27523Y21644D01*
G01X27532Y21622D01*
G01X27540Y21600D01*
G01X27547Y21577D01*
G01X27552Y21553D01*
G01X27556Y21529D01*
G01X27558Y21505D01*
G01X27559Y21480D01*
G01X27559Y21455D01*
G01X27557Y21431D01*
G01X27553Y21407D01*
G01X27548Y21382D01*
G01X27541Y21358D01*
G01X27533Y21334D01*
G01X27523Y21311D01*
G01X27511Y21289D01*
G01X27491Y21255D01*
G01X27472Y21227D01*
G01X27458Y21208D01*
G01X27449Y21201D01*
G01X27440Y21197D01*
G01X27425Y21188D01*
G01X27406Y21174D01*
G01X27385Y21157D01*
G01X27335Y21115D01*
G01X27433Y20872D01*
G01X27453Y20823D01*
G01X27471Y20778D01*
G01X27488Y20738D01*
G01X27503Y20701D01*
G01X27517Y20669D01*
G01X27529Y20639D01*
G01X27540Y20613D01*
G01X27551Y20591D01*
G01X27560Y20571D01*
G01X27569Y20555D01*
G01X27577Y20541D01*
G01X27585Y20530D01*
G01X27592Y20521D01*
G01X27599Y20515D01*
G01X27606Y20511D01*
G01X27613Y20509D01*
G01X27619Y20508D01*
G01X27627Y20509D01*
G01X27634Y20511D01*
G01X27642Y20515D01*
G01X27651Y20521D01*
G01X27660Y20526D01*
G01X27682Y20540D01*
G01X27699Y20551D01*
G01X27714Y20558D01*
G01X27729Y20560D01*
G01X27746Y20557D01*
G01X27765Y20549D01*
G01X27791Y20534D01*
G01X27823Y20513D01*
G01X27864Y20484D01*
G01X27891Y20466D01*
G01X27916Y20449D01*
G01X27941Y20434D01*
G01X27963Y20420D01*
G01X27982Y20409D01*
G01X27999Y20401D01*
G01X28011Y20396D01*
G01X28019Y20394D01*
G01X28026Y20396D01*
G01X28039Y20404D01*
G01X28055Y20416D01*
G01X28074Y20432D01*
G01X28096Y20451D01*
G01X28120Y20473D01*
G01X28146Y20497D01*
G01X28172Y20523D01*
G01X28300Y20653D01*
G01X28106Y20944D01*
G01X28211Y21216D01*
G01X28558Y21280D01*
G01X28565Y21469D01*
G01X28566Y21514D01*
G01X28566Y21553D01*
G01X28565Y21587D01*
G01X28563Y21615D01*
G01X28560Y21638D01*
G01X28556Y21655D01*
G01X28551Y21667D01*
G01X28545Y21674D01*
G01X28537Y21678D01*
G01X28524Y21682D01*
G01X28508Y21686D01*
G01X28489Y21690D01*
G01X28467Y21695D01*
G01X28443Y21699D01*
G01X28418Y21703D01*
G01X28392Y21706D01*
G01X28353Y21711D01*
G01X28319Y21717D01*
G01X28290Y21723D01*
G01X28265Y21730D01*
G01X28244Y21739D01*
G01X28226Y21750D01*
G01X28210Y21763D01*
G01X28196Y21779D01*
G01X28184Y21798D01*
G01X28171Y21822D01*
G01X28158Y21850D01*
G01X28145Y21882D01*
G01X28096Y22003D01*
G01X28306Y22305D01*
G01X28175Y22437D01*
G01X28148Y22464D01*
G01X28122Y22489D01*
G01X28098Y22511D01*
G01X28077Y22531D01*
G01X28058Y22547D01*
G01X28042Y22559D01*
G01X28031Y22567D01*
G01X28025Y22570D01*
G01X28018Y22568D01*
G01X28006Y22562D01*
G01X27990Y22553D01*
G01X27970Y22540D01*
G01X27947Y22526D01*
G01X27921Y22509D01*
G01X27893Y22490D01*
G01X27865Y22470D01*
G01X27724Y22369D01*
G01X27605Y22413D01*
G01X27574Y22425D01*
G01X27548Y22435D01*
G01X27526Y22446D01*
G01X27507Y22456D01*
G01X27491Y22466D01*
G01X27478Y22477D01*
G01X27468Y22488D01*
G01X27460Y22500D01*
G01X27455Y22514D01*
G01X27451Y22528D01*
G01X27449Y22544D01*
G01X27448Y22563D01*
G01X27447Y22575D01*
G01X27446Y22591D01*
G01X27443Y22609D01*
G01X27440Y22630D01*
G01X27436Y22653D01*
G01X27432Y22677D01*
G01X27427Y22702D01*
G01X27422Y22725D01*
G01X27395Y22839D01*
G37*

%LPD*%
G36*
G01X28239Y20117D02*
G01X28200Y20119D01*
G01X28162Y20118D01*
G01X28128Y20116D01*
G01X28102Y20112D01*
G01X28087Y20106D01*
G01X28085Y20100D01*
G01X28083Y20088D01*
G01X28081Y20069D01*
G01X28079Y20046D01*
G01X28078Y20019D01*
G01X28077Y19988D01*
G01X28076Y19954D01*
G01X28076Y19862D01*
G01X28077Y19819D01*
G01X28079Y19788D01*
G01X28083Y19767D01*
G01X28090Y19753D01*
G01X28100Y19746D01*
G01X28113Y19744D01*
G01X28131Y19743D01*
G01X28148Y19744D01*
G01X28161Y19746D01*
G01X28172Y19753D01*
G01X28179Y19764D01*
G01X28184Y19781D01*
G01X28188Y19806D01*
G01X28190Y19839D01*
G01X28193Y19883D01*
G01X28195Y19926D01*
G01X28198Y19959D01*
G01X28201Y19984D01*
G01X28206Y20001D01*
G01X28213Y20012D01*
G01X28221Y20017D01*
G01X28233Y20019D01*
G01X28271Y20019D01*
G01X28292Y20025D01*
G01X28311Y20035D01*
G01X28326Y20048D01*
G01X28335Y20062D01*
G01X28339Y20076D01*
G01X28335Y20090D01*
G01X28323Y20102D01*
G01X28305Y20108D01*
G01X28276Y20113D01*
G01X28239Y20117D01*
G37*

%LPD*%
G36*
G01X26608Y20119D02*
G01X26583Y20120D01*
G01X26560Y20119D01*
G01X26541Y20116D01*
G01X26527Y20112D01*
G01X26517Y20107D01*
G01X26515Y20101D01*
G01X26513Y20088D01*
G01X26511Y20070D01*
G01X26509Y20046D01*
G01X26507Y20019D01*
G01X26506Y19988D01*
G01X26506Y19819D01*
G01X26509Y19788D01*
G01X26513Y19766D01*
G01X26519Y19753D01*
G01X26530Y19746D01*
G01X26543Y19744D01*
G01X26561Y19743D01*
G01X26579Y19744D01*
G01X26593Y19746D01*
G01X26603Y19752D01*
G01X26610Y19762D01*
G01X26614Y19778D01*
G01X26616Y19802D01*
G01X26617Y19834D01*
G01X26618Y19876D01*
G01X26618Y19909D01*
G01X26620Y19938D01*
G01X26622Y19963D01*
G01X26626Y19984D01*
G01X26631Y20000D01*
G01X26637Y20013D01*
G01X26644Y20023D01*
G01X26652Y20028D01*
G01X26661Y20029D01*
G01X26672Y20027D01*
G01X26684Y20021D01*
G01X26697Y20011D01*
G01X26705Y20003D01*
G01X26711Y19992D01*
G01X26717Y19978D01*
G01X26722Y19960D01*
G01X26725Y19940D01*
G01X26728Y19917D01*
G01X26729Y19892D01*
G01X26730Y19864D01*
G01X26730Y19828D01*
G01X26731Y19800D01*
G01X26734Y19779D01*
G01X26738Y19764D01*
G01X26743Y19753D01*
G01X26751Y19747D01*
G01X26761Y19744D01*
G01X26775Y19743D01*
G01X26788Y19744D01*
G01X26799Y19748D01*
G01X26807Y19755D01*
G01X26812Y19768D01*
G01X26816Y19788D01*
G01X26818Y19815D01*
G01X26819Y19852D01*
G01X26819Y19946D01*
G01X26818Y19983D01*
G01X26815Y20013D01*
G01X26811Y20035D01*
G01X26805Y20053D01*
G01X26796Y20066D01*
G01X26784Y20078D01*
G01X26769Y20088D01*
G01X26755Y20095D01*
G01X26735Y20102D01*
G01X26713Y20107D01*
G01X26688Y20112D01*
G01X26661Y20115D01*
G01X26635Y20118D01*
G01X26608Y20119D01*
G37*

%LPD*%
G36*
G01X27774Y20123D02*
G01X27761Y20125D01*
G01X27748Y20123D01*
G01X27738Y20120D01*
G01X27730Y20112D01*
G01X27724Y20099D01*
G01X27721Y20080D01*
G01X27718Y20053D01*
G01X27717Y20017D01*
G01X27717Y19941D01*
G01X27718Y19913D01*
G01X27719Y19887D01*
G01X27721Y19864D01*
G01X27724Y19843D01*
G01X27728Y19825D01*
G01X27733Y19809D01*
G01X27739Y19794D01*
G01X27746Y19782D01*
G01X27755Y19771D01*
G01X27765Y19763D01*
G01X27777Y19755D01*
G01X27791Y19750D01*
G01X27807Y19745D01*
G01X27825Y19742D01*
G01X27845Y19740D01*
G01X27867Y19738D01*
G01X27918Y19738D01*
G01X27948Y19740D01*
G01X28033Y19743D01*
G01X28026Y19928D01*
G01X28024Y19980D01*
G01X28022Y20023D01*
G01X28018Y20055D01*
G01X28014Y20080D01*
G01X28008Y20098D01*
G01X28001Y20109D01*
G01X27992Y20117D01*
G01X27981Y20120D01*
G01X27969Y20121D01*
G01X27960Y20120D01*
G01X27953Y20115D01*
G01X27948Y20105D01*
G01X27945Y20090D01*
G01X27943Y20069D01*
G01X27941Y20042D01*
G01X27941Y20008D01*
G01X27940Y19961D01*
G01X27936Y19922D01*
G01X27931Y19890D01*
G01X27923Y19866D01*
G01X27912Y19850D01*
G01X27898Y19839D01*
G01X27881Y19835D01*
G01X27860Y19836D01*
G01X27848Y19840D01*
G01X27839Y19846D01*
G01X27831Y19855D01*
G01X27825Y19869D01*
G01X27820Y19888D01*
G01X27816Y19913D01*
G01X27814Y19945D01*
G01X27811Y19984D01*
G01X27809Y20026D01*
G01X27806Y20058D01*
G01X27803Y20082D01*
G01X27798Y20100D01*
G01X27792Y20112D01*
G01X27784Y20120D01*
G01X27774Y20123D01*
G37*

%LPD*%
G36*
G01X25621Y20117D02*
G01X25602Y20119D01*
G01X25582Y20118D01*
G01X25561Y20115D01*
G01X25541Y20108D01*
G01X25523Y20099D01*
G01X25507Y20086D01*
G01X25493Y20069D01*
G01X25481Y20051D01*
G01X25471Y20029D01*
G01X25462Y20006D01*
G01X25455Y19982D01*
G01X25451Y19956D01*
G01X25448Y19930D01*
G01X25448Y19904D01*
G01X25450Y19879D01*
G01X25455Y19855D01*
G01X25461Y19832D01*
G01X25470Y19811D01*
G01X25482Y19792D01*
G01X25496Y19777D01*
G01X25513Y19763D01*
G01X25532Y19753D01*
G01X25552Y19745D01*
G01X25572Y19739D01*
G01X25593Y19736D01*
G01X25615Y19736D01*
G01X25636Y19738D01*
G01X25656Y19743D01*
G01X25676Y19750D01*
G01X25693Y19760D01*
G01X25710Y19772D01*
G01X25724Y19787D01*
G01X25737Y19806D01*
G01X25748Y19825D01*
G01X25757Y19846D01*
G01X25763Y19866D01*
G01X25767Y19887D01*
G01X25769Y19909D01*
G01X25769Y19930D01*
G01X25767Y19950D01*
G01X25763Y19971D01*
G01X25749Y20009D01*
G01X25740Y20027D01*
G01X25729Y20044D01*
G01X25717Y20060D01*
G01X25703Y20074D01*
G01X25689Y20086D01*
G01X25673Y20097D01*
G01X25656Y20106D01*
G01X25639Y20113D01*
G01X25621Y20117D01*
G37*

%LPC*%
G36*
G01X25617Y20032D02*
G01X25608Y20035D01*
G01X25594Y20032D01*
G01X25582Y20023D01*
G01X25570Y20010D01*
G01X25560Y19993D01*
G01X25552Y19974D01*
G01X25547Y19952D01*
G01X25544Y19930D01*
G01X25545Y19907D01*
G01X25551Y19876D01*
G01X25562Y19857D01*
G01X25580Y19847D01*
G01X25608Y19844D01*
G01X25636Y19847D01*
G01X25654Y19857D01*
G01X25665Y19876D01*
G01X25671Y19907D01*
G01X25672Y19934D01*
G01X25668Y19961D01*
G01X25661Y19985D01*
G01X25652Y20003D01*
G01X25640Y20015D01*
G01X25628Y20025D01*
G01X25617Y20032D01*
G37*

%LPD*%
G36*
G01X28821Y20116D02*
G01X28785Y20120D01*
G01X28754Y20115D01*
G01X28726Y20100D01*
G01X28694Y20072D01*
G01X28678Y20053D01*
G01X28664Y20032D01*
G01X28653Y20009D01*
G01X28645Y19984D01*
G01X28639Y19958D01*
G01X28636Y19932D01*
G01X28636Y19906D01*
G01X28639Y19880D01*
G01X28644Y19855D01*
G01X28652Y19831D01*
G01X28663Y19809D01*
G01X28677Y19788D01*
G01X28691Y19774D01*
G01X28708Y19763D01*
G01X28728Y19753D01*
G01X28750Y19745D01*
G01X28773Y19740D01*
G01X28797Y19736D01*
G01X28821Y19736D01*
G01X28844Y19737D01*
G01X28866Y19741D01*
G01X28886Y19748D01*
G01X28904Y19757D01*
G01X28919Y19769D01*
G01X28936Y19788D01*
G01X28942Y19802D01*
G01X28936Y19815D01*
G01X28920Y19831D01*
G01X28902Y19842D01*
G01X28884Y19847D01*
G01X28865Y19844D01*
G01X28821Y19826D01*
G01X28800Y19825D01*
G01X28780Y19830D01*
G01X28758Y19844D01*
G01X28746Y19854D01*
G01X28738Y19861D01*
G01X28736Y19867D01*
G01X28741Y19871D01*
G01X28752Y19874D01*
G01X28771Y19876D01*
G01X28798Y19877D01*
G01X28833Y19877D01*
G01X28951Y19878D01*
G01X28950Y19951D01*
G01X28949Y19973D01*
G01X28946Y19994D01*
G01X28942Y20014D01*
G01X28935Y20032D01*
G01X28927Y20048D01*
G01X28918Y20062D01*
G01X28906Y20075D01*
G01X28893Y20086D01*
G01X28877Y20096D01*
G01X28860Y20104D01*
G01X28842Y20111D01*
G01X28821Y20116D01*
G37*

%LPC*%
G36*
G01X28825Y20027D02*
G01X28810Y20029D01*
G01X28794Y20028D01*
G01X28778Y20023D01*
G01X28763Y20015D01*
G01X28750Y20002D01*
G01X28737Y19984D01*
G01X28739Y19973D01*
G01X28756Y19969D01*
G01X28793Y19967D01*
G01X28824Y19969D01*
G01X28844Y19975D01*
G01X28855Y19983D01*
G01X28856Y19996D01*
G01X28848Y20009D01*
G01X28838Y20020D01*
G01X28825Y20027D01*
G37*

%LPD*%
G36*
G01X27525Y20121D02*
G01X27507Y20123D01*
G01X27489Y20122D01*
G01X27471Y20119D01*
G01X27453Y20113D01*
G01X27435Y20105D01*
G01X27419Y20094D01*
G01X27403Y20080D01*
G01X27392Y20067D01*
G01X27382Y20053D01*
G01X27374Y20038D01*
G01X27368Y20020D01*
G01X27364Y20001D01*
G01X27360Y19979D01*
G01X27359Y19954D01*
G01X27358Y19926D01*
G01X27359Y19895D01*
G01X27362Y19867D01*
G01X27368Y19842D01*
G01X27376Y19819D01*
G01X27385Y19800D01*
G01X27398Y19782D01*
G01X27412Y19768D01*
G01X27429Y19756D01*
G01X27448Y19747D01*
G01X27469Y19741D01*
G01X27493Y19737D01*
G01X27519Y19736D01*
G01X27542Y19737D01*
G01X27563Y19742D01*
G01X27582Y19749D01*
G01X27600Y19759D01*
G01X27616Y19772D01*
G01X27631Y19787D01*
G01X27643Y19805D01*
G01X27653Y19825D01*
G01X27661Y19848D01*
G01X27667Y19872D01*
G01X27671Y19898D01*
G01X27672Y19926D01*
G01X27671Y19950D01*
G01X27667Y19973D01*
G01X27662Y19994D01*
G01X27654Y20015D01*
G01X27634Y20051D01*
G01X27621Y20066D01*
G01X27607Y20080D01*
G01X27592Y20092D01*
G01X27576Y20103D01*
G01X27560Y20111D01*
G01X27542Y20117D01*
G01X27525Y20121D01*
G37*

%LPC*%
G36*
G01X27518Y20032D02*
G01X27505Y20033D01*
G01X27492Y20030D01*
G01X27481Y20024D01*
G01X27471Y20014D01*
G01X27463Y20001D01*
G01X27457Y19985D01*
G01X27452Y19966D01*
G01X27451Y19944D01*
G01X27452Y19920D01*
G01X27457Y19881D01*
G01X27468Y19858D01*
G01X27486Y19847D01*
G01X27515Y19844D01*
G01X27543Y19847D01*
G01X27561Y19857D01*
G01X27572Y19876D01*
G01X27578Y19907D01*
G01X27579Y19934D01*
G01X27576Y19961D01*
G01X27569Y19985D01*
G01X27559Y20003D01*
G01X27545Y20017D01*
G01X27531Y20026D01*
G01X27518Y20032D01*
G37*

%LPD*%
G36*
G01X26321Y20120D02*
G01X26304Y20120D01*
G01X26286Y20117D01*
G01X26269Y20113D01*
G01X26252Y20105D01*
G01X26234Y20096D01*
G01X26218Y20084D01*
G01X26202Y20069D01*
G01X26186Y20051D01*
G01X26173Y20030D01*
G01X26162Y20007D01*
G01X26154Y19983D01*
G01X26149Y19957D01*
G01X26146Y19931D01*
G01X26146Y19905D01*
G01X26149Y19879D01*
G01X26154Y19854D01*
G01X26162Y19830D01*
G01X26173Y19808D01*
G01X26186Y19788D01*
G01X26201Y19774D01*
G01X26218Y19763D01*
G01X26238Y19753D01*
G01X26259Y19745D01*
G01X26282Y19740D01*
G01X26306Y19736D01*
G01X26330Y19736D01*
G01X26353Y19737D01*
G01X26376Y19741D01*
G01X26396Y19748D01*
G01X26414Y19757D01*
G01X26428Y19769D01*
G01X26446Y19788D01*
G01X26452Y19802D01*
G01X26446Y19815D01*
G01X26428Y19832D01*
G01X26410Y19845D01*
G01X26394Y19849D01*
G01X26378Y19846D01*
G01X26361Y19834D01*
G01X26343Y19823D01*
G01X26325Y19819D01*
G01X26303Y19824D01*
G01X26277Y19837D01*
G01X26261Y19846D01*
G01X26251Y19853D01*
G01X26247Y19859D01*
G01X26250Y19863D01*
G01X26261Y19866D01*
G01X26279Y19869D01*
G01X26306Y19871D01*
G01X26343Y19873D01*
G01X26382Y19876D01*
G01X26411Y19878D01*
G01X26432Y19882D01*
G01X26446Y19889D01*
G01X26454Y19898D01*
G01X26459Y19912D01*
G01X26460Y19931D01*
G01X26460Y19978D01*
G01X26456Y19999D01*
G01X26451Y20019D01*
G01X26444Y20036D01*
G01X26435Y20053D01*
G01X26425Y20067D01*
G01X26413Y20080D01*
G01X26400Y20092D01*
G01X26385Y20101D01*
G01X26371Y20109D01*
G01X26355Y20115D01*
G01X26338Y20119D01*
G01X26321Y20120D01*
G37*

%LPC*%
G36*
G01X26334Y20027D02*
G01X26319Y20029D01*
G01X26303Y20028D01*
G01X26288Y20023D01*
G01X26273Y20015D01*
G01X26260Y20002D01*
G01X26247Y19984D01*
G01X26248Y19973D01*
G01X26266Y19969D01*
G01X26303Y19967D01*
G01X26333Y19969D01*
G01X26354Y19975D01*
G01X26365Y19983D01*
G01X26365Y19996D01*
G01X26358Y20009D01*
G01X26347Y20020D01*
G01X26334Y20027D01*
G37*

%LPD*%
G36*
G01X28520Y20119D02*
G01X28494Y20123D01*
G01X28469Y20121D01*
G01X28446Y20116D01*
G01X28423Y20105D01*
G01X28400Y20090D01*
G01X28378Y20069D01*
G01X28362Y20051D01*
G01X28349Y20031D01*
G01X28339Y20009D01*
G01X28331Y19985D01*
G01X28326Y19960D01*
G01X28323Y19934D01*
G01X28323Y19909D01*
G01X28326Y19883D01*
G01X28331Y19859D01*
G01X28340Y19834D01*
G01X28351Y19812D01*
G01X28364Y19792D01*
G01X28377Y19777D01*
G01X28394Y19765D01*
G01X28413Y19755D01*
G01X28434Y19747D01*
G01X28456Y19741D01*
G01X28478Y19737D01*
G01X28502Y19735D01*
G01X28524Y19736D01*
G01X28546Y19739D01*
G01X28567Y19745D01*
G01X28585Y19753D01*
G01X28602Y19764D01*
G01X28618Y19781D01*
G01X28624Y19798D01*
G01X28622Y19813D01*
G01X28613Y19825D01*
G01X28597Y19835D01*
G01X28574Y19841D01*
G01X28546Y19843D01*
G01X28513Y19840D01*
G01X28472Y19835D01*
G01X28447Y19839D01*
G01X28433Y19855D01*
G01X28423Y19884D01*
G01X28419Y19909D01*
G01X28420Y19934D01*
G01X28425Y19959D01*
G01X28433Y19983D01*
G01X28443Y20004D01*
G01X28456Y20020D01*
G01X28471Y20031D01*
G01X28486Y20034D01*
G01X28499Y20033D01*
G01X28515Y20028D01*
G01X28531Y20021D01*
G01X28546Y20013D01*
G01X28562Y20006D01*
G01X28578Y20004D01*
G01X28594Y20008D01*
G01X28608Y20016D01*
G01X28630Y20040D01*
G01X28634Y20059D01*
G01X28617Y20078D01*
G01X28580Y20098D01*
G01X28549Y20111D01*
G01X28520Y20119D01*
G37*

%LPD*%
G36*
G01X27205Y20122D02*
G01X27177Y20123D01*
G01X27149Y20121D01*
G01X27122Y20114D01*
G01X27096Y20104D01*
G01X27071Y20090D01*
G01X27055Y20076D01*
G01X27042Y20061D01*
G01X27033Y20044D01*
G01X27027Y20027D01*
G01X27024Y20010D01*
G01X27025Y19992D01*
G01X27029Y19975D01*
G01X27035Y19958D01*
G01X27044Y19942D01*
G01X27056Y19927D01*
G01X27071Y19913D01*
G01X27087Y19901D01*
G01X27106Y19891D01*
G01X27126Y19884D01*
G01X27148Y19879D01*
G01X27172Y19878D01*
G01X27192Y19876D01*
G01X27208Y19871D01*
G01X27219Y19863D01*
G01X27223Y19855D01*
G01X27221Y19842D01*
G01X27213Y19831D01*
G01X27202Y19824D01*
G01X27186Y19819D01*
G01X27169Y19818D01*
G01X27150Y19819D01*
G01X27130Y19825D01*
G01X27110Y19833D01*
G01X27084Y19845D01*
G01X27064Y19848D01*
G01X27046Y19841D01*
G01X27026Y19825D01*
G01X27009Y19804D01*
G01X27010Y19789D01*
G01X27031Y19774D01*
G01X27075Y19754D01*
G01X27097Y19746D01*
G01X27118Y19739D01*
G01X27138Y19735D01*
G01X27157Y19732D01*
G01X27176Y19732D01*
G01X27194Y19733D01*
G01X27212Y19736D01*
G01X27230Y19742D01*
G01X27247Y19749D01*
G01X27263Y19758D01*
G01X27280Y19769D01*
G01X27296Y19783D01*
G01X27310Y19796D01*
G01X27320Y19810D01*
G01X27328Y19825D01*
G01X27332Y19839D01*
G01X27334Y19853D01*
G01X27333Y19868D01*
G01X27329Y19882D01*
G01X27322Y19896D01*
G01X27313Y19909D01*
G01X27302Y19922D01*
G01X27288Y19934D01*
G01X27271Y19945D01*
G01X27252Y19955D01*
G01X27232Y19964D01*
G01X27209Y19972D01*
G01X27184Y19978D01*
G01X27154Y19987D01*
G01X27134Y19996D01*
G01X27125Y20007D01*
G01X27126Y20016D01*
G01X27136Y20023D01*
G01X27154Y20028D01*
G01X27180Y20029D01*
G01X27213Y20025D01*
G01X27244Y20021D01*
G01X27269Y20022D01*
G01X27289Y20028D01*
G01X27302Y20036D01*
G01X27308Y20048D01*
G01X27307Y20062D01*
G01X27297Y20078D01*
G01X27279Y20094D01*
G01X27256Y20107D01*
G01X27231Y20117D01*
G01X27205Y20122D01*
G37*

%LPD*%
G36*
G01X27164Y19540D02*
G01X27152Y19541D01*
G01X27130Y19539D01*
G01X27118Y19529D01*
G01X27117Y19507D01*
G01X27123Y19470D01*
G01X27132Y19432D01*
G01X27141Y19397D01*
G01X27150Y19364D01*
G01X27159Y19334D01*
G01X27168Y19306D01*
G01X27177Y19281D01*
G01X27186Y19259D01*
G01X27195Y19238D01*
G01X27205Y19221D01*
G01X27214Y19207D01*
G01X27223Y19194D01*
G01X27232Y19185D01*
G01X27242Y19178D01*
G01X27251Y19174D01*
G01X27260Y19173D01*
G01X27269Y19174D01*
G01X27278Y19178D01*
G01X27287Y19185D01*
G01X27296Y19194D01*
G01X27305Y19207D01*
G01X27313Y19221D01*
G01X27321Y19239D01*
G01X27330Y19260D01*
G01X27338Y19283D01*
G01X27373Y19395D01*
G01X27402Y19276D01*
G01X27410Y19243D01*
G01X27418Y19217D01*
G01X27426Y19196D01*
G01X27433Y19182D01*
G01X27442Y19171D01*
G01X27451Y19165D01*
G01X27461Y19163D01*
G01X27474Y19164D01*
G01X27485Y19168D01*
G01X27497Y19176D01*
G01X27508Y19188D01*
G01X27520Y19205D01*
G01X27532Y19227D01*
G01X27544Y19255D01*
G01X27558Y19288D01*
G01X27572Y19328D01*
G01X27588Y19372D01*
G01X27600Y19410D01*
G01X27610Y19441D01*
G01X27617Y19467D01*
G01X27622Y19489D01*
G01X27624Y19506D01*
G01X27623Y19519D01*
G01X27621Y19528D01*
G01X27615Y19534D01*
G01X27607Y19538D01*
G01X27597Y19540D01*
G01X27584Y19541D01*
G01X27569Y19538D01*
G01X27555Y19530D01*
G01X27542Y19515D01*
G01X27529Y19494D01*
G01X27518Y19467D01*
G01X27507Y19435D01*
G01X27497Y19396D01*
G01X27487Y19351D01*
G01X27481Y19338D01*
G01X27472Y19345D01*
G01X27460Y19371D01*
G01X27446Y19418D01*
G01X27437Y19445D01*
G01X27428Y19468D01*
G01X27419Y19488D01*
G01X27410Y19504D01*
G01X27400Y19517D01*
G01X27390Y19526D01*
G01X27381Y19531D01*
G01X27371Y19533D01*
G01X27361Y19532D01*
G01X27351Y19527D01*
G01X27341Y19518D01*
G01X27331Y19506D01*
G01X27321Y19490D01*
G01X27311Y19471D01*
G01X27301Y19448D01*
G01X27292Y19421D01*
G01X27256Y19312D01*
G01X27226Y19427D01*
G01X27218Y19457D01*
G01X27210Y19482D01*
G01X27202Y19502D01*
G01X27194Y19517D01*
G01X27185Y19528D01*
G01X27175Y19536D01*
G01X27164Y19540D01*
G37*

%LPD*%
G36*
G01X27043Y19693D02*
G01X27028Y19694D01*
G01X27014Y19693D01*
G01X27001Y19690D01*
G01X26992Y19684D01*
G01X26986Y19673D01*
G01X26981Y19654D01*
G01X26978Y19631D01*
G01X26977Y19605D01*
G01X26974Y19571D01*
G01X26965Y19552D01*
G01X26945Y19543D01*
G01X26911Y19541D01*
G01X26888Y19540D01*
G01X26867Y19537D01*
G01X26848Y19531D01*
G01X26832Y19523D01*
G01X26818Y19512D01*
G01X26806Y19498D01*
G01X26796Y19482D01*
G01X26788Y19462D01*
G01X26782Y19440D01*
G01X26778Y19414D01*
G01X26776Y19385D01*
G01X26775Y19352D01*
G01X26775Y19325D01*
G01X26777Y19300D01*
G01X26779Y19278D01*
G01X26783Y19258D01*
G01X26789Y19240D01*
G01X26795Y19225D01*
G01X26803Y19211D01*
G01X26814Y19200D01*
G01X26826Y19190D01*
G01X26840Y19182D01*
G01X26856Y19176D01*
G01X26874Y19171D01*
G01X26895Y19167D01*
G01X26918Y19165D01*
G01X26944Y19163D01*
G01X26972Y19163D01*
G01X27090Y19164D01*
G01X27084Y19425D01*
G01X27082Y19476D01*
G01X27081Y19519D01*
G01X27079Y19557D01*
G01X27077Y19589D01*
G01X27075Y19616D01*
G01X27072Y19638D01*
G01X27069Y19655D01*
G01X27065Y19669D01*
G01X27060Y19679D01*
G01X27055Y19686D01*
G01X27050Y19691D01*
G01X27043Y19693D01*
G37*

%LPC*%
G36*
G01X26926Y19447D02*
G01X26910Y19448D01*
G01X26896Y19444D01*
G01X26885Y19435D01*
G01X26876Y19422D01*
G01X26870Y19404D01*
G01X26867Y19382D01*
G01X26866Y19355D01*
G01X26868Y19324D01*
G01X26874Y19295D01*
G01X26884Y19275D01*
G01X26899Y19264D01*
G01X26921Y19261D01*
G01X26943Y19264D01*
G01X26957Y19278D01*
G01X26964Y19305D01*
G01X26965Y19350D01*
G01X26963Y19393D01*
G01X26957Y19422D01*
G01X26945Y19439D01*
G01X26926Y19447D01*
G37*

%LPD*%
G36*
G01X27797Y19540D02*
G01X27773Y19541D01*
G01X27734Y19539D01*
G01X27699Y19534D01*
G01X27673Y19526D01*
G01X27660Y19517D01*
G01X27655Y19503D01*
G01X27655Y19490D01*
G01X27662Y19478D01*
G01X27673Y19466D01*
G01X27689Y19457D01*
G01X27708Y19449D01*
G01X27731Y19444D01*
G01X27756Y19442D01*
G01X27786Y19439D01*
G01X27808Y19434D01*
G01X27822Y19426D01*
G01X27828Y19417D01*
G01X27825Y19409D01*
G01X27814Y19401D01*
G01X27795Y19395D01*
G01X27767Y19392D01*
G01X27737Y19389D01*
G01X27710Y19383D01*
G01X27688Y19375D01*
G01X27668Y19363D01*
G01X27652Y19350D01*
G01X27640Y19335D01*
G01X27632Y19317D01*
G01X27627Y19298D01*
G01X27627Y19277D01*
G01X27631Y19254D01*
G01X27638Y19229D01*
G01X27650Y19204D01*
G01X27658Y19192D01*
G01X27667Y19182D01*
G01X27679Y19175D01*
G01X27694Y19169D01*
G01X27714Y19166D01*
G01X27739Y19163D01*
G01X27807Y19163D01*
G01X27941Y19165D01*
G01X27941Y19336D01*
G01X27939Y19367D01*
G01X27937Y19394D01*
G01X27934Y19419D01*
G01X27929Y19440D01*
G01X27923Y19460D01*
G01X27915Y19477D01*
G01X27906Y19492D01*
G01X27896Y19504D01*
G01X27884Y19515D01*
G01X27870Y19523D01*
G01X27855Y19530D01*
G01X27837Y19535D01*
G01X27818Y19538D01*
G01X27797Y19540D01*
G37*

%LPC*%
G36*
G01X27794Y19312D02*
G01X27762Y19313D01*
G01X27738Y19305D01*
G01X27722Y19289D01*
G01X27717Y19267D01*
G01X27722Y19258D01*
G01X27735Y19254D01*
G01X27753Y19253D01*
G01X27774Y19254D01*
G01X27795Y19258D01*
G01X27814Y19265D01*
G01X27828Y19273D01*
G01X27835Y19283D01*
G01X27834Y19292D01*
G01X27826Y19301D01*
G01X27812Y19308D01*
G01X27794Y19312D01*
G37*

%LPD*%
G36*
G01X28421Y19540D02*
G01X28399Y19540D01*
G01X28378Y19539D01*
G01X28357Y19534D01*
G01X28337Y19528D01*
G01X28318Y19519D01*
G01X28302Y19507D01*
G01X28287Y19494D01*
G01X28277Y19482D01*
G01X28268Y19467D01*
G01X28261Y19452D01*
G01X28255Y19434D01*
G01X28250Y19415D01*
G01X28247Y19395D01*
G01X28245Y19373D01*
G01X28244Y19351D01*
G01X28245Y19320D01*
G01X28249Y19292D01*
G01X28255Y19267D01*
G01X28263Y19244D01*
G01X28273Y19225D01*
G01X28286Y19207D01*
G01X28302Y19193D01*
G01X28319Y19181D01*
G01X28339Y19172D01*
G01X28362Y19165D01*
G01X28386Y19161D01*
G01X28413Y19160D01*
G01X28443Y19162D01*
G01X28472Y19168D01*
G01X28497Y19178D01*
G01X28518Y19190D01*
G01X28534Y19203D01*
G01X28543Y19217D01*
G01X28545Y19231D01*
G01X28537Y19244D01*
G01X28524Y19251D01*
G01X28502Y19256D01*
G01X28473Y19259D01*
G01X28440Y19261D01*
G01X28409Y19263D01*
G01X28381Y19269D01*
G01X28361Y19278D01*
G01X28351Y19289D01*
G01X28353Y19302D01*
G01X28371Y19310D01*
G01X28405Y19315D01*
G01X28458Y19317D01*
G01X28575Y19317D01*
G01X28561Y19388D01*
G01X28552Y19419D01*
G01X28540Y19451D01*
G01X28525Y19479D01*
G01X28510Y19501D01*
G01X28496Y19513D01*
G01X28479Y19523D01*
G01X28461Y19532D01*
G01X28441Y19537D01*
G01X28421Y19540D01*
G37*

%LPC*%
G36*
G01X28419Y19450D02*
G01X28387Y19450D01*
G01X28360Y19436D01*
G01X28346Y19415D01*
G01X28349Y19399D01*
G01X28368Y19388D01*
G01X28401Y19384D01*
G01X28425Y19386D01*
G01X28442Y19393D01*
G01X28453Y19404D01*
G01X28457Y19418D01*
G01X28446Y19439D01*
G01X28419Y19450D01*
G37*

%LPD*%
G36*
G01X28185Y19538D02*
G01X28121Y19538D01*
G01X27986Y19536D01*
G01X27986Y19290D01*
G01X27988Y19246D01*
G01X27989Y19212D01*
G01X27993Y19189D01*
G01X27999Y19174D01*
G01X28007Y19165D01*
G01X28017Y19161D01*
G01X28031Y19160D01*
G01X28054Y19163D01*
G01X28068Y19177D01*
G01X28074Y19206D01*
G01X28076Y19255D01*
G01X28077Y19290D01*
G01X28078Y19321D01*
G01X28081Y19349D01*
G01X28084Y19373D01*
G01X28088Y19393D01*
G01X28093Y19410D01*
G01X28100Y19423D01*
G01X28108Y19434D01*
G01X28117Y19442D01*
G01X28127Y19446D01*
G01X28139Y19448D01*
G01X28152Y19448D01*
G01X28173Y19446D01*
G01X28193Y19448D01*
G01X28210Y19453D01*
G01X28226Y19459D01*
G01X28238Y19469D01*
G01X28247Y19480D01*
G01X28253Y19493D01*
G01X28256Y19508D01*
G01X28254Y19517D01*
G01X28249Y19523D01*
G01X28240Y19529D01*
G01X28227Y19533D01*
G01X28208Y19536D01*
G01X28185Y19538D01*
G37*

%LPD*%
G36*
G01X26709Y19537D02*
G01X26651Y19538D01*
G01X26528Y19536D01*
G01X26528Y19291D01*
G01X26529Y19246D01*
G01X26531Y19213D01*
G01X26535Y19190D01*
G01X26540Y19174D01*
G01X26548Y19165D01*
G01X26558Y19161D01*
G01X26572Y19160D01*
G01X26585Y19161D01*
G01X26595Y19165D01*
G01X26603Y19172D01*
G01X26609Y19184D01*
G01X26614Y19202D01*
G01X26617Y19227D01*
G01X26620Y19259D01*
G01X26622Y19300D01*
G01X26625Y19341D01*
G01X26627Y19374D01*
G01X26631Y19398D01*
G01X26635Y19416D01*
G01X26642Y19428D01*
G01X26650Y19436D01*
G01X26660Y19440D01*
G01X26674Y19441D01*
G01X26715Y19446D01*
G01X26747Y19461D01*
G01X26767Y19482D01*
G01X26775Y19508D01*
G01X26768Y19523D01*
G01X26747Y19532D01*
G01X26709Y19537D01*
G37*

%LPD*%
G36*
G01X26330Y19539D02*
G01X26297Y19540D01*
G01X26265Y19538D01*
G01X26236Y19534D01*
G01X26213Y19526D01*
G01X26196Y19515D01*
G01X26184Y19498D01*
G01X26180Y19483D01*
G01X26185Y19469D01*
G01X26196Y19458D01*
G01X26213Y19449D01*
G01X26235Y19444D01*
G01X26263Y19442D01*
G01X26294Y19445D01*
G01X26331Y19449D01*
G01X26355Y19448D01*
G01X26367Y19439D01*
G01X26371Y19422D01*
G01X26366Y19405D01*
G01X26349Y19393D01*
G01X26319Y19385D01*
G01X26276Y19380D01*
G01X26248Y19377D01*
G01X26226Y19374D01*
G01X26209Y19369D01*
G01X26194Y19363D01*
G01X26183Y19355D01*
G01X26174Y19344D01*
G01X26167Y19329D01*
G01X26160Y19312D01*
G01X26153Y19288D01*
G01X26151Y19267D01*
G01X26152Y19247D01*
G01X26158Y19229D01*
G01X26168Y19213D01*
G01X26181Y19199D01*
G01X26198Y19187D01*
G01X26219Y19178D01*
G01X26244Y19170D01*
G01X26273Y19164D01*
G01X26305Y19161D01*
G01X26341Y19160D01*
G01X26460Y19160D01*
G01X26460Y19376D01*
G01X26459Y19415D01*
G01X26456Y19445D01*
G01X26453Y19469D01*
G01X26447Y19486D01*
G01X26439Y19500D01*
G01X26430Y19510D01*
G01X26417Y19518D01*
G01X26392Y19528D01*
G01X26363Y19535D01*
G01X26330Y19539D01*
G37*

%LPC*%
G36*
G01X26340Y19315D02*
G01X26318Y19317D01*
G01X26280Y19313D01*
G01X26255Y19303D01*
G01X26244Y19288D01*
G01X26249Y19269D01*
G01X26260Y19258D01*
G01X26277Y19252D01*
G01X26297Y19249D01*
G01X26318Y19250D01*
G01X26338Y19254D01*
G01X26355Y19261D01*
G01X26367Y19271D01*
G01X26371Y19283D01*
G01X26367Y19297D01*
G01X26356Y19307D01*
G01X26340Y19315D01*
G37*

%LPD*%
G36*
G01X25944Y20119D02*
G01X25810Y20119D01*
G01X25810Y19413D01*
G01X25811Y19370D01*
G01X25811Y19333D01*
G01X25812Y19300D01*
G01X25813Y19271D01*
G01X25814Y19247D01*
G01X25816Y19227D01*
G01X25818Y19210D01*
G01X25820Y19196D01*
G01X25823Y19185D01*
G01X25826Y19176D01*
G01X25829Y19170D01*
G01X25833Y19165D01*
G01X25837Y19163D01*
G01X25842Y19161D01*
G01X25848Y19160D01*
G01X25854Y19160D01*
G01X25867Y19161D01*
G01X25877Y19165D01*
G01X25885Y19172D01*
G01X25891Y19184D01*
G01X25896Y19202D01*
G01X25899Y19227D01*
G01X25902Y19259D01*
G01X25904Y19300D01*
G01X25906Y19339D01*
G01X25909Y19371D01*
G01X25913Y19396D01*
G01X25918Y19415D01*
G01X25924Y19429D01*
G01X25931Y19438D01*
G01X25941Y19444D01*
G01X25953Y19448D01*
G01X25973Y19449D01*
G01X25990Y19445D01*
G01X26005Y19435D01*
G01X26015Y19418D01*
G01X26024Y19394D01*
G01X26030Y19363D01*
G01X26033Y19325D01*
G01X26034Y19278D01*
G01X26034Y19243D01*
G01X26036Y19216D01*
G01X26038Y19195D01*
G01X26042Y19180D01*
G01X26048Y19170D01*
G01X26056Y19164D01*
G01X26066Y19161D01*
G01X26079Y19160D01*
G01X26093Y19161D01*
G01X26103Y19164D01*
G01X26111Y19171D01*
G01X26117Y19183D01*
G01X26120Y19201D01*
G01X26123Y19226D01*
G01X26124Y19259D01*
G01X26124Y19301D01*
G01X26123Y19334D01*
G01X26122Y19364D01*
G01X26119Y19391D01*
G01X26116Y19416D01*
G01X26111Y19439D01*
G01X26105Y19459D01*
G01X26098Y19477D01*
G01X26090Y19492D01*
G01X26080Y19505D01*
G01X26069Y19515D01*
G01X26057Y19524D01*
G01X26044Y19531D01*
G01X26029Y19535D01*
G01X26013Y19538D01*
G01X25995Y19538D01*
G01X25900Y19528D01*
G01X25900Y19685D01*
G01X25901Y19714D01*
G01X25903Y19734D01*
G01X25906Y19746D01*
G01X25912Y19753D01*
G01X25920Y19753D01*
G01X25931Y19750D01*
G01X25946Y19742D01*
G01X25961Y19736D01*
G01X25978Y19733D01*
G01X25995Y19734D01*
G01X26012Y19737D01*
G01X26029Y19743D01*
G01X26046Y19752D01*
G01X26061Y19763D01*
G01X26076Y19776D01*
G01X26089Y19791D01*
G01X26100Y19807D01*
G01X26109Y19826D01*
G01X26115Y19846D01*
G01X26119Y19867D01*
G01X26122Y19890D01*
G01X26122Y19914D01*
G01X26121Y19939D01*
G01X26118Y19964D01*
G01X26114Y19988D01*
G01X26109Y20012D01*
G01X26103Y20034D01*
G01X26096Y20053D01*
G01X26087Y20071D01*
G01X26078Y20084D01*
G01X26068Y20094D01*
G01X26059Y20099D01*
G01X26045Y20104D01*
G01X26029Y20108D01*
G01X26010Y20112D01*
G01X25989Y20115D01*
G01X25967Y20117D01*
G01X25944Y20119D01*
G37*

%LPC*%
G36*
G01X25992Y20020D02*
G01X25971Y20032D01*
G01X25949Y20027D01*
G01X25923Y20003D01*
G01X25910Y19980D01*
G01X25902Y19955D01*
G01X25901Y19929D01*
G01X25904Y19903D01*
G01X25912Y19879D01*
G01X25924Y19859D01*
G01X25940Y19844D01*
G01X25960Y19837D01*
G01X25982Y19838D01*
G01X26000Y19847D01*
G01X26014Y19862D01*
G01X26024Y19882D01*
G01X26029Y19906D01*
G01X26030Y19933D01*
G01X26024Y19960D01*
G01X26013Y19988D01*
G01X25992Y20020D01*
G37*

%LPD*%
G54D10*
G01X28689Y18023D02*
G01X28689Y9676D01*
G01X24910Y9676D01*
G01X24910Y18023D01*
G01X28689Y18023D01*
G01X10593Y8976D02*
G01X11533Y8976D01*
G01X11533Y8976D02*
G01X11533Y6496D01*
G01X11533Y6496D02*
G01X10593Y6496D01*
G01X10593Y6496D02*
G01X10593Y8976D01*
G01X13183Y6496D02*
G01X12243Y6496D01*
G01X12243Y6496D02*
G01X12243Y8976D01*
G01X12243Y8976D02*
G01X13183Y8976D01*
G01X13183Y8976D02*
G01X13183Y6496D01*
G01X14819Y6509D02*
G01X13880Y6509D01*
G01X13880Y6509D02*
G01X13880Y8990D01*
G01X13880Y8990D02*
G01X14819Y8990D01*
G01X14819Y8990D02*
G01X14819Y6509D01*
G01X7810Y21430D02*
G01X7810Y22369D01*
G01X7810Y22369D02*
G01X10289Y22369D01*
G01X10289Y22369D02*
G01X10289Y21430D01*
G01X10289Y21430D02*
G01X7810Y21430D01*
G54D28*
G01X11550Y10600D02*
G01X10550Y10600D01*
G01X10550Y13800D01*
G01X12550Y13800D01*
G01X12550Y10600D01*
G01X11550Y10600D01*
G01X7150Y6750D02*
G01X7150Y5750D01*
G01X3950Y5750D01*
G01X3950Y7750D01*
G01X7150Y7750D01*
G01X7150Y6750D01*
G01X7150Y9350D02*
G01X7150Y8350D01*
G01X3950Y8350D01*
G01X3950Y10350D01*
G01X7150Y10350D01*
G01X7150Y9350D01*
G01X7150Y11900D02*
G01X7150Y10900D01*
G01X3950Y10900D01*
G01X3950Y12900D01*
G01X7150Y12900D01*
G01X7150Y11900D01*
G54D10*
G01X25150Y3950D02*
G01X25150Y950D01*
G01X25150Y950D01*
G01X25150Y3950D02*
G01X29150Y3950D01*
G01X25150Y950D02*
G01X29150Y950D01*
G01X29150Y3950D02*
G01X29150Y950D01*
G01X2100Y750D02*
G01X9100Y750D01*
G01X9100Y750D02*
G01X9100Y17750D01*
G01X9100Y17750D02*
G01X2100Y17750D01*
G01X2100Y17750D02*
G01X2100Y750D01*
G01X4100Y2250D02*
G01X4100Y-750D01*
G01X7100Y-750D01*
G01X7100Y2250D01*
G01X4100Y2250D01*
G01X157Y22282D02*
G01X157Y18758D01*
G01X5512Y18758D01*
G01X5512Y22282D01*
G01X157Y22282D01*
G01X1083Y18758D02*
G01X1083Y22282D01*
G01X33852Y15236D02*
G01X33852Y11063D01*
G01X31962Y11063D01*
G01X31962Y15236D01*
G01X33852Y15236D01*
G01X33655Y11063D02*
G01X33655Y15236D01*
G54D11*
G01X18530Y3590D02*
G01X16830Y3590D01*
G01X16830Y1190D02*
G01X18530Y1190D01*
G01X18880Y2782D02*
G01X18880Y1990D01*
G01X16480Y2794D02*
G01X16480Y1990D01*
G01X13743Y3576D02*
G01X12043Y3576D01*
G01X12043Y1176D02*
G01X13743Y1176D01*
G01X14093Y2769D02*
G01X14093Y1976D01*
G01X11693Y2781D02*
G01X11693Y1976D01*
G01X23169Y3590D02*
G01X21469Y3590D01*
G01X21469Y1190D02*
G01X23169Y1190D01*
G01X23519Y2782D02*
G01X23519Y1990D01*
G01X21119Y2794D02*
G01X21119Y1990D01*
G54D10*
G01X26150Y6100D02*
G01X26550Y6100D01*
G01X26350Y6300D02*
G01X26350Y5900D01*
G01X8388Y18872D02*
G01X9411Y18872D01*
G01X18650Y9900D02*
G01X18650Y5900D01*
G01X18650Y9900D02*
G01X17050Y9900D01*
G01X18650Y5900D02*
G01X16650Y5900D01*
G01X16650Y9900D02*
G01X16650Y5900D01*
G01X16650Y9900D02*
G01X17050Y9900D01*
G01X17050Y9900D02*
G01X17250Y9900D01*
G01X13426Y22424D02*
G01X24173Y22424D01*
G01X24173Y11479D01*
G01X13426Y11479D01*
G01X13426Y22424D01*
G01X13544Y20742D02*
G01X24055Y20742D01*
G01X24055Y13160D01*
G01X13544Y13160D01*
G01X13544Y20742D01*
G01X33754Y13250D02*
G01X33754Y9903D01*
G01X33754Y9903D02*
G01X29128Y9903D01*
G01X32179Y9116D02*
G01X29128Y9116D01*
G01X32179Y9116D02*
G01X29128Y7738D01*
G01X32179Y8328D02*
G01X29128Y6950D01*
G01X29128Y5651D02*
G01X32179Y8328D01*
G01X29522Y5061D02*
G01X32573Y7738D01*
G01X32573Y7738D02*
G01X32947Y7423D01*
G01X32967Y7423D02*
G01X31490Y5061D01*
G01X33557Y7423D02*
G01X32081Y5061D01*
G01X34345Y13250D02*
G01X34345Y9903D01*
G01X34345Y9903D02*
G01X38971Y9903D01*
G01X35934Y9116D02*
G01X38985Y9116D01*
G01X35934Y9116D02*
G01X38985Y7738D01*
G01X35934Y8328D02*
G01X38985Y6950D01*
G01X38985Y5651D02*
G01X35934Y8328D01*
G01X38592Y5061D02*
G01X35541Y7738D01*
G01X35541Y7738D02*
G01X35167Y7423D01*
G01X35147Y7423D02*
G01X36623Y5061D01*
G01X34556Y7423D02*
G01X36033Y5061D01*
G01X33754Y13250D02*
G01X33754Y9903D01*
G01X33754Y9903D02*
G01X29128Y9903D01*
G01X32179Y9116D02*
G01X29128Y9116D01*
G01X32179Y9116D02*
G01X29128Y7738D01*
G01X32179Y8328D02*
G01X29128Y6950D01*
G01X29128Y5651D02*
G01X32179Y8328D01*
G01X29522Y5061D02*
G01X32573Y7738D01*
G01X32573Y7738D02*
G01X32947Y7423D01*
G01X32967Y7423D02*
G01X31490Y5061D01*
G01X33557Y7423D02*
G01X32081Y5061D01*
G01X33754Y13261D02*
G01X33754Y16607D01*
G01X33754Y16607D02*
G01X29128Y16607D01*
G01X32179Y17394D02*
G01X29128Y17394D01*
G01X32179Y17394D02*
G01X29128Y18772D01*
G01X32179Y18182D02*
G01X29128Y19560D01*
G01X29128Y20859D02*
G01X32179Y18182D01*
G01X29522Y21450D02*
G01X32573Y18772D01*
G01X32573Y18772D02*
G01X32947Y19087D01*
G01X32967Y19087D02*
G01X31490Y21450D01*
G01X33557Y19087D02*
G01X32081Y21450D01*
G01X34360Y13261D02*
G01X34360Y16607D01*
G01X34345Y16607D02*
G01X38971Y16607D01*
G01X35920Y17394D02*
G01X38971Y17394D01*
G01X35920Y17394D02*
G01X38971Y18772D01*
G01X35920Y18182D02*
G01X38971Y19560D01*
G01X38971Y20859D02*
G01X35920Y18182D01*
G01X38577Y21450D02*
G01X35526Y18772D01*
G01X35526Y18772D02*
G01X35152Y19087D01*
G01X35132Y19087D02*
G01X36609Y21450D01*
G01X34542Y19087D02*
G01X36018Y21450D01*
G01X33754Y13261D02*
G01X33754Y16607D01*
G01X33754Y16607D02*
G01X29128Y16607D01*
G01X32179Y17394D02*
G01X29128Y17394D01*
G01X32179Y17394D02*
G01X29128Y18772D01*
G01X32179Y18182D02*
G01X29128Y19560D01*
G01X29128Y20859D02*
G01X32179Y18182D01*
G01X29522Y21450D02*
G01X32573Y18772D01*
G01X32573Y18772D02*
G01X32947Y19087D01*
G01X32967Y19087D02*
G01X31490Y21450D01*
G01X33557Y19087D02*
G01X32081Y21450D01*
G54D30*
G01X26105Y750D02*
G01X26105Y340D01*
G01X25900Y544D02*
G01X26309Y544D01*
G01X28000Y500D02*
G01X28490Y500D01*
G54D11*
G01X8440Y24163D02*
G01X8150Y23400D01*
G01X8440Y24163D02*
G01X8731Y23400D01*
G01X8259Y23654D02*
G01X8622Y23654D01*
G01X8972Y23909D02*
G01X8972Y23400D01*
G01X8972Y23691D02*
G01X9007Y23800D01*
G01X9081Y23872D01*
G01X9153Y23909D01*
G01X9263Y23909D01*
G01X9939Y24163D02*
G01X9939Y23400D01*
G01X9939Y23800D02*
G01X9865Y23872D01*
G01X9793Y23909D01*
G01X9685Y23909D01*
G01X9611Y23872D01*
G01X9539Y23800D01*
G01X9502Y23691D01*
G01X9502Y23618D01*
G01X9539Y23509D01*
G01X9611Y23436D01*
G01X9685Y23400D01*
G01X9793Y23400D01*
G01X9865Y23436D01*
G01X9939Y23509D01*
G01X10178Y23909D02*
G01X10178Y23545D01*
G01X10214Y23436D01*
G01X10288Y23400D01*
G01X10397Y23400D01*
G01X10469Y23436D01*
G01X10578Y23545D01*
G01X10578Y23909D02*
G01X10578Y23400D01*
G01X10818Y24163D02*
G01X10855Y24127D01*
G01X10892Y24163D01*
G01X10855Y24200D01*
G01X10818Y24163D01*
G01X10855Y23909D02*
G01X10855Y23400D01*
G01X11131Y23909D02*
G01X11131Y23400D01*
G01X11131Y23763D02*
G01X11240Y23872D01*
G01X11314Y23909D01*
G01X11422Y23909D01*
G01X11494Y23872D01*
G01X11531Y23763D01*
G01X11531Y23400D01*
G01X11953Y23909D02*
G01X11881Y23872D01*
G01X11807Y23800D01*
G01X11772Y23691D01*
G01X11772Y23618D01*
G01X11807Y23509D01*
G01X11881Y23436D01*
G01X11953Y23400D01*
G01X12063Y23400D01*
G01X12135Y23436D01*
G01X12207Y23509D01*
G01X12244Y23618D01*
G01X12244Y23691D01*
G01X12207Y23800D01*
G01X12135Y23872D01*
G01X12063Y23909D01*
G01X11953Y23909D01*
G01X13044Y24163D02*
G01X13044Y23400D01*
G01X13044Y24163D02*
G01X13372Y24163D01*
G01X13481Y24127D01*
G01X13517Y24091D01*
G01X13553Y24018D01*
G01X13553Y23945D01*
G01X13517Y23872D01*
G01X13481Y23836D01*
G01X13372Y23800D01*
G01X13044Y23800D02*
G01X13372Y23800D01*
G01X13481Y23763D01*
G01X13517Y23727D01*
G01X13553Y23654D01*
G01X13553Y23545D01*
G01X13517Y23472D01*
G01X13481Y23436D01*
G01X13372Y23400D01*
G01X13044Y23400D01*
G01X14230Y23909D02*
G01X14230Y23400D01*
G01X14230Y23800D02*
G01X14156Y23872D01*
G01X14085Y23909D01*
G01X13975Y23909D01*
G01X13902Y23872D01*
G01X13830Y23800D01*
G01X13793Y23691D01*
G01X13793Y23618D01*
G01X13830Y23509D01*
G01X13902Y23436D01*
G01X13975Y23400D01*
G01X14085Y23400D01*
G01X14156Y23436D01*
G01X14230Y23509D01*
G01X14578Y24163D02*
G01X14578Y23545D01*
G01X14614Y23436D01*
G01X14688Y23400D01*
G01X14760Y23400D01*
G01X14469Y23909D02*
G01X14725Y23909D01*
G01X15110Y24163D02*
G01X15110Y23545D01*
G01X15146Y23436D01*
G01X15218Y23400D01*
G01X15292Y23400D01*
G01X15001Y23909D02*
G01X15255Y23909D01*
G01X15531Y23691D02*
G01X15968Y23691D01*
G01X15968Y23763D01*
G01X15931Y23836D01*
G01X15894Y23872D01*
G01X15822Y23909D01*
G01X15714Y23909D01*
G01X15640Y23872D01*
G01X15568Y23800D01*
G01X15531Y23691D01*
G01X15531Y23618D01*
G01X15568Y23509D01*
G01X15640Y23436D01*
G01X15714Y23400D01*
G01X15822Y23400D01*
G01X15894Y23436D01*
G01X15968Y23509D01*
G01X16207Y23909D02*
G01X16207Y23400D01*
G01X16207Y23691D02*
G01X16244Y23800D01*
G01X16317Y23872D01*
G01X16389Y23909D01*
G01X16498Y23909D01*
G01X16775Y23909D02*
G01X16993Y23400D01*
G01X17211Y23909D02*
G01X16993Y23400D01*
G01X16921Y23254D01*
G01X16847Y23182D01*
G01X16775Y23145D01*
G01X16739Y23145D01*
G01X18556Y23982D02*
G01X18521Y24054D01*
G01X18447Y24127D01*
G01X18375Y24163D01*
G01X18230Y24163D01*
G01X18156Y24127D01*
G01X18085Y24054D01*
G01X18047Y23982D01*
G01X18011Y23872D01*
G01X18011Y23691D01*
G01X18047Y23582D01*
G01X18085Y23509D01*
G01X18156Y23436D01*
G01X18230Y23400D01*
G01X18375Y23400D01*
G01X18447Y23436D01*
G01X18521Y23509D01*
G01X18556Y23582D01*
G01X19234Y23909D02*
G01X19234Y23400D01*
G01X19234Y23800D02*
G01X19160Y23872D01*
G01X19088Y23909D01*
G01X18978Y23909D01*
G01X18906Y23872D01*
G01X18834Y23800D01*
G01X18797Y23691D01*
G01X18797Y23618D01*
G01X18834Y23509D01*
G01X18906Y23436D01*
G01X18978Y23400D01*
G01X19088Y23400D01*
G01X19160Y23436D01*
G01X19234Y23509D01*
G01X19473Y23909D02*
G01X19473Y23145D01*
G01X19473Y23800D02*
G01X19546Y23872D01*
G01X19618Y23909D01*
G01X19727Y23909D01*
G01X19801Y23872D01*
G01X19873Y23800D01*
G01X19910Y23691D01*
G01X19910Y23618D01*
G01X19873Y23509D01*
G01X19801Y23436D01*
G01X19727Y23400D01*
G01X19618Y23400D01*
G01X19546Y23436D01*
G01X19473Y23509D01*
G01X20585Y23909D02*
G01X20585Y23400D01*
G01X20585Y23800D02*
G01X20514Y23872D01*
G01X20440Y23909D01*
G01X20331Y23909D01*
G01X20259Y23872D01*
G01X20185Y23800D01*
G01X20150Y23691D01*
G01X20150Y23618D01*
G01X20185Y23509D01*
G01X20259Y23436D01*
G01X20331Y23400D01*
G01X20440Y23400D01*
G01X20514Y23436D01*
G01X20585Y23509D01*
G01X21263Y23800D02*
G01X21189Y23872D01*
G01X21117Y23909D01*
G01X21007Y23909D01*
G01X20935Y23872D01*
G01X20863Y23800D01*
G01X20826Y23691D01*
G01X20826Y23618D01*
G01X20863Y23509D01*
G01X20935Y23436D01*
G01X21007Y23400D01*
G01X21117Y23400D01*
G01X21189Y23436D01*
G01X21263Y23509D01*
G01X21502Y24163D02*
G01X21539Y24127D01*
G01X21575Y24163D01*
G01X21539Y24200D01*
G01X21502Y24163D01*
G01X21539Y23909D02*
G01X21539Y23400D01*
G01X21925Y24163D02*
G01X21925Y23545D01*
G01X21960Y23436D01*
G01X22034Y23400D01*
G01X22106Y23400D01*
G01X21814Y23909D02*
G01X22069Y23909D01*
G01X22382Y23909D02*
G01X22601Y23400D01*
G01X22818Y23909D02*
G01X22601Y23400D01*
G01X22527Y23254D01*
G01X22455Y23182D01*
G01X22382Y23145D01*
G01X22346Y23145D01*
G01X23873Y24163D02*
G01X23873Y23400D01*
G01X23618Y24163D02*
G01X24127Y24163D01*
G01X24368Y23691D02*
G01X24805Y23691D01*
G01X24805Y23763D01*
G01X24768Y23836D01*
G01X24731Y23872D01*
G01X24659Y23909D01*
G01X24550Y23909D01*
G01X24477Y23872D01*
G01X24405Y23800D01*
G01X24368Y23691D01*
G01X24368Y23618D01*
G01X24405Y23509D01*
G01X24477Y23436D01*
G01X24550Y23400D01*
G01X24659Y23400D01*
G01X24731Y23436D01*
G01X24805Y23509D01*
G01X25444Y23800D02*
G01X25407Y23872D01*
G01X25298Y23909D01*
G01X25189Y23909D01*
G01X25081Y23872D01*
G01X25044Y23800D01*
G01X25081Y23727D01*
G01X25153Y23691D01*
G01X25335Y23654D01*
G01X25407Y23618D01*
G01X25444Y23545D01*
G01X25444Y23509D01*
G01X25407Y23436D01*
G01X25298Y23400D01*
G01X25189Y23400D01*
G01X25081Y23436D01*
G01X25044Y23509D01*
G01X25793Y24163D02*
G01X25793Y23545D01*
G01X25830Y23436D01*
G01X25902Y23400D01*
G01X25975Y23400D01*
G01X25685Y23909D02*
G01X25939Y23909D01*
G01X26214Y23691D02*
G01X26652Y23691D01*
G01X26652Y23763D01*
G01X26614Y23836D01*
G01X26578Y23872D01*
G01X26506Y23909D01*
G01X26397Y23909D01*
G01X26325Y23872D01*
G01X26252Y23800D01*
G01X26214Y23691D01*
G01X26214Y23618D01*
G01X26252Y23509D01*
G01X26325Y23436D01*
G01X26397Y23400D01*
G01X26506Y23400D01*
G01X26578Y23436D01*
G01X26652Y23509D01*
G01X26892Y23909D02*
G01X26892Y23400D01*
G01X26892Y23691D02*
G01X26927Y23800D01*
G01X27001Y23872D01*
G01X27073Y23909D01*
G01X27182Y23909D01*
G01X27982Y24163D02*
G01X28273Y23400D01*
G01X28564Y24163D02*
G01X28273Y23400D01*
G01X28840Y23982D02*
G01X28840Y24018D01*
G01X28877Y24091D01*
G01X28914Y24127D01*
G01X28985Y24163D01*
G01X29131Y24163D01*
G01X29205Y24127D01*
G01X29240Y24091D01*
G01X29277Y24018D01*
G01X29277Y23945D01*
G01X29240Y23872D01*
G01X29168Y23763D01*
G01X28805Y23400D01*
G01X29314Y23400D01*
G01X29589Y23582D02*
G01X29553Y23545D01*
G01X29589Y23509D01*
G01X29626Y23545D01*
G01X29589Y23582D01*
G01X30085Y24163D02*
G01X29975Y24127D01*
G01X29902Y24018D01*
G01X29865Y23836D01*
G01X29865Y23727D01*
G01X29902Y23545D01*
G01X29975Y23436D01*
G01X30085Y23400D01*
G01X30156Y23400D01*
G01X30265Y23436D01*
G01X30339Y23545D01*
G01X30375Y23727D01*
G01X30375Y23836D01*
G01X30339Y24018D01*
G01X30265Y24127D01*
G01X30156Y24163D01*
G01X30085Y24163D01*
G54D31*
G01X29500Y750D02*
G01X29572Y495D01*
G01X29644Y750D02*
G01X29572Y495D01*
G01X29644Y750D02*
G01X29718Y495D01*
G01X29790Y750D02*
G01X29718Y495D01*
G01X29910Y750D02*
G01X29984Y495D01*
G01X30056Y750D02*
G01X29984Y495D01*
G01X30056Y750D02*
G01X30128Y495D01*
G01X30202Y750D02*
G01X30128Y495D01*
G01X30322Y750D02*
G01X30394Y495D01*
G01X30467Y750D02*
G01X30394Y495D01*
G01X30467Y750D02*
G01X30539Y495D01*
G01X30613Y750D02*
G01X30539Y495D01*
G01X30751Y586D02*
G01X30732Y568D01*
G01X30751Y550D01*
G01X30768Y568D01*
G01X30751Y586D01*
G01X30980Y750D02*
G01X30943Y732D01*
G01X30906Y695D01*
G01X30889Y641D01*
G01X30889Y604D01*
G01X30906Y550D01*
G01X30943Y514D01*
G01X30980Y495D01*
G01X31035Y495D01*
G01X31071Y514D01*
G01X31106Y550D01*
G01X31125Y604D01*
G01X31125Y641D01*
G01X31106Y695D01*
G01X31071Y732D01*
G01X31035Y750D01*
G01X30980Y750D01*
G01X31244Y750D02*
G01X31244Y368D01*
G01X31244Y695D02*
G01X31281Y732D01*
G01X31318Y750D01*
G01X31372Y750D01*
G01X31409Y732D01*
G01X31444Y695D01*
G01X31464Y641D01*
G01X31464Y604D01*
G01X31444Y550D01*
G01X31409Y514D01*
G01X31372Y495D01*
G01X31318Y495D01*
G01X31281Y514D01*
G01X31244Y550D01*
G01X31584Y641D02*
G01X31802Y641D01*
G01X31802Y677D01*
G01X31784Y714D01*
G01X31764Y732D01*
G01X31728Y750D01*
G01X31675Y750D01*
G01X31638Y732D01*
G01X31602Y695D01*
G01X31584Y641D01*
G01X31584Y604D01*
G01X31602Y550D01*
G01X31638Y514D01*
G01X31675Y495D01*
G01X31728Y495D01*
G01X31764Y514D01*
G01X31802Y550D01*
G01X31922Y750D02*
G01X31922Y495D01*
G01X31922Y677D02*
G01X31976Y732D01*
G01X32013Y750D01*
G01X32067Y750D01*
G01X32103Y732D01*
G01X32122Y677D01*
G01X32122Y495D01*
G01X32460Y750D02*
G01X32460Y459D01*
G01X32442Y404D01*
G01X32423Y386D01*
G01X32386Y368D01*
G01X32332Y368D01*
G01X32296Y386D01*
G01X32460Y695D02*
G01X32423Y732D01*
G01X32386Y750D01*
G01X32332Y750D01*
G01X32296Y732D01*
G01X32260Y695D01*
G01X32242Y641D01*
G01X32242Y604D01*
G01X32260Y550D01*
G01X32296Y514D01*
G01X32332Y495D01*
G01X32386Y495D01*
G01X32423Y514D01*
G01X32460Y550D01*
G01X32580Y750D02*
G01X32580Y495D01*
G01X32580Y641D02*
G01X32597Y695D01*
G01X32635Y732D01*
G01X32671Y750D01*
G01X32725Y750D01*
G01X32844Y641D02*
G01X33064Y641D01*
G01X33064Y677D01*
G01X33044Y714D01*
G01X33027Y732D01*
G01X32990Y750D01*
G01X32935Y750D01*
G01X32900Y732D01*
G01X32864Y695D01*
G01X32844Y641D01*
G01X32844Y604D01*
G01X32864Y550D01*
G01X32900Y514D01*
G01X32935Y495D01*
G01X32990Y495D01*
G01X33027Y514D01*
G01X33064Y550D01*
G01X33184Y641D02*
G01X33402Y641D01*
G01X33402Y677D01*
G01X33384Y714D01*
G01X33364Y732D01*
G01X33329Y750D01*
G01X33275Y750D01*
G01X33238Y732D01*
G01X33202Y695D01*
G01X33184Y641D01*
G01X33184Y604D01*
G01X33202Y550D01*
G01X33238Y514D01*
G01X33275Y495D01*
G01X33329Y495D01*
G01X33364Y514D01*
G01X33402Y550D01*
G01X33522Y750D02*
G01X33522Y495D01*
G01X33522Y677D02*
G01X33576Y732D01*
G01X33613Y750D01*
G01X33667Y750D01*
G01X33704Y732D01*
G01X33722Y677D01*
G01X33722Y495D01*
G01X33842Y641D02*
G01X34060Y641D01*
G01X34060Y677D01*
G01X34042Y714D01*
G01X34023Y732D01*
G01X33986Y750D01*
G01X33932Y750D01*
G01X33896Y732D01*
G01X33860Y695D01*
G01X33842Y641D01*
G01X33842Y604D01*
G01X33860Y550D01*
G01X33896Y514D01*
G01X33932Y495D01*
G01X33986Y495D01*
G01X34023Y514D01*
G01X34060Y550D01*
G01X34180Y750D02*
G01X34180Y495D01*
G01X34180Y677D02*
G01X34235Y732D01*
G01X34271Y750D01*
G01X34325Y750D01*
G01X34361Y732D01*
G01X34380Y677D01*
G01X34380Y495D01*
G01X34500Y641D02*
G01X34718Y641D01*
G01X34718Y677D01*
G01X34700Y714D01*
G01X34681Y732D01*
G01X34644Y750D01*
G01X34590Y750D01*
G01X34555Y732D01*
G01X34518Y695D01*
G01X34500Y641D01*
G01X34500Y604D01*
G01X34518Y550D01*
G01X34555Y514D01*
G01X34590Y495D01*
G01X34644Y495D01*
G01X34681Y514D01*
G01X34718Y550D01*
G01X34838Y750D02*
G01X34838Y495D01*
G01X34838Y641D02*
G01X34856Y695D01*
G01X34893Y732D01*
G01X34929Y750D01*
G01X34984Y750D01*
G01X35322Y750D02*
G01X35322Y459D01*
G01X35304Y404D01*
G01X35285Y386D01*
G01X35248Y368D01*
G01X35194Y368D01*
G01X35157Y386D01*
G01X35322Y695D02*
G01X35285Y732D01*
G01X35248Y750D01*
G01X35194Y750D01*
G01X35157Y732D01*
G01X35122Y695D01*
G01X35104Y641D01*
G01X35104Y604D01*
G01X35122Y550D01*
G01X35157Y514D01*
G01X35194Y495D01*
G01X35248Y495D01*
G01X35285Y514D01*
G01X35322Y550D01*
G01X35460Y750D02*
G01X35568Y495D01*
G01X35677Y750D02*
G01X35568Y495D01*
G01X35532Y423D01*
G01X35496Y386D01*
G01X35460Y368D01*
G01X35442Y368D01*
G01X35815Y586D02*
G01X35797Y568D01*
G01X35815Y550D01*
G01X35835Y568D01*
G01X35815Y586D01*
G01X36172Y695D02*
G01X36135Y732D01*
G01X36100Y750D01*
G01X36044Y750D01*
G01X36009Y732D01*
G01X35972Y695D01*
G01X35955Y641D01*
G01X35955Y604D01*
G01X35972Y550D01*
G01X36009Y514D01*
G01X36044Y495D01*
G01X36100Y495D01*
G01X36135Y514D01*
G01X36172Y550D01*
G01X36384Y750D02*
G01X36347Y732D01*
G01X36310Y695D01*
G01X36293Y641D01*
G01X36293Y604D01*
G01X36310Y550D01*
G01X36347Y514D01*
G01X36384Y495D01*
G01X36438Y495D01*
G01X36475Y514D01*
G01X36510Y550D01*
G01X36529Y604D01*
G01X36529Y641D01*
G01X36510Y695D01*
G01X36475Y732D01*
G01X36438Y750D01*
G01X36384Y750D01*
G01X36648Y750D02*
G01X36648Y495D01*
G01X36648Y677D02*
G01X36704Y732D01*
G01X36739Y750D01*
G01X36794Y750D01*
G01X36831Y732D01*
G01X36848Y677D01*
G01X36848Y495D01*
G01X36848Y677D02*
G01X36904Y732D01*
G01X36939Y750D01*
G01X36994Y750D01*
G01X37031Y732D01*
G01X37048Y677D01*
G01X37048Y495D01*
G54D10*
G01X45253Y24450D02*
G01X45253Y15884D01*
G01X45253Y8565D02*
G01X45253Y0D01*
G01X45103Y23850D02*
G01X45253Y24450D01*
G01X45403Y23850D01*
G01X45103Y600D02*
G01X45253Y0D01*
G01X45403Y600D01*
G01X44844Y9311D02*
G01X44753Y9265D01*
G01X44708Y9129D01*
G01X44708Y9038D01*
G01X44753Y8901D01*
G01X44889Y8811D01*
G01X45117Y8765D01*
G01X45344Y8765D01*
G01X45526Y8811D01*
G01X45617Y8901D01*
G01X45662Y9038D01*
G01X45662Y9083D01*
G01X45617Y9220D01*
G01X45526Y9311D01*
G01X45389Y9356D01*
G01X45344Y9356D01*
G01X45208Y9311D01*
G01X45117Y9220D01*
G01X45071Y9083D01*
G01X45071Y9038D01*
G01X45117Y8901D01*
G01X45208Y8811D01*
G01X45344Y8765D01*
G01X44935Y9701D02*
G01X44889Y9701D01*
G01X44799Y9747D01*
G01X44753Y9792D01*
G01X44708Y9883D01*
G01X44708Y10065D01*
G01X44753Y10156D01*
G01X44799Y10201D01*
G01X44889Y10247D01*
G01X44980Y10247D01*
G01X45071Y10201D01*
G01X45208Y10111D01*
G01X45662Y9656D01*
G01X45662Y10292D01*
G01X45435Y10638D02*
G01X45480Y10592D01*
G01X45526Y10638D01*
G01X45480Y10683D01*
G01X45435Y10638D01*
G01X44889Y10983D02*
G01X44844Y11074D01*
G01X44708Y11211D01*
G01X45662Y11211D01*
G01X44708Y11783D02*
G01X44753Y11647D01*
G01X44889Y11556D01*
G01X45117Y11511D01*
G01X45253Y11511D01*
G01X45480Y11556D01*
G01X45617Y11647D01*
G01X45662Y11783D01*
G01X45662Y11874D01*
G01X45617Y12011D01*
G01X45480Y12101D01*
G01X45253Y12147D01*
G01X45117Y12147D01*
G01X44889Y12101D01*
G01X44753Y12011D01*
G01X44708Y11874D01*
G01X44708Y11783D01*
G01X44708Y12538D02*
G01X44708Y13038D01*
G01X45071Y12765D01*
G01X45071Y12901D01*
G01X45117Y12992D01*
G01X45162Y13038D01*
G01X45299Y13083D01*
G01X45389Y13083D01*
G01X45526Y13038D01*
G01X45617Y12947D01*
G01X45662Y12811D01*
G01X45662Y12674D01*
G01X45617Y12538D01*
G01X45571Y12492D01*
G01X45480Y12447D01*
G01X45026Y13383D02*
G01X45662Y13383D01*
G01X45208Y13383D02*
G01X45071Y13520D01*
G01X45026Y13611D01*
G01X45026Y13747D01*
G01X45071Y13838D01*
G01X45208Y13883D01*
G01X45662Y13883D01*
G01X45208Y13883D02*
G01X45071Y14020D01*
G01X45026Y14111D01*
G01X45026Y14247D01*
G01X45071Y14338D01*
G01X45208Y14383D01*
G01X45662Y14383D01*
G01X45026Y14683D02*
G01X45662Y14683D01*
G01X45208Y14683D02*
G01X45071Y14820D01*
G01X45026Y14911D01*
G01X45026Y15047D01*
G01X45071Y15138D01*
G01X45208Y15183D01*
G01X45662Y15183D01*
G01X45208Y15183D02*
G01X45071Y15320D01*
G01X45026Y15411D01*
G01X45026Y15547D01*
G01X45071Y15638D01*
G01X45208Y15683D01*
G01X45662Y15683D01*
G01X39150Y24450D02*
G01X46253Y24450D01*
G01X39150Y0D02*
G01X46253Y0D01*
G01X0Y-3347D02*
G01X15829Y-3347D01*
G01X23420Y-3347D02*
G01X39250Y-3347D01*
G01X600Y-3497D02*
G01X0Y-3347D01*
G01X600Y-3197D01*
G01X38650Y-3497D02*
G01X39250Y-3347D01*
G01X38650Y-3197D01*
G01X16619Y-3119D02*
G01X16575Y-3255D01*
G01X16484Y-3346D01*
G01X16347Y-3392D01*
G01X16302Y-3392D01*
G01X16165Y-3346D01*
G01X16075Y-3255D01*
G01X16030Y-3119D01*
G01X16030Y-3073D01*
G01X16075Y-2938D01*
G01X16165Y-2846D01*
G01X16302Y-2801D01*
G01X16347Y-2801D01*
G01X16484Y-2846D01*
G01X16575Y-2938D01*
G01X16619Y-3119D01*
G01X16619Y-3346D01*
G01X16575Y-3573D01*
G01X16484Y-3711D01*
G01X16347Y-3755D01*
G01X16256Y-3755D01*
G01X16119Y-3711D01*
G01X16075Y-3619D01*
G01X17510Y-3119D02*
G01X17465Y-3255D01*
G01X17375Y-3346D01*
G01X17239Y-3392D01*
G01X17193Y-3392D01*
G01X17056Y-3346D01*
G01X16965Y-3255D01*
G01X16919Y-3119D01*
G01X16919Y-3073D01*
G01X16965Y-2938D01*
G01X17056Y-2846D01*
G01X17193Y-2801D01*
G01X17239Y-2801D01*
G01X17375Y-2846D01*
G01X17465Y-2938D01*
G01X17510Y-3119D01*
G01X17510Y-3346D01*
G01X17465Y-3573D01*
G01X17375Y-3711D01*
G01X17239Y-3755D01*
G01X17147Y-3755D01*
G01X17010Y-3711D01*
G01X16965Y-3619D01*
G01X17856Y-3528D02*
G01X17810Y-3573D01*
G01X17856Y-3619D01*
G01X17902Y-3573D01*
G01X17856Y-3528D01*
G01X18747Y-2938D02*
G01X18702Y-2846D01*
G01X18565Y-2801D01*
G01X18475Y-2801D01*
G01X18339Y-2846D01*
G01X18247Y-2982D01*
G01X18202Y-3211D01*
G01X18202Y-3438D01*
G01X18247Y-3619D01*
G01X18339Y-3711D01*
G01X18475Y-3755D01*
G01X18519Y-3755D01*
G01X18656Y-3711D01*
G01X18747Y-3619D01*
G01X18793Y-3482D01*
G01X18793Y-3438D01*
G01X18747Y-3301D01*
G01X18656Y-3211D01*
G01X18519Y-3165D01*
G01X18475Y-3165D01*
G01X18339Y-3211D01*
G01X18247Y-3301D01*
G01X18202Y-3438D01*
G01X19684Y-3119D02*
G01X19639Y-3255D01*
G01X19547Y-3346D01*
G01X19410Y-3392D01*
G01X19365Y-3392D01*
G01X19230Y-3346D01*
G01X19139Y-3255D01*
G01X19093Y-3119D01*
G01X19093Y-3073D01*
G01X19139Y-2938D01*
G01X19230Y-2846D01*
G01X19365Y-2801D01*
G01X19410Y-2801D01*
G01X19547Y-2846D01*
G01X19639Y-2938D01*
G01X19684Y-3119D01*
G01X19684Y-3346D01*
G01X19639Y-3573D01*
G01X19547Y-3711D01*
G01X19410Y-3755D01*
G01X19319Y-3755D01*
G01X19184Y-3711D01*
G01X19139Y-3619D01*
G01X20530Y-2801D02*
G01X20075Y-2801D01*
G01X20030Y-3211D01*
G01X20075Y-3165D01*
G01X20210Y-3119D01*
G01X20347Y-3119D01*
G01X20484Y-3165D01*
G01X20575Y-3255D01*
G01X20619Y-3392D01*
G01X20619Y-3482D01*
G01X20575Y-3619D01*
G01X20484Y-3711D01*
G01X20347Y-3755D01*
G01X20210Y-3755D01*
G01X20075Y-3711D01*
G01X20030Y-3665D01*
G01X19984Y-3573D01*
G01X20919Y-3119D02*
G01X20919Y-3755D01*
G01X20919Y-3301D02*
G01X21056Y-3165D01*
G01X21147Y-3119D01*
G01X21284Y-3119D01*
G01X21375Y-3165D01*
G01X21419Y-3301D01*
G01X21419Y-3755D01*
G01X21419Y-3301D02*
G01X21556Y-3165D01*
G01X21647Y-3119D01*
G01X21784Y-3119D01*
G01X21875Y-3165D01*
G01X21919Y-3301D01*
G01X21919Y-3755D01*
G01X22219Y-3119D02*
G01X22219Y-3755D01*
G01X22219Y-3301D02*
G01X22356Y-3165D01*
G01X22447Y-3119D01*
G01X22584Y-3119D01*
G01X22675Y-3165D01*
G01X22719Y-3301D01*
G01X22719Y-3755D01*
G01X22719Y-3301D02*
G01X22856Y-3165D01*
G01X22947Y-3119D01*
G01X23084Y-3119D01*
G01X23175Y-3165D01*
G01X23219Y-3301D01*
G01X23219Y-3755D01*
G01X0Y0D02*
G01X0Y-4347D01*
G01X39250Y0D02*
G01X39250Y-4347D01*
G54D11*
G01X3282Y17442D02*
G01X3100Y16965D01*
G01X3282Y17442D02*
G01X3463Y16965D01*
G01X3167Y17125D02*
G01X3394Y17125D01*
G01X3613Y17442D02*
G01X3613Y16965D01*
G01X3613Y17442D02*
G01X3817Y17442D01*
G01X3886Y17419D01*
G01X3909Y17396D01*
G01X3932Y17352D01*
G01X3932Y17305D01*
G01X3909Y17261D01*
G01X3886Y17238D01*
G01X3817Y17215D01*
G01X3613Y17215D01*
G01X3773Y17215D02*
G01X3932Y16965D01*
G01X4082Y17442D02*
G01X4082Y16965D01*
G01X4082Y17442D02*
G01X4240Y17442D01*
G01X4309Y17419D01*
G01X4355Y17375D01*
G01X4376Y17328D01*
G01X4400Y17261D01*
G01X4400Y17146D01*
G01X4376Y17078D01*
G01X4355Y17034D01*
G01X4309Y16988D01*
G01X4240Y16965D01*
G01X4082Y16965D01*
G01X4550Y17442D02*
G01X4550Y17102D01*
G01X4573Y17034D01*
G01X4618Y16988D01*
G01X4685Y16965D01*
G01X4731Y16965D01*
G01X4800Y16988D01*
G01X4844Y17034D01*
G01X4868Y17102D01*
G01X4868Y17442D01*
G01X5018Y17442D02*
G01X5018Y16965D01*
G01X5168Y17442D02*
G01X5168Y16965D01*
G01X5168Y17442D02*
G01X5485Y16965D01*
G01X5485Y17442D02*
G01X5485Y16965D01*
G01X5772Y17442D02*
G01X5727Y17419D01*
G01X5681Y17375D01*
G01X5659Y17328D01*
G01X5635Y17261D01*
G01X5635Y17146D01*
G01X5659Y17078D01*
G01X5681Y17034D01*
G01X5727Y16988D01*
G01X5772Y16965D01*
G01X5864Y16965D01*
G01X5909Y16988D01*
G01X5955Y17034D01*
G01X5977Y17078D01*
G01X6000Y17146D01*
G01X6000Y17261D01*
G01X5977Y17328D01*
G01X5955Y17375D01*
G01X5909Y17419D01*
G01X5864Y17442D01*
G01X5772Y17442D01*
G01X6500Y17442D02*
G01X6500Y16965D01*
G01X6500Y17442D02*
G01X6818Y16965D01*
G01X6818Y17442D02*
G01X6818Y16965D01*
G01X7150Y17442D02*
G01X6968Y16965D01*
G01X7150Y17442D02*
G01X7331Y16965D01*
G01X7035Y17125D02*
G01X7264Y17125D01*
G01X7481Y17442D02*
G01X7481Y16965D01*
G01X7481Y17442D02*
G01X7800Y16965D01*
G01X7800Y17442D02*
G01X7800Y16965D01*
G01X8085Y17442D02*
G01X8040Y17419D01*
G01X7994Y17375D01*
G01X7972Y17328D01*
G01X7950Y17261D01*
G01X7950Y17146D01*
G01X7972Y17078D01*
G01X7994Y17034D01*
G01X8040Y16988D01*
G01X8085Y16965D01*
G01X8177Y16965D01*
G01X8222Y16988D01*
G01X8268Y17034D01*
G01X8290Y17078D01*
G01X8314Y17146D01*
G01X8314Y17261D01*
G01X8290Y17328D01*
G01X8268Y17375D01*
G01X8222Y17419D01*
G01X8177Y17442D01*
G01X8085Y17442D01*
G01X17252Y19673D02*
G01X17215Y19655D01*
G01X17180Y19617D01*
G01X17161Y19582D01*
G01X17161Y19509D01*
G01X17180Y19473D01*
G01X17215Y19436D01*
G01X17252Y19417D01*
G01X17306Y19400D01*
G01X17397Y19400D01*
G01X17452Y19417D01*
G01X17489Y19436D01*
G01X17525Y19473D01*
G01X17543Y19509D01*
G01X17543Y19582D01*
G01X17525Y19617D01*
G01X17489Y19655D01*
G01X17452Y19673D01*
G01X17397Y19673D01*
G01X17397Y19582D02*
G01X17397Y19673D01*
G01X17161Y19792D02*
G01X17543Y19792D01*
G01X17161Y19792D02*
G01X17543Y20046D01*
G01X17161Y20046D02*
G01X17543Y20046D01*
G01X17161Y20167D02*
G01X17543Y20167D01*
G01X17161Y20167D02*
G01X17161Y20294D01*
G01X17180Y20348D01*
G01X17215Y20384D01*
G01X17252Y20403D01*
G01X17306Y20421D01*
G01X17397Y20421D01*
G01X17452Y20403D01*
G01X17489Y20384D01*
G01X17525Y20348D01*
G01X17543Y20294D01*
G01X17543Y20167D01*
G01X18250Y19323D02*
G01X18632Y19469D01*
G01X18250Y19615D02*
G01X18632Y19469D01*
G01X18341Y20007D02*
G01X18304Y19988D01*
G01X18268Y19953D01*
G01X18250Y19917D01*
G01X18250Y19844D01*
G01X18268Y19807D01*
G01X18304Y19771D01*
G01X18341Y19753D01*
G01X18395Y19734D01*
G01X18486Y19734D01*
G01X18541Y19753D01*
G01X18577Y19771D01*
G01X18613Y19807D01*
G01X18632Y19844D01*
G01X18632Y19917D01*
G01X18613Y19953D01*
G01X18577Y19988D01*
G01X18541Y20007D01*
G01X18341Y20400D02*
G01X18304Y20382D01*
G01X18268Y20346D01*
G01X18250Y20309D01*
G01X18250Y20236D01*
G01X18268Y20200D01*
G01X18304Y20163D01*
G01X18341Y20146D01*
G01X18395Y20128D01*
G01X18486Y20128D01*
G01X18541Y20146D01*
G01X18577Y20163D01*
G01X18613Y20200D01*
G01X18632Y20236D01*
G01X18632Y20309D01*
G01X18613Y20346D01*
G01X18577Y20382D01*
G01X18541Y20400D01*
G01X19154Y19769D02*
G01X19118Y19732D01*
G01X19100Y19678D01*
G01X19100Y19605D01*
G01X19118Y19550D01*
G01X19154Y19514D01*
G01X19191Y19514D01*
G01X19227Y19532D01*
G01X19245Y19550D01*
G01X19263Y19587D01*
G01X19300Y19696D01*
G01X19318Y19732D01*
G01X19336Y19750D01*
G01X19373Y19769D01*
G01X19427Y19769D01*
G01X19463Y19732D01*
G01X19482Y19678D01*
G01X19482Y19605D01*
G01X19463Y19550D01*
G01X19427Y19514D01*
G01X19191Y20161D02*
G01X19154Y20143D01*
G01X19118Y20107D01*
G01X19100Y20070D01*
G01X19100Y19998D01*
G01X19118Y19961D01*
G01X19154Y19925D01*
G01X19191Y19907D01*
G01X19245Y19889D01*
G01X19336Y19889D01*
G01X19391Y19907D01*
G01X19427Y19925D01*
G01X19463Y19961D01*
G01X19482Y19998D01*
G01X19482Y20070D01*
G01X19463Y20107D01*
G01X19427Y20143D01*
G01X19391Y20161D01*
G01X19100Y20281D02*
G01X19482Y20281D01*
G01X19482Y20281D02*
G01X19482Y20499D01*
G01X20085Y19655D02*
G01X20050Y19618D01*
G01X20031Y19564D01*
G01X20031Y19491D01*
G01X20050Y19436D01*
G01X20085Y19400D01*
G01X20122Y19400D01*
G01X20159Y19418D01*
G01X20177Y19436D01*
G01X20194Y19473D01*
G01X20231Y19582D01*
G01X20250Y19618D01*
G01X20268Y19636D01*
G01X20305Y19655D01*
G01X20359Y19655D01*
G01X20394Y19618D01*
G01X20414Y19564D01*
G01X20414Y19491D01*
G01X20394Y19436D01*
G01X20359Y19400D01*
G01X20031Y19775D02*
G01X20414Y19775D01*
G01X20031Y19775D02*
G01X20031Y19902D01*
G01X20050Y19956D01*
G01X20085Y19993D01*
G01X20122Y20011D01*
G01X20177Y20029D01*
G01X20268Y20029D01*
G01X20322Y20011D01*
G01X20359Y19993D01*
G01X20394Y19956D01*
G01X20414Y19902D01*
G01X20414Y19775D01*
G01X20031Y20295D02*
G01X20414Y20149D01*
G01X20031Y20295D02*
G01X20414Y20440D01*
G01X20285Y20204D02*
G01X20285Y20385D01*
G54D30*
G01X29221Y13166D02*
G01X29650Y13166D01*
G01X29221Y13166D02*
G01X29221Y13350D01*
G01X29241Y13411D01*
G01X29262Y13432D01*
G01X29303Y13452D01*
G01X29343Y13452D01*
G01X29384Y13432D01*
G01X29405Y13411D01*
G01X29425Y13350D01*
G01X29425Y13166D01*
G01X29425Y13309D02*
G01X29650Y13452D01*
G01X29221Y13628D02*
G01X29221Y13853D01*
G01X29384Y13731D01*
G01X29384Y13792D01*
G01X29405Y13833D01*
G01X29425Y13853D01*
G01X29487Y13874D01*
G01X29528Y13874D01*
G01X29589Y13853D01*
G01X29630Y13812D01*
G01X29650Y13751D01*
G01X29650Y13690D01*
G01X29630Y13628D01*
G01X29609Y13608D01*
G01X29568Y13587D01*
G01X11663Y7462D02*
G01X12092Y7462D01*
G01X11663Y7462D02*
G01X11663Y7646D01*
G01X11683Y7707D01*
G01X11703Y7728D01*
G01X11744Y7748D01*
G01X11785Y7748D01*
G01X11826Y7728D01*
G01X11847Y7707D01*
G01X11867Y7646D01*
G01X11867Y7462D01*
G01X11867Y7605D02*
G01X12092Y7748D01*
G01X11744Y7883D02*
G01X11724Y7924D01*
G01X11663Y7986D01*
G01X12092Y7986D01*
G01X13313Y7378D02*
G01X13742Y7378D01*
G01X13313Y7378D02*
G01X13313Y7562D01*
G01X13333Y7623D01*
G01X13353Y7644D01*
G01X13394Y7664D01*
G01X13435Y7664D01*
G01X13476Y7644D01*
G01X13497Y7623D01*
G01X13517Y7562D01*
G01X13517Y7378D01*
G01X13517Y7521D02*
G01X13742Y7664D01*
G01X13415Y7820D02*
G01X13394Y7820D01*
G01X13353Y7840D01*
G01X13333Y7861D01*
G01X13313Y7902D01*
G01X13313Y7983D01*
G01X13333Y8024D01*
G01X13353Y8045D01*
G01X13394Y8065D01*
G01X13435Y8065D01*
G01X13476Y8045D01*
G01X13538Y8004D01*
G01X13742Y7799D01*
G01X13742Y8086D01*
G01X14949Y7522D02*
G01X15378Y7522D01*
G01X14949Y7522D02*
G01X14949Y7706D01*
G01X14969Y7767D01*
G01X14989Y7788D01*
G01X15030Y7808D01*
G01X15071Y7808D01*
G01X15112Y7788D01*
G01X15133Y7767D01*
G01X15153Y7706D01*
G01X15153Y7522D01*
G01X15153Y7665D02*
G01X15378Y7808D01*
G01X14949Y8148D02*
G01X15235Y7943D01*
G01X15235Y8250D01*
G01X14949Y8148D02*
G01X15378Y8148D01*
G01X8850Y23000D02*
G01X8850Y22571D01*
G01X8850Y23000D02*
G01X9034Y23000D01*
G01X9094Y22980D01*
G01X9115Y22959D01*
G01X9135Y22919D01*
G01X9135Y22878D01*
G01X9115Y22836D01*
G01X9094Y22815D01*
G01X9034Y22796D01*
G01X8850Y22796D01*
G01X8993Y22796D02*
G01X9135Y22571D01*
G01X9517Y23000D02*
G01X9311Y23000D01*
G01X9292Y22815D01*
G01X9311Y22836D01*
G01X9373Y22857D01*
G01X9435Y22857D01*
G01X9496Y22836D01*
G01X9536Y22796D01*
G01X9557Y22734D01*
G01X9557Y22694D01*
G01X9536Y22632D01*
G01X9496Y22590D01*
G01X9435Y22571D01*
G01X9373Y22571D01*
G01X9311Y22590D01*
G01X9292Y22611D01*
G01X9271Y22653D01*
G01X11556Y14348D02*
G01X11535Y14388D01*
G01X11494Y14430D01*
G01X11455Y14450D01*
G01X11372Y14450D01*
G01X11331Y14430D01*
G01X11290Y14388D01*
G01X11269Y14348D01*
G01X11250Y14286D01*
G01X11250Y14184D01*
G01X11269Y14123D01*
G01X11290Y14082D01*
G01X11331Y14040D01*
G01X11372Y14021D01*
G01X11455Y14021D01*
G01X11494Y14040D01*
G01X11535Y14082D01*
G01X11556Y14123D01*
G01X11732Y14450D02*
G01X11957Y14450D01*
G01X11835Y14286D01*
G01X11896Y14286D01*
G01X11936Y14265D01*
G01X11957Y14246D01*
G01X11977Y14184D01*
G01X11977Y14144D01*
G01X11957Y14082D01*
G01X11917Y14040D01*
G01X11855Y14021D01*
G01X11793Y14021D01*
G01X11732Y14040D01*
G01X11711Y14061D01*
G01X11692Y14103D01*
G01X7452Y6378D02*
G01X7410Y6357D01*
G01X7369Y6317D01*
G01X7350Y6276D01*
G01X7350Y6194D01*
G01X7369Y6153D01*
G01X7410Y6113D01*
G01X7452Y6092D01*
G01X7513Y6071D01*
G01X7614Y6071D01*
G01X7677Y6092D01*
G01X7718Y6113D01*
G01X7759Y6153D01*
G01X7778Y6194D01*
G01X7778Y6276D01*
G01X7759Y6317D01*
G01X7718Y6357D01*
G01X7677Y6378D01*
G01X7452Y6534D02*
G01X7431Y6534D01*
G01X7389Y6555D01*
G01X7369Y6575D01*
G01X7350Y6615D01*
G01X7350Y6698D01*
G01X7369Y6738D01*
G01X7389Y6759D01*
G01X7431Y6780D01*
G01X7472Y6780D01*
G01X7513Y6759D01*
G01X7575Y6717D01*
G01X7778Y6513D01*
G01X7778Y6800D01*
G01X7452Y9278D02*
G01X7410Y9257D01*
G01X7369Y9217D01*
G01X7350Y9176D01*
G01X7350Y9094D01*
G01X7369Y9053D01*
G01X7410Y9013D01*
G01X7452Y8992D01*
G01X7513Y8971D01*
G01X7614Y8971D01*
G01X7677Y8992D01*
G01X7718Y9013D01*
G01X7759Y9053D01*
G01X7778Y9094D01*
G01X7778Y9176D01*
G01X7759Y9217D01*
G01X7718Y9257D01*
G01X7677Y9278D01*
G01X7350Y9659D02*
G01X7350Y9455D01*
G01X7534Y9434D01*
G01X7513Y9455D01*
G01X7493Y9515D01*
G01X7493Y9576D01*
G01X7513Y9638D01*
G01X7553Y9680D01*
G01X7614Y9700D01*
G01X7656Y9700D01*
G01X7718Y9680D01*
G01X7759Y9638D01*
G01X7778Y9576D01*
G01X7778Y9515D01*
G01X7759Y9455D01*
G01X7738Y9434D01*
G01X7697Y9413D01*
G01X7452Y11507D02*
G01X7410Y11486D01*
G01X7369Y11446D01*
G01X7350Y11405D01*
G01X7350Y11323D01*
G01X7369Y11282D01*
G01X7410Y11242D01*
G01X7452Y11221D01*
G01X7513Y11201D01*
G01X7614Y11201D01*
G01X7677Y11221D01*
G01X7718Y11242D01*
G01X7759Y11282D01*
G01X7778Y11323D01*
G01X7778Y11405D01*
G01X7759Y11446D01*
G01X7718Y11486D01*
G01X7677Y11507D01*
G01X7350Y11846D02*
G01X7635Y11642D01*
G01X7635Y11950D01*
G01X7350Y11846D02*
G01X7778Y11846D01*
G01X20750Y10665D02*
G01X20750Y10235D01*
G01X20750Y10665D02*
G01X20934Y10665D01*
G01X20994Y10644D01*
G01X21015Y10624D01*
G01X21035Y10583D01*
G01X21035Y10522D01*
G01X21015Y10481D01*
G01X20994Y10460D01*
G01X20934Y10440D01*
G01X20750Y10440D01*
G01X21457Y10665D02*
G01X21171Y10235D01*
G01X21171Y10665D02*
G01X21457Y10665D01*
G01X21171Y10235D02*
G01X21457Y10235D01*
G01X21593Y10583D02*
G01X21634Y10604D01*
G01X21694Y10665D01*
G01X21694Y10235D01*
G54D11*
G01X21172Y6723D02*
G01X21172Y7376D01*
G01X21500Y7050D02*
G01X20844Y7050D01*
G01X21172Y6773D02*
G01X21172Y7426D01*
G01X21500Y7100D02*
G01X20844Y7100D01*
G54D30*
G01X26600Y715D02*
G01X26600Y286D01*
G01X26600Y715D02*
G01X26784Y715D01*
G01X26844Y694D01*
G01X26865Y675D01*
G01X26885Y634D01*
G01X26885Y592D01*
G01X26865Y551D01*
G01X26844Y530D01*
G01X26784Y511D01*
G01X26600Y511D02*
G01X26784Y511D01*
G01X26844Y490D01*
G01X26865Y469D01*
G01X26885Y428D01*
G01X26885Y367D01*
G01X26865Y326D01*
G01X26844Y305D01*
G01X26784Y286D01*
G01X26600Y286D01*
G01X27185Y715D02*
G01X27021Y286D01*
G01X27185Y715D02*
G01X27348Y286D01*
G01X27082Y428D02*
G01X27286Y428D01*
G01X27627Y715D02*
G01X27627Y286D01*
G01X27484Y715D02*
G01X27769Y715D01*
G54D11*
G01X926Y16467D02*
G01X926Y16086D01*
G01X800Y16467D02*
G01X1055Y16467D01*
G01X1175Y16467D02*
G01X1428Y16086D01*
G01X1428Y16467D02*
G01X1175Y16086D01*
G01X1548Y16467D02*
G01X1548Y16086D01*
G01X1548Y16467D02*
G01X1676Y16467D01*
G01X1730Y16450D01*
G01X1767Y16413D01*
G01X1784Y16376D01*
G01X1803Y16323D01*
G01X1803Y16232D01*
G01X1784Y16176D01*
G01X1767Y16140D01*
G01X1730Y16105D01*
G01X1676Y16086D01*
G01X1548Y16086D01*
G01X9772Y15276D02*
G01X9755Y15313D01*
G01X9718Y15350D01*
G01X9681Y15367D01*
G01X9609Y15367D01*
G01X9572Y15350D01*
G01X9535Y15313D01*
G01X9518Y15276D01*
G01X9500Y15223D01*
G01X9500Y15132D01*
G01X9518Y15076D01*
G01X9535Y15040D01*
G01X9572Y15005D01*
G01X9609Y14986D01*
G01X9681Y14986D01*
G01X9718Y15005D01*
G01X9755Y15040D01*
G01X9772Y15076D01*
G01X9772Y15132D01*
G01X9681Y15132D02*
G01X9772Y15132D01*
G01X9893Y15367D02*
G01X9893Y14986D01*
G01X9893Y15367D02*
G01X10147Y14986D01*
G01X10147Y15367D02*
G01X10147Y14986D01*
G01X10267Y15367D02*
G01X10267Y14986D01*
G01X10267Y15367D02*
G01X10394Y15367D01*
G01X10448Y15350D01*
G01X10485Y15313D01*
G01X10503Y15276D01*
G01X10522Y15223D01*
G01X10522Y15132D01*
G01X10503Y15076D01*
G01X10485Y15040D01*
G01X10448Y15005D01*
G01X10394Y14986D01*
G01X10267Y14986D01*
G01X9718Y13267D02*
G01X9535Y13267D01*
G01X9518Y13105D01*
G01X9535Y13123D01*
G01X9590Y13140D01*
G01X9644Y13140D01*
G01X9700Y13123D01*
G01X9735Y13086D01*
G01X9755Y13032D01*
G01X9755Y12994D01*
G01X9735Y12940D01*
G01X9700Y12905D01*
G01X9644Y12886D01*
G01X9590Y12886D01*
G01X9535Y12905D01*
G01X9518Y12923D01*
G01X9500Y12959D01*
G01X9875Y13267D02*
G01X10019Y12886D01*
G01X10164Y13267D02*
G01X10019Y12886D01*
G01X800Y2367D02*
G01X800Y1986D01*
G01X800Y2367D02*
G01X926Y2367D01*
G01X982Y2350D01*
G01X1017Y2313D01*
G01X1036Y2276D01*
G01X1055Y2223D01*
G01X1055Y2132D01*
G01X1036Y2076D01*
G01X1017Y2040D01*
G01X982Y2005D01*
G01X926Y1986D01*
G01X800Y1986D01*
G01X1175Y2294D02*
G01X1211Y2313D01*
G01X1265Y2367D01*
G01X1265Y1986D01*
G01X1403Y2276D02*
G01X1403Y2294D01*
G01X1421Y2332D01*
G01X1440Y2350D01*
G01X1476Y2367D01*
G01X1548Y2367D01*
G01X1584Y2350D01*
G01X1603Y2332D01*
G01X1621Y2294D01*
G01X1621Y2259D01*
G01X1603Y2223D01*
G01X1567Y2167D01*
G01X1384Y1986D01*
G01X1640Y1986D01*
G01X9500Y16367D02*
G01X9644Y15986D01*
G01X9790Y16367D02*
G01X9644Y15986D01*
G01X9910Y16367D02*
G01X9928Y16350D01*
G01X9947Y16367D01*
G01X9928Y16386D01*
G01X9910Y16367D01*
G01X9928Y16240D02*
G01X9928Y15986D01*
G01X10067Y16240D02*
G01X10067Y15986D01*
G01X10067Y16167D02*
G01X10122Y16223D01*
G01X10157Y16240D01*
G01X10213Y16240D01*
G01X10248Y16223D01*
G01X10267Y16167D01*
G01X10267Y15986D01*
G01X9500Y2267D02*
G01X9500Y1886D01*
G01X9500Y2267D02*
G01X9627Y2267D01*
G01X9681Y2250D01*
G01X9718Y2213D01*
G01X9735Y2176D01*
G01X9755Y2123D01*
G01X9755Y2032D01*
G01X9735Y1976D01*
G01X9718Y1940D01*
G01X9681Y1905D01*
G01X9627Y1886D01*
G01X9500Y1886D01*
G01X9875Y2194D02*
G01X9910Y2213D01*
G01X9964Y2267D01*
G01X9964Y1886D01*
G01X10122Y2267D02*
G01X10322Y2267D01*
G01X10213Y2123D01*
G01X10267Y2123D01*
G01X10303Y2105D01*
G01X10322Y2086D01*
G01X10339Y2032D01*
G01X10339Y1994D01*
G01X10322Y1940D01*
G01X10285Y1905D01*
G01X10231Y1886D01*
G01X10176Y1886D01*
G01X10122Y1905D01*
G01X10103Y1923D01*
G01X10085Y1959D01*
G01X1073Y13276D02*
G01X1055Y13313D01*
G01X1017Y13350D01*
G01X982Y13367D01*
G01X909Y13367D01*
G01X873Y13350D01*
G01X836Y13313D01*
G01X817Y13276D01*
G01X800Y13223D01*
G01X800Y13132D01*
G01X817Y13076D01*
G01X836Y13040D01*
G01X873Y13005D01*
G01X909Y12986D01*
G01X982Y12986D01*
G01X1017Y13005D01*
G01X1055Y13040D01*
G01X1073Y13076D01*
G01X1073Y13132D01*
G01X982Y13132D02*
G01X1073Y13132D01*
G01X1192Y13367D02*
G01X1192Y12986D01*
G01X1192Y13367D02*
G01X1446Y12986D01*
G01X1446Y13367D02*
G01X1446Y12986D01*
G01X1567Y13367D02*
G01X1567Y12986D01*
G01X1567Y13367D02*
G01X1694Y13367D01*
G01X1748Y13350D01*
G01X1784Y13313D01*
G01X1803Y13276D01*
G01X1821Y13223D01*
G01X1821Y13132D01*
G01X1803Y13076D01*
G01X1784Y13040D01*
G01X1748Y13005D01*
G01X1694Y12986D01*
G01X1567Y12986D01*
G01X800Y15367D02*
G01X800Y14986D01*
G01X800Y15367D02*
G01X963Y15367D01*
G01X1017Y15350D01*
G01X1036Y15332D01*
G01X1055Y15294D01*
G01X1055Y15259D01*
G01X1036Y15223D01*
G01X1017Y15205D01*
G01X963Y15186D01*
G01X800Y15186D01*
G01X926Y15186D02*
G01X1055Y14986D01*
G01X1175Y15367D02*
G01X1428Y14986D01*
G01X1428Y15367D02*
G01X1175Y14986D01*
G01X1548Y15367D02*
G01X1548Y14986D01*
G01X1548Y15367D02*
G01X1676Y15367D01*
G01X1730Y15350D01*
G01X1767Y15313D01*
G01X1784Y15276D01*
G01X1803Y15223D01*
G01X1803Y15132D01*
G01X1784Y15076D01*
G01X1767Y15040D01*
G01X1730Y15005D01*
G01X1676Y14986D01*
G01X1548Y14986D01*
G01X800Y14367D02*
G01X800Y13986D01*
G01X800Y14367D02*
G01X963Y14367D01*
G01X1017Y14350D01*
G01X1036Y14332D01*
G01X1055Y14294D01*
G01X1055Y14259D01*
G01X1036Y14223D01*
G01X1017Y14205D01*
G01X963Y14186D01*
G01X800Y14186D01*
G01X926Y14186D02*
G01X1055Y13986D01*
G01X1428Y14313D02*
G01X1392Y14350D01*
G01X1338Y14367D01*
G01X1265Y14367D01*
G01X1211Y14350D01*
G01X1175Y14313D01*
G01X1175Y14276D01*
G01X1192Y14240D01*
G01X1211Y14223D01*
G01X1246Y14205D01*
G01X1355Y14167D01*
G01X1392Y14150D01*
G01X1411Y14132D01*
G01X1428Y14094D01*
G01X1428Y14040D01*
G01X1392Y14005D01*
G01X1338Y13986D01*
G01X1265Y13986D01*
G01X1211Y14005D01*
G01X1175Y14040D01*
G01X1676Y14367D02*
G01X1676Y13986D01*
G01X1548Y14367D02*
G01X1803Y14367D01*
G01X800Y12367D02*
G01X800Y11986D01*
G01X800Y12367D02*
G01X926Y12367D01*
G01X982Y12350D01*
G01X1017Y12313D01*
G01X1036Y12276D01*
G01X1055Y12223D01*
G01X1055Y12132D01*
G01X1036Y12076D01*
G01X1017Y12040D01*
G01X982Y12005D01*
G01X926Y11986D01*
G01X800Y11986D01*
G01X1192Y12276D02*
G01X1192Y12294D01*
G01X1211Y12332D01*
G01X1228Y12350D01*
G01X1265Y12367D01*
G01X1338Y12367D01*
G01X1375Y12350D01*
G01X1392Y12332D01*
G01X1411Y12294D01*
G01X1411Y12259D01*
G01X1392Y12223D01*
G01X1355Y12167D01*
G01X1175Y11986D01*
G01X1428Y11986D01*
G01X800Y11367D02*
G01X800Y10986D01*
G01X800Y11367D02*
G01X926Y11367D01*
G01X982Y11350D01*
G01X1017Y11313D01*
G01X1036Y11276D01*
G01X1055Y11223D01*
G01X1055Y11132D01*
G01X1036Y11076D01*
G01X1017Y11040D01*
G01X982Y11005D01*
G01X926Y10986D01*
G01X800Y10986D01*
G01X1211Y11367D02*
G01X1411Y11367D01*
G01X1301Y11223D01*
G01X1355Y11223D01*
G01X1392Y11205D01*
G01X1411Y11186D01*
G01X1428Y11132D01*
G01X1428Y11094D01*
G01X1411Y11040D01*
G01X1375Y11005D01*
G01X1319Y10986D01*
G01X1265Y10986D01*
G01X1211Y11005D01*
G01X1192Y11023D01*
G01X1175Y11059D01*
G01X800Y10367D02*
G01X800Y9986D01*
G01X800Y10367D02*
G01X926Y10367D01*
G01X982Y10350D01*
G01X1017Y10313D01*
G01X1036Y10276D01*
G01X1055Y10223D01*
G01X1055Y10132D01*
G01X1036Y10076D01*
G01X1017Y10040D01*
G01X982Y10005D01*
G01X926Y9986D01*
G01X800Y9986D01*
G01X1355Y10367D02*
G01X1175Y10113D01*
G01X1446Y10113D01*
G01X1355Y10367D02*
G01X1355Y9986D01*
G01X800Y9467D02*
G01X800Y9086D01*
G01X800Y9467D02*
G01X926Y9467D01*
G01X982Y9450D01*
G01X1017Y9413D01*
G01X1036Y9376D01*
G01X1055Y9323D01*
G01X1055Y9232D01*
G01X1036Y9176D01*
G01X1017Y9140D01*
G01X982Y9105D01*
G01X926Y9086D01*
G01X800Y9086D01*
G01X1392Y9467D02*
G01X1211Y9467D01*
G01X1192Y9305D01*
G01X1211Y9323D01*
G01X1265Y9340D01*
G01X1319Y9340D01*
G01X1375Y9323D01*
G01X1411Y9286D01*
G01X1428Y9232D01*
G01X1428Y9194D01*
G01X1411Y9140D01*
G01X1375Y9105D01*
G01X1319Y9086D01*
G01X1265Y9086D01*
G01X1211Y9105D01*
G01X1192Y9123D01*
G01X1175Y9159D01*
G01X800Y8467D02*
G01X800Y8086D01*
G01X800Y8467D02*
G01X926Y8467D01*
G01X982Y8450D01*
G01X1017Y8413D01*
G01X1036Y8376D01*
G01X1055Y8323D01*
G01X1055Y8232D01*
G01X1036Y8176D01*
G01X1017Y8140D01*
G01X982Y8105D01*
G01X926Y8086D01*
G01X800Y8086D01*
G01X1392Y8413D02*
G01X1375Y8450D01*
G01X1319Y8467D01*
G01X1284Y8467D01*
G01X1228Y8450D01*
G01X1192Y8394D01*
G01X1175Y8305D01*
G01X1175Y8213D01*
G01X1192Y8140D01*
G01X1228Y8105D01*
G01X1284Y8086D01*
G01X1301Y8086D01*
G01X1355Y8105D01*
G01X1392Y8140D01*
G01X1411Y8194D01*
G01X1411Y8213D01*
G01X1392Y8267D01*
G01X1355Y8305D01*
G01X1301Y8323D01*
G01X1284Y8323D01*
G01X1228Y8305D01*
G01X1192Y8267D01*
G01X1175Y8213D01*
G01X800Y7367D02*
G01X800Y6986D01*
G01X800Y7367D02*
G01X926Y7367D01*
G01X982Y7350D01*
G01X1017Y7313D01*
G01X1036Y7276D01*
G01X1055Y7223D01*
G01X1055Y7132D01*
G01X1036Y7076D01*
G01X1017Y7040D01*
G01X982Y7005D01*
G01X926Y6986D01*
G01X800Y6986D01*
G01X1428Y7367D02*
G01X1246Y6986D01*
G01X1175Y7367D02*
G01X1428Y7367D01*
G01X800Y6467D02*
G01X800Y6086D01*
G01X800Y6467D02*
G01X926Y6467D01*
G01X982Y6450D01*
G01X1017Y6413D01*
G01X1036Y6376D01*
G01X1055Y6323D01*
G01X1055Y6232D01*
G01X1036Y6176D01*
G01X1017Y6140D01*
G01X982Y6105D01*
G01X926Y6086D01*
G01X800Y6086D01*
G01X1265Y6467D02*
G01X1211Y6450D01*
G01X1192Y6413D01*
G01X1192Y6376D01*
G01X1211Y6340D01*
G01X1246Y6323D01*
G01X1319Y6305D01*
G01X1375Y6286D01*
G01X1411Y6250D01*
G01X1428Y6213D01*
G01X1428Y6159D01*
G01X1411Y6123D01*
G01X1392Y6105D01*
G01X1338Y6086D01*
G01X1265Y6086D01*
G01X1211Y6105D01*
G01X1192Y6123D01*
G01X1175Y6159D01*
G01X1175Y6213D01*
G01X1192Y6250D01*
G01X1228Y6286D01*
G01X1284Y6305D01*
G01X1355Y6323D01*
G01X1392Y6340D01*
G01X1411Y6376D01*
G01X1411Y6413D01*
G01X1392Y6450D01*
G01X1338Y6467D01*
G01X1265Y6467D01*
G01X800Y5467D02*
G01X800Y5086D01*
G01X800Y5467D02*
G01X926Y5467D01*
G01X982Y5450D01*
G01X1017Y5413D01*
G01X1036Y5376D01*
G01X1055Y5323D01*
G01X1055Y5232D01*
G01X1036Y5176D01*
G01X1017Y5140D01*
G01X982Y5105D01*
G01X926Y5086D01*
G01X800Y5086D01*
G01X1411Y5340D02*
G01X1392Y5286D01*
G01X1355Y5250D01*
G01X1301Y5232D01*
G01X1284Y5232D01*
G01X1228Y5250D01*
G01X1192Y5286D01*
G01X1175Y5340D01*
G01X1175Y5359D01*
G01X1192Y5413D01*
G01X1228Y5450D01*
G01X1284Y5467D01*
G01X1301Y5467D01*
G01X1355Y5450D01*
G01X1392Y5413D01*
G01X1411Y5340D01*
G01X1411Y5250D01*
G01X1392Y5159D01*
G01X1355Y5105D01*
G01X1301Y5086D01*
G01X1265Y5086D01*
G01X1211Y5105D01*
G01X1192Y5140D01*
G01X800Y4367D02*
G01X800Y3986D01*
G01X800Y4367D02*
G01X926Y4367D01*
G01X982Y4350D01*
G01X1017Y4313D01*
G01X1036Y4276D01*
G01X1055Y4223D01*
G01X1055Y4132D01*
G01X1036Y4076D01*
G01X1017Y4040D01*
G01X982Y4005D01*
G01X926Y3986D01*
G01X800Y3986D01*
G01X1175Y4294D02*
G01X1211Y4313D01*
G01X1265Y4367D01*
G01X1265Y3986D01*
G01X1494Y4367D02*
G01X1440Y4350D01*
G01X1403Y4294D01*
G01X1384Y4205D01*
G01X1384Y4150D01*
G01X1403Y4059D01*
G01X1440Y4005D01*
G01X1494Y3986D01*
G01X1530Y3986D01*
G01X1584Y4005D01*
G01X1621Y4059D01*
G01X1640Y4150D01*
G01X1640Y4205D01*
G01X1621Y4294D01*
G01X1584Y4350D01*
G01X1530Y4367D01*
G01X1494Y4367D01*
G01X800Y3467D02*
G01X800Y3086D01*
G01X800Y3467D02*
G01X926Y3467D01*
G01X982Y3450D01*
G01X1017Y3413D01*
G01X1036Y3376D01*
G01X1055Y3323D01*
G01X1055Y3232D01*
G01X1036Y3176D01*
G01X1017Y3140D01*
G01X982Y3105D01*
G01X926Y3086D01*
G01X800Y3086D01*
G01X1175Y3394D02*
G01X1211Y3413D01*
G01X1265Y3467D01*
G01X1265Y3086D01*
G01X1384Y3394D02*
G01X1421Y3413D01*
G01X1476Y3467D01*
G01X1476Y3086D01*
G01X9535Y3267D02*
G01X9735Y3267D01*
G01X9627Y3123D01*
G01X9681Y3123D01*
G01X9718Y3105D01*
G01X9735Y3086D01*
G01X9755Y3032D01*
G01X9755Y2994D01*
G01X9735Y2940D01*
G01X9700Y2905D01*
G01X9644Y2886D01*
G01X9590Y2886D01*
G01X9535Y2905D01*
G01X9518Y2923D01*
G01X9500Y2959D01*
G01X9875Y3267D02*
G01X10019Y2886D01*
G01X10164Y3267D02*
G01X10019Y2886D01*
G01X10322Y3267D02*
G01X10522Y3267D01*
G01X10413Y3123D01*
G01X10467Y3123D01*
G01X10503Y3105D01*
G01X10522Y3086D01*
G01X10539Y3032D01*
G01X10539Y2994D01*
G01X10522Y2940D01*
G01X10485Y2905D01*
G01X10431Y2886D01*
G01X10376Y2886D01*
G01X10322Y2905D01*
G01X10303Y2923D01*
G01X10285Y2959D01*
G01X9500Y4367D02*
G01X9500Y3986D01*
G01X9500Y4367D02*
G01X9664Y4367D01*
G01X9718Y4350D01*
G01X9735Y4332D01*
G01X9755Y4294D01*
G01X9755Y4259D01*
G01X9735Y4223D01*
G01X9718Y4205D01*
G01X9664Y4186D01*
G01X9500Y4186D01*
G01X9627Y4186D02*
G01X9755Y3986D01*
G01X9875Y4367D02*
G01X9875Y3986D01*
G01X9875Y4367D02*
G01X10110Y4367D01*
G01X9875Y4186D02*
G01X10019Y4186D01*
G01X9875Y3986D02*
G01X10110Y3986D01*
G01X10231Y4367D02*
G01X10231Y3986D01*
G01X10231Y4367D02*
G01X10467Y4367D01*
G01X10231Y4186D02*
G01X10376Y4186D01*
G01X9644Y5267D02*
G01X9500Y4886D01*
G01X9644Y5267D02*
G01X9790Y4886D01*
G01X9555Y5013D02*
G01X9735Y5013D01*
G01X10019Y5267D02*
G01X9964Y5250D01*
G01X9928Y5194D01*
G01X9910Y5105D01*
G01X9910Y5050D01*
G01X9928Y4959D01*
G01X9964Y4905D01*
G01X10019Y4886D01*
G01X10056Y4886D01*
G01X10110Y4905D01*
G01X10147Y4959D01*
G01X10164Y5050D01*
G01X10164Y5105D01*
G01X10147Y5194D01*
G01X10110Y5250D01*
G01X10056Y5267D01*
G01X10019Y5267D01*
G01X9644Y6367D02*
G01X9500Y5986D01*
G01X9644Y6367D02*
G01X9790Y5986D01*
G01X9555Y6113D02*
G01X9735Y6113D01*
G01X9910Y6294D02*
G01X9947Y6313D01*
G01X10002Y6367D01*
G01X10002Y5986D01*
G01X9644Y7267D02*
G01X9500Y6886D01*
G01X9644Y7267D02*
G01X9790Y6886D01*
G01X9555Y7013D02*
G01X9735Y7013D01*
G01X9928Y7176D02*
G01X9928Y7194D01*
G01X9947Y7232D01*
G01X9964Y7250D01*
G01X10002Y7267D01*
G01X10075Y7267D01*
G01X10110Y7250D01*
G01X10128Y7232D01*
G01X10147Y7194D01*
G01X10147Y7159D01*
G01X10128Y7123D01*
G01X10093Y7067D01*
G01X9910Y6886D01*
G01X10164Y6886D01*
G01X9644Y8367D02*
G01X9500Y7986D01*
G01X9644Y8367D02*
G01X9790Y7986D01*
G01X9555Y8113D02*
G01X9735Y8113D01*
G01X9947Y8367D02*
G01X10147Y8367D01*
G01X10038Y8223D01*
G01X10093Y8223D01*
G01X10128Y8205D01*
G01X10147Y8186D01*
G01X10164Y8132D01*
G01X10164Y8094D01*
G01X10147Y8040D01*
G01X10110Y8005D01*
G01X10056Y7986D01*
G01X10002Y7986D01*
G01X9947Y8005D01*
G01X9928Y8023D01*
G01X9910Y8059D01*
G01X9644Y9367D02*
G01X9500Y8986D01*
G01X9644Y9367D02*
G01X9790Y8986D01*
G01X9555Y9113D02*
G01X9735Y9113D01*
G01X10093Y9367D02*
G01X9910Y9113D01*
G01X10184Y9113D01*
G01X10093Y9367D02*
G01X10093Y8986D01*
G01X9644Y10367D02*
G01X9500Y9986D01*
G01X9644Y10367D02*
G01X9790Y9986D01*
G01X9555Y10113D02*
G01X9735Y10113D01*
G01X10128Y10367D02*
G01X9947Y10367D01*
G01X9928Y10205D01*
G01X9947Y10223D01*
G01X10002Y10240D01*
G01X10056Y10240D01*
G01X10110Y10223D01*
G01X10147Y10186D01*
G01X10164Y10132D01*
G01X10164Y10094D01*
G01X10147Y10040D01*
G01X10110Y10005D01*
G01X10056Y9986D01*
G01X10002Y9986D01*
G01X9947Y10005D01*
G01X9928Y10023D01*
G01X9910Y10059D01*
G01X9644Y11267D02*
G01X9500Y10886D01*
G01X9644Y11267D02*
G01X9790Y10886D01*
G01X9555Y11013D02*
G01X9735Y11013D01*
G01X10128Y11213D02*
G01X10110Y11250D01*
G01X10056Y11267D01*
G01X10019Y11267D01*
G01X9964Y11250D01*
G01X9928Y11194D01*
G01X9910Y11105D01*
G01X9910Y11013D01*
G01X9928Y10940D01*
G01X9964Y10905D01*
G01X10019Y10886D01*
G01X10038Y10886D01*
G01X10093Y10905D01*
G01X10128Y10940D01*
G01X10147Y10994D01*
G01X10147Y11013D01*
G01X10128Y11067D01*
G01X10093Y11105D01*
G01X10038Y11123D01*
G01X10019Y11123D01*
G01X9964Y11105D01*
G01X9928Y11067D01*
G01X9910Y11013D01*
G01X9644Y12367D02*
G01X9500Y11986D01*
G01X9644Y12367D02*
G01X9790Y11986D01*
G01X9555Y12113D02*
G01X9735Y12113D01*
G01X10164Y12367D02*
G01X9984Y11986D01*
G01X9910Y12367D02*
G01X10164Y12367D01*
G01X9500Y14367D02*
G01X9500Y13986D01*
G01X9500Y14367D02*
G01X9664Y14367D01*
G01X9718Y14350D01*
G01X9735Y14332D01*
G01X9755Y14294D01*
G01X9755Y14259D01*
G01X9735Y14223D01*
G01X9718Y14205D01*
G01X9664Y14186D01*
G01X9500Y14186D01*
G01X9627Y14186D02*
G01X9755Y13986D01*
G01X10128Y14313D02*
G01X10093Y14350D01*
G01X10038Y14367D01*
G01X9964Y14367D01*
G01X9910Y14350D01*
G01X9875Y14313D01*
G01X9875Y14276D01*
G01X9893Y14240D01*
G01X9910Y14223D01*
G01X9947Y14205D01*
G01X10056Y14167D01*
G01X10093Y14150D01*
G01X10110Y14132D01*
G01X10128Y14094D01*
G01X10128Y14040D01*
G01X10093Y14005D01*
G01X10038Y13986D01*
G01X9964Y13986D01*
G01X9910Y14005D01*
G01X9875Y14040D01*
G01X10376Y14367D02*
G01X10376Y13986D01*
G01X10248Y14367D02*
G01X10503Y14367D01*
G54D30*
G01X3925Y23015D02*
G01X3721Y23015D01*
G01X3700Y22831D01*
G01X3721Y22851D01*
G01X3782Y22872D01*
G01X3844Y22872D01*
G01X3905Y22851D01*
G01X3946Y22810D01*
G01X3966Y22749D01*
G01X3966Y22708D01*
G01X3946Y22647D01*
G01X3905Y22606D01*
G01X3844Y22585D01*
G01X3782Y22585D01*
G01X3721Y22606D01*
G01X3700Y22626D01*
G01X3680Y22667D01*
G01X4101Y23015D02*
G01X4265Y22585D01*
G01X4429Y23015D02*
G01X4265Y22585D01*
G01X32972Y15807D02*
G01X32931Y15786D01*
G01X32890Y15746D01*
G01X32869Y15705D01*
G01X32850Y15642D01*
G01X32850Y15540D01*
G01X32869Y15480D01*
G01X32890Y15438D01*
G01X32931Y15398D01*
G01X32972Y15378D01*
G01X33055Y15378D01*
G01X33094Y15398D01*
G01X33135Y15438D01*
G01X33156Y15480D01*
G01X33177Y15540D01*
G01X33177Y15642D01*
G01X33156Y15705D01*
G01X33135Y15746D01*
G01X33094Y15786D01*
G01X33055Y15807D01*
G01X32972Y15807D01*
G01X33034Y15459D02*
G01X33156Y15336D01*
G01X33311Y15725D02*
G01X33352Y15746D01*
G01X33414Y15807D01*
G01X33414Y15378D01*
G01X16850Y4400D02*
G01X16850Y3971D01*
G01X16850Y4400D02*
G01X16993Y4400D01*
G01X17055Y4380D01*
G01X17094Y4339D01*
G01X17115Y4298D01*
G01X17135Y4237D01*
G01X17135Y4135D01*
G01X17115Y4073D01*
G01X17094Y4032D01*
G01X17055Y3991D01*
G01X16993Y3971D01*
G01X16850Y3971D01*
G01X17393Y4400D02*
G01X17352Y4380D01*
G01X17311Y4339D01*
G01X17292Y4298D01*
G01X17271Y4237D01*
G01X17271Y4135D01*
G01X17292Y4073D01*
G01X17311Y4032D01*
G01X17352Y3991D01*
G01X17393Y3971D01*
G01X17476Y3971D01*
G01X17517Y3991D01*
G01X17557Y4032D01*
G01X17577Y4073D01*
G01X17598Y4135D01*
G01X17598Y4237D01*
G01X17577Y4298D01*
G01X17557Y4339D01*
G01X17517Y4380D01*
G01X17476Y4400D01*
G01X17393Y4400D01*
G01X17734Y4400D02*
G01X17835Y3971D01*
G01X17938Y4400D02*
G01X17835Y3971D01*
G01X17938Y4400D02*
G01X18039Y3971D01*
G01X18143Y4400D02*
G01X18039Y3971D01*
G01X18277Y4400D02*
G01X18277Y3971D01*
G01X18277Y4400D02*
G01X18564Y3971D01*
G01X18564Y4400D02*
G01X18564Y3971D01*
G01X12650Y4349D02*
G01X12650Y4043D01*
G01X12670Y3981D01*
G01X12711Y3940D01*
G01X12773Y3920D01*
G01X12814Y3920D01*
G01X12875Y3940D01*
G01X12916Y3981D01*
G01X12936Y4043D01*
G01X12936Y4349D01*
G01X13071Y4349D02*
G01X13071Y3920D01*
G01X13071Y4349D02*
G01X13255Y4349D01*
G01X13317Y4329D01*
G01X13337Y4309D01*
G01X13358Y4268D01*
G01X13358Y4206D01*
G01X13337Y4165D01*
G01X13317Y4145D01*
G01X13255Y4124D01*
G01X13071Y4124D01*
G01X21850Y4300D02*
G01X21850Y3871D01*
G01X21850Y4300D02*
G01X22034Y4300D01*
G01X22095Y4280D01*
G01X22116Y4260D01*
G01X22136Y4219D01*
G01X22136Y4178D01*
G01X22116Y4137D01*
G01X22095Y4116D01*
G01X22034Y4096D01*
G01X21850Y4096D01*
G01X21993Y4096D02*
G01X22136Y3871D01*
G01X22558Y4239D02*
G01X22517Y4280D01*
G01X22455Y4300D01*
G01X22374Y4300D01*
G01X22312Y4280D01*
G01X22271Y4239D01*
G01X22271Y4198D01*
G01X22292Y4157D01*
G01X22312Y4137D01*
G01X22353Y4116D01*
G01X22476Y4075D01*
G01X22517Y4055D01*
G01X22537Y4035D01*
G01X22558Y3994D01*
G01X22558Y3932D01*
G01X22517Y3891D01*
G01X22455Y3871D01*
G01X22374Y3871D01*
G01X22312Y3891D01*
G01X22271Y3932D01*
G01X22836Y4300D02*
G01X22836Y3871D01*
G01X22693Y4300D02*
G01X22979Y4300D01*
G01X25756Y5563D02*
G01X25735Y5604D01*
G01X25694Y5645D01*
G01X25655Y5665D01*
G01X25572Y5665D01*
G01X25531Y5645D01*
G01X25490Y5604D01*
G01X25469Y5563D01*
G01X25450Y5502D01*
G01X25450Y5400D01*
G01X25469Y5338D01*
G01X25490Y5297D01*
G01X25531Y5256D01*
G01X25572Y5236D01*
G01X25655Y5236D01*
G01X25694Y5256D01*
G01X25735Y5297D01*
G01X25756Y5338D01*
G01X25892Y5584D02*
G01X25932Y5604D01*
G01X25993Y5665D01*
G01X25993Y5236D01*
G01X10200Y19950D02*
G01X10200Y19521D01*
G01X10200Y19521D02*
G01X10444Y19521D01*
G01X10580Y19950D02*
G01X10580Y19521D01*
G01X10580Y19950D02*
G01X10846Y19950D01*
G01X10580Y19746D02*
G01X10743Y19746D01*
G01X10580Y19521D02*
G01X10846Y19521D01*
G01X10981Y19950D02*
G01X10981Y19521D01*
G01X10981Y19950D02*
G01X11125Y19950D01*
G01X11185Y19930D01*
G01X11227Y19889D01*
G01X11247Y19848D01*
G01X11268Y19787D01*
G01X11268Y19684D01*
G01X11247Y19623D01*
G01X11227Y19582D01*
G01X11185Y19541D01*
G01X11125Y19521D01*
G01X10981Y19521D01*
G01X17449Y6728D02*
G01X17878Y6728D01*
G01X17878Y6728D02*
G01X17878Y6973D01*
G01X17449Y7108D02*
G01X17878Y7108D01*
G01X17449Y7108D02*
G01X17878Y7272D01*
G01X17449Y7436D02*
G01X17878Y7272D01*
G01X17449Y7436D02*
G01X17878Y7436D01*
G01X17449Y7612D02*
G01X17449Y7837D01*
G01X17612Y7714D01*
G01X17612Y7775D01*
G01X17633Y7816D01*
G01X17653Y7837D01*
G01X17714Y7857D01*
G01X17755Y7857D01*
G01X17817Y7837D01*
G01X17858Y7796D01*
G01X17878Y7734D01*
G01X17878Y7673D01*
G01X17858Y7612D01*
G01X17837Y7591D01*
G01X17796Y7571D01*
G01X17449Y8238D02*
G01X17449Y8033D01*
G01X17633Y8013D01*
G01X17612Y8033D01*
G01X17592Y8094D01*
G01X17592Y8156D01*
G01X17612Y8217D01*
G01X17653Y8258D01*
G01X17714Y8278D01*
G01X17755Y8278D01*
G01X17817Y8258D01*
G01X17858Y8217D01*
G01X17878Y8156D01*
G01X17878Y8094D01*
G01X17858Y8033D01*
G01X17837Y8013D01*
G01X17796Y7992D01*
G01X17449Y8516D02*
G01X17469Y8454D01*
G01X17510Y8434D01*
G01X17551Y8434D01*
G01X17592Y8454D01*
G01X17612Y8495D01*
G01X17633Y8577D01*
G01X17653Y8638D01*
G01X17694Y8679D01*
G01X17735Y8700D01*
G01X17796Y8700D01*
G01X17837Y8679D01*
G01X17858Y8659D01*
G01X17878Y8598D01*
G01X17878Y8516D01*
G01X17858Y8454D01*
G01X17837Y8434D01*
G01X17796Y8413D01*
G01X17735Y8413D01*
G01X17694Y8434D01*
G01X17653Y8475D01*
G01X17633Y8536D01*
G01X17612Y8618D01*
G01X17592Y8659D01*
G01X17551Y8679D01*
G01X17510Y8679D01*
G01X17469Y8659D01*
G01X17449Y8598D01*
G01X17449Y8516D01*
G54D11*
G01X15829Y17973D02*
G01X15756Y17938D01*
G01X15684Y17865D01*
G01X15647Y17792D01*
G01X15611Y17684D01*
G01X15611Y17502D01*
G01X15647Y17392D01*
G01X15684Y17319D01*
G01X15756Y17246D01*
G01X15829Y17211D01*
G01X15975Y17211D01*
G01X16047Y17246D01*
G01X16120Y17319D01*
G01X16156Y17392D01*
G01X16193Y17502D01*
G01X16193Y17684D01*
G01X16156Y17792D01*
G01X16120Y17865D01*
G01X16047Y17938D01*
G01X15975Y17973D01*
G01X15829Y17973D01*
G01X16433Y17973D02*
G01X16433Y17211D01*
G01X16433Y17211D02*
G01X16869Y17211D01*
G01X17109Y17973D02*
G01X17109Y17211D01*
G01X17109Y17973D02*
G01X17582Y17973D01*
G01X17109Y17611D02*
G01X17400Y17611D01*
G01X17109Y17211D02*
G01X17582Y17211D01*
G01X17822Y17973D02*
G01X17822Y17211D01*
G01X17822Y17973D02*
G01X18076Y17973D01*
G01X18185Y17938D01*
G01X18258Y17865D01*
G01X18295Y17792D01*
G01X18331Y17684D01*
G01X18331Y17502D01*
G01X18295Y17392D01*
G01X18258Y17319D01*
G01X18185Y17246D01*
G01X18076Y17211D01*
G01X17822Y17211D01*
G01X19349Y17973D02*
G01X19240Y17938D01*
G01X19167Y17828D01*
G01X19131Y17646D01*
G01X19131Y17538D01*
G01X19167Y17355D01*
G01X19240Y17246D01*
G01X19349Y17211D01*
G01X19422Y17211D01*
G01X19531Y17246D01*
G01X19604Y17355D01*
G01X19640Y17538D01*
G01X19640Y17646D01*
G01X19604Y17828D01*
G01X19531Y17938D01*
G01X19422Y17973D01*
G01X19349Y17973D01*
G01X19916Y17392D02*
G01X19880Y17355D01*
G01X19916Y17319D01*
G01X19953Y17355D01*
G01X19916Y17392D01*
G01X20665Y17719D02*
G01X20629Y17611D01*
G01X20556Y17538D01*
G01X20447Y17502D01*
G01X20411Y17502D01*
G01X20302Y17538D01*
G01X20229Y17611D01*
G01X20193Y17719D01*
G01X20193Y17755D01*
G01X20229Y17865D01*
G01X20302Y17938D01*
G01X20411Y17973D01*
G01X20447Y17973D01*
G01X20556Y17938D01*
G01X20629Y17865D01*
G01X20665Y17719D01*
G01X20665Y17538D01*
G01X20629Y17355D01*
G01X20556Y17246D01*
G01X20447Y17211D01*
G01X20375Y17211D01*
G01X20265Y17246D01*
G01X20229Y17319D01*
G01X21342Y17865D02*
G01X21305Y17938D01*
G01X21196Y17973D01*
G01X21124Y17973D01*
G01X21015Y17938D01*
G01X20942Y17828D01*
G01X20905Y17646D01*
G01X20905Y17465D01*
G01X20942Y17319D01*
G01X21015Y17246D01*
G01X21124Y17211D01*
G01X21160Y17211D01*
G01X21269Y17246D01*
G01X21342Y17319D01*
G01X21378Y17428D01*
G01X21378Y17465D01*
G01X21342Y17573D01*
G01X21269Y17646D01*
G01X21160Y17684D01*
G01X21124Y17684D01*
G01X21015Y17646D01*
G01X20942Y17573D01*
G01X20905Y17465D01*
G01X21618Y17973D02*
G01X21618Y17719D01*
G01X21909Y17973D02*
G01X21909Y17719D01*
G01X16909Y16687D02*
G01X16982Y16723D01*
G01X17091Y16832D01*
G01X17091Y16069D01*
G01X17368Y16651D02*
G01X17368Y16687D01*
G01X17404Y16760D01*
G01X17440Y16796D01*
G01X17513Y16832D01*
G01X17658Y16832D01*
G01X17731Y16796D01*
G01X17768Y16760D01*
G01X17804Y16687D01*
G01X17804Y16614D01*
G01X17768Y16541D01*
G01X17695Y16432D01*
G01X17331Y16069D01*
G01X17840Y16069D01*
G01X18262Y16832D02*
G01X18153Y16796D01*
G01X18117Y16723D01*
G01X18117Y16651D01*
G01X18153Y16578D01*
G01X18226Y16541D01*
G01X18371Y16505D01*
G01X18480Y16469D01*
G01X18553Y16396D01*
G01X18589Y16323D01*
G01X18589Y16214D01*
G01X18553Y16141D01*
G01X18517Y16105D01*
G01X18408Y16069D01*
G01X18262Y16069D01*
G01X18153Y16105D01*
G01X18117Y16141D01*
G01X18080Y16214D01*
G01X18080Y16323D01*
G01X18117Y16396D01*
G01X18189Y16469D01*
G01X18298Y16505D01*
G01X18444Y16541D01*
G01X18517Y16578D01*
G01X18553Y16651D01*
G01X18553Y16723D01*
G01X18517Y16796D01*
G01X18408Y16832D01*
G01X18262Y16832D01*
G01X18829Y16578D02*
G01X19229Y16069D01*
G01X19229Y16578D02*
G01X18829Y16069D01*
G01X19906Y16723D02*
G01X19869Y16796D01*
G01X19760Y16832D01*
G01X19688Y16832D01*
G01X19578Y16796D01*
G01X19506Y16687D01*
G01X19469Y16505D01*
G01X19469Y16323D01*
G01X19506Y16178D01*
G01X19578Y16105D01*
G01X19688Y16069D01*
G01X19724Y16069D01*
G01X19833Y16105D01*
G01X19906Y16178D01*
G01X19942Y16287D01*
G01X19942Y16323D01*
G01X19906Y16432D01*
G01X19833Y16505D01*
G01X19724Y16541D01*
G01X19688Y16541D01*
G01X19578Y16505D01*
G01X19506Y16432D01*
G01X19469Y16323D01*
G01X20546Y16832D02*
G01X20182Y16323D01*
G01X20728Y16323D01*
G01X20546Y16832D02*
G01X20546Y16069D01*
G54D30*
G01X34750Y12791D02*
G01X35179Y12791D01*
G01X34750Y13077D02*
G01X35179Y13077D01*
G01X34954Y12791D02*
G01X34954Y13077D01*
G01X34811Y13499D02*
G01X34770Y13458D01*
G01X34750Y13396D01*
G01X34750Y13315D01*
G01X34770Y13253D01*
G01X34811Y13212D01*
G01X34852Y13212D01*
G01X34893Y13233D01*
G01X34913Y13253D01*
G01X34934Y13294D01*
G01X34975Y13417D01*
G01X34995Y13458D01*
G01X35015Y13478D01*
G01X35056Y13499D01*
G01X35118Y13499D01*
G01X35159Y13458D01*
G01X35179Y13396D01*
G01X35179Y13315D01*
G01X35159Y13253D01*
G01X35118Y13212D01*
G54D10*
G75*
G01X25534Y950D02*
G02X26834Y950I650J-554D01*
G01*
G75*
G01X27534Y950D02*
G02X28834Y950I650J-526D01*
G01*
G54D29*
G75*
G01X32829Y14843D02*
G03X32829Y14842I-79J0D01*
G01*
G54D11*
G75*
G01X18380Y2390D02*
G03X18377Y2328I-700J0D01*
G01*
G75*
G01X13593Y2377D02*
G03X13591Y2314I-700J0D01*
G01*
G75*
G01X23020Y2390D02*
G03X23017Y2328I-700J0D01*
G01*
G54D10*
G75*
G01X9444Y18883D02*
G03X8356Y18883I-544J867D01*
G01*
G75*
G01X34050Y9250D02*
G03X33558Y7423I156J-1022D01*
G01*
G75*
G01X34065Y9250D02*
G02X34557Y7423I-156J-1022D01*
G01*
G75*
G01X34050Y9250D02*
G03X33558Y7423I156J-1022D01*
G01*
G75*
G01X34050Y17261D02*
G02X33558Y19088I156J1022D01*
G01*
G75*
G01X34050Y17246D02*
G03X34557Y19077I-153J1028D01*
G01*
G75*
G01X34050Y17261D02*
G02X33558Y19077I148J1015D01*
G01*
G75*
G01X24784Y7950D02*
G03X24784Y7950I-2284J0D01*
G01*
G75*
G01X28590Y6100D02*
G03X28590Y6100I-1240J0D01*
G01*
G75*
G01X17430Y9400D02*
G03X17430Y9400I-280J0D01*
G01*

%LPD*%
G36*
G01X28222Y6978D02*
G01X28200Y7000D01*
G01X28200Y5200D01*
G01X28222Y5221D01*
G01X28245Y5242D01*
G01X28266Y5265D01*
G01X28288Y5288D01*
G01X28308Y5311D01*
G01X28328Y5335D01*
G01X28348Y5360D01*
G01X28384Y5410D01*
G01X28402Y5436D01*
G01X28419Y5462D01*
G01X28435Y5489D01*
G01X28450Y5516D01*
G01X28465Y5544D01*
G01X28479Y5572D01*
G01X28492Y5600D01*
G01X28504Y5629D01*
G01X28516Y5657D01*
G01X28527Y5687D01*
G01X28537Y5716D01*
G01X28547Y5746D01*
G01X28571Y5836D01*
G01X28583Y5898D01*
G01X28587Y5928D01*
G01X28595Y5990D01*
G01X28597Y6022D01*
G01X28599Y6053D01*
G01X28599Y6146D01*
G01X28597Y6177D01*
G01X28595Y6209D01*
G01X28587Y6271D01*
G01X28583Y6301D01*
G01X28571Y6363D01*
G01X28547Y6453D01*
G01X28537Y6483D01*
G01X28527Y6512D01*
G01X28516Y6542D01*
G01X28504Y6570D01*
G01X28492Y6599D01*
G01X28479Y6627D01*
G01X28465Y6655D01*
G01X28450Y6683D01*
G01X28435Y6710D01*
G01X28419Y6737D01*
G01X28402Y6763D01*
G01X28384Y6789D01*
G01X28348Y6839D01*
G01X28328Y6864D01*
G01X28308Y6888D01*
G01X28288Y6911D01*
G01X28266Y6934D01*
G01X28245Y6957D01*
G01X28222Y6978D01*
G37*
M00*
M02*
