G04 Layer: TopSolderMaskLayer*
G04 EasyEDA v6.2.46, 2019-11-10T15:39:34+05:30*
G04 8ae749d232974c02949487af05e517e1,699dadb93aee4be8b9b8ad6142c81684,10*
G04 Gerber Generator version 0.2*
G04 Scale: 100 percent, Rotated: No, Reflected: No *
G04 Dimensions in inches *
G04 leading zeros omitted , absolute positions ,2 integer and 4 decimal *
%FSLAX24Y24*%
%MOIN*%
G90*
G70D02*

%ADD32C,0.108000*%
%ADD33C,0.078000*%
%ADD34C,0.077685*%
%ADD35C,0.086740*%
%ADD36C,0.070992*%
%ADD37C,0.082000*%
%ADD38C,0.068000*%
%ADD41C,0.073000*%
%ADD44C,0.145795*%

%LPD*%
G54D32*
G01X26150Y2750D02*
G01X26150Y2150D01*
G01X28150Y2750D02*
G01X28150Y2150D01*
G54D33*
G01X2840Y15150D02*
G01X2359Y15150D01*
G01X2840Y14150D02*
G01X2359Y14150D01*
G01X2840Y13150D02*
G01X2359Y13150D01*
G01X2840Y12150D02*
G01X2359Y12150D01*
G01X2840Y11150D02*
G01X2359Y11150D01*
G01X2840Y10150D02*
G01X2359Y10150D01*
G01X2840Y9150D02*
G01X2359Y9150D01*
G01X2840Y8150D02*
G01X2359Y8150D01*
G01X2840Y7150D02*
G01X2359Y7150D01*
G01X2840Y6150D02*
G01X2359Y6150D01*
G01X2840Y5150D02*
G01X2359Y5150D01*
G01X2840Y4150D02*
G01X2359Y4150D01*
G01X2840Y3150D02*
G01X2359Y3150D01*
G01X2840Y2150D02*
G01X2359Y2150D01*
G01X8840Y16150D02*
G01X8359Y16150D01*
G01X8840Y15150D02*
G01X8359Y15150D01*
G01X8840Y14150D02*
G01X8359Y14150D01*
G01X8840Y13150D02*
G01X8359Y13150D01*
G01X8840Y12150D02*
G01X8359Y12150D01*
G01X8840Y11150D02*
G01X8359Y11150D01*
G54D34*
G01X8842Y10150D02*
G01X8357Y10150D01*
G54D33*
G01X8840Y9150D02*
G01X8359Y9150D01*
G01X8840Y8150D02*
G01X8359Y8150D01*
G01X8840Y7150D02*
G01X8359Y7150D01*
G01X8840Y6150D02*
G01X8359Y6150D01*
G01X8840Y5150D02*
G01X8359Y5150D01*
G01X8840Y4150D02*
G01X8359Y4150D01*
G01X8840Y3150D02*
G01X8359Y3150D01*
G01X8840Y2150D02*
G01X8359Y2150D01*
G54D35*
G01X5630Y20057D02*
G01X5630Y21042D01*
G01X3150Y21042D02*
G01X3150Y20057D01*
G01X4823Y18759D02*
G01X3838Y18759D01*
G01X32848Y12150D02*
G01X32651Y12150D01*
G01X32848Y13150D02*
G01X32651Y13150D01*
G54D36*
G01X26800Y18416D03*
G01X26800Y9283D03*
G54D37*
G01X11063Y9736D03*
G01X11063Y5736D03*
G01X12713Y5736D03*
G01X12713Y9736D03*
G01X14350Y5750D03*
G01X14350Y9750D03*
G01X7050Y21900D03*
G01X11050Y21900D03*
G54D33*
G01X11550Y13200D03*
G01X11550Y11200D03*
G01X4550Y6750D03*
G01X6550Y6750D03*
G01X4550Y9350D03*
G01X6550Y9350D03*
G01X4550Y11900D03*
G01X6550Y11900D03*
G54D38*
G01X24075Y7950D03*
G01X20923Y7951D03*
G36*
G01X1969Y15765D02*
G01X1969Y16534D01*
G01X3230Y16534D01*
G01X3230Y15765D01*
G01X1969Y15765D01*
G37*
G36*
G01X32218Y13715D02*
G01X32218Y14584D01*
G01X33281Y14584D01*
G01X33281Y13715D01*
G01X32218Y13715D01*
G37*
G54D37*
G01X16400Y3280D03*
G01X18960Y3280D03*
G01X16400Y1500D03*
G01X18960Y1500D03*
G01X11613Y3266D03*
G01X14173Y3266D03*
G01X11613Y1486D03*
G01X14173Y1486D03*
G01X21039Y3280D03*
G01X23600Y3280D03*
G01X21039Y1500D03*
G01X23600Y1500D03*
G54D38*
G01X26850Y6100D03*
G01X27850Y6100D03*
G54D41*
G01X8900Y20250D03*
G01X8900Y19250D03*
G36*
G01X15769Y9019D02*
G01X15769Y9780D01*
G01X16530Y9780D01*
G01X16530Y9019D01*
G01X15769Y9019D01*
G37*
G36*
G01X15769Y8019D02*
G01X15769Y8780D01*
G01X16530Y8780D01*
G01X16530Y8019D01*
G01X15769Y8019D01*
G37*
G36*
G01X15769Y7019D02*
G01X15769Y7780D01*
G01X16530Y7780D01*
G01X16530Y7019D01*
G01X15769Y7019D01*
G37*
G36*
G01X15769Y6019D02*
G01X15769Y6780D01*
G01X16530Y6780D01*
G01X16530Y6019D01*
G01X15769Y6019D01*
G37*
G36*
G01X18769Y6019D02*
G01X18769Y6780D01*
G01X19530Y6780D01*
G01X19530Y6019D01*
G01X18769Y6019D01*
G37*
G36*
G01X18769Y7019D02*
G01X18769Y7780D01*
G01X19530Y7780D01*
G01X19530Y7019D01*
G01X18769Y7019D01*
G37*
G36*
G01X18769Y8019D02*
G01X18769Y8780D01*
G01X19530Y8780D01*
G01X19530Y8019D01*
G01X18769Y8019D01*
G37*
G36*
G01X18769Y9019D02*
G01X18769Y9780D01*
G01X19530Y9780D01*
G01X19530Y9019D01*
G01X18769Y9019D01*
G37*
G36*
G01X16865Y21400D02*
G01X16865Y22267D01*
G01X17734Y22267D01*
G01X17734Y21400D01*
G01X16865Y21400D01*
G37*
G54D35*
G01X18300Y21833D03*
G01X19300Y21833D03*
G01X20300Y21833D03*
G54D44*
G01X14213Y21636D03*
G01X23386Y21636D03*
G01X14213Y12266D03*
G01X23386Y12266D03*
M00*
M02*
